<svg width="2120" height="240" viewBox="0 0 2120 240" fill="none" xmlns="http://www.w3.org/2000/svg">
<path opacity="0.5" fill-rule="evenodd" clip-rule="evenodd" d="M1117.27 162.129C1549.5 372.361 1675.01 81.2995 1796.2 162.129C1980.05 285.54 2042.89 144.153 2120 144.153L2120 2.00011L0.281064 1.99993L0.093438 143.957C62.9402 143.957 131.978 206.241 201.391 213.89C270.991 221.667 334.588 184.567 362.166 161.236C411.505 120.057 540.201 22.6535 646.946 13.2192C753.88 3.65737 1076.18 142.368 1117.27 162.129Z" fill="#403C8F"/>
<path opacity="0.5" fill-rule="evenodd" clip-rule="evenodd" d="M564.026 162.291C660.453 162.291 727.615 107.112 837.55 69.2646C898.146 48.493 1156.1 45.1797 1375.97 162.291C1595.84 279.403 1570.32 80.4789 1692.27 162.291C1874.43 283.608 2120 96.9999 2120 96.9999L2120 49L2119.81 2.10727L0.0934472 1.99979L0.0934389 96.9997C0.0934389 96.9997 59.9386 44.9248 195.388 44.9248C402.5 45.1797 475.665 162.291 564.026 162.291Z" fill="#403C8F"/>
<path fill-rule="evenodd" clip-rule="evenodd" d="M496.114 70.429C920.095 -66.4347 1059.86 226.28 1333.57 116.815C1606.91 5.94768 1606.91 14.4857 1728.29 50.5494C1848.54 86.7406 1839.53 108.404 1929.4 126.5C2016.44 144.341 2036.14 50.7938 2120 48.5C2120 19.7001 2120 9.15527e-05 2120 9.15527e-05L0.0935183 2.8295e-05C0.0935183 2.8295e-05 -0.211786 13.3564 0.281014 48.6378C79.8244 48.6378 112.713 101.008 192.21 118.508C310.719 134.508 361.416 113.374 496.114 70.429Z" fill="#403C8F"/>
</svg>
