<svg width="2120" height="240" viewBox="0 0 2120 240" fill="none" xmlns="http://www.w3.org/2000/svg">
<path opacity="0.5" fill-rule="evenodd" clip-rule="evenodd" d="M1002.73 77.8712C570.499 -132.362 444.993 158.7 323.802 77.8712C139.952 -45.5401 77.105 95.8474 0.000488281 95.8474V238H2119.72L2119.91 96.0432C2057.06 96.0432 1988.02 33.7593 1918.61 26.1098C1849.01 18.3329 1785.41 55.4327 1757.83 78.7636C1708.49 119.943 1579.8 217.346 1473.05 226.781C1366.12 236.343 1043.82 97.6323 1002.73 77.8712Z" fill="#9B148A"/>
<path opacity="0.5" fill-rule="evenodd" clip-rule="evenodd" d="M1555.97 77.7087C1459.55 77.7087 1392.38 132.887 1282.45 170.735C1221.85 191.507 963.901 194.82 744.031 77.7087C524.161 -39.4027 549.675 159.521 427.734 77.7087C245.572 -43.608 0.000488281 143 0.000488281 143V191L0.188102 237.893L2119.91 238V143C2119.91 143 2060.06 195.075 1924.61 195.075C1717.5 194.82 1644.33 77.7087 1555.97 77.7087Z" fill="#981489"/>
<path fill-rule="evenodd" clip-rule="evenodd" d="M1623.89 169.571C1199.9 306.435 1060.14 13.7196 786.429 123.185C513.093 234.052 513.093 225.514 391.714 189.451C271.461 153.259 280.466 131.596 190.604 113.5C103.557 95.6593 83.8587 189.206 0.000488281 191.5C0.000488281 220.3 0.000488281 240 0.000488281 240L2119.91 240C2119.91 240 2120.21 226.643 2119.72 191.362C2040.18 191.362 2007.29 138.992 1927.79 121.492C1809.28 105.492 1758.58 126.626 1623.89 169.571Z" fill="#981489"/>
</svg>
