<svg width="75" height="52" viewBox="0 0 75 52" fill="none" xmlns="http://www.w3.org/2000/svg">
<path fill-rule="evenodd" clip-rule="evenodd" d="M37.4971 41.4201L7.23835 21.9165C6.8671 21.6964 6.39146 21.5759 5.89896 21.5759C5.40646 21.5759 4.93058 21.6964 4.55932 21.9165C4.383 22.0272 4.24213 22.1619 4.1459 22.3114C4.04966 22.4608 4 22.6223 4 22.7854C4 22.9486 4.04966 23.11 4.1459 23.2595C4.24213 23.409 4.383 23.5437 4.55932 23.6543L36.1658 45.4824C36.5275 45.7157 37.007 45.8452 37.5055 45.8452C38.004 45.8452 38.4835 45.7157 38.8451 45.4824L70.4391 23.6543C70.6142 23.546 70.7542 23.4134 70.8508 23.2664C70.9473 23.1195 70.9981 22.9603 71 22.7993C71.0007 22.6381 70.9511 22.4781 70.8544 22.3308C70.7576 22.1836 70.6162 22.053 70.4391 21.9457C70.0763 21.7129 69.5963 21.5829 69.0975 21.5829C68.5986 21.5829 68.1186 21.7129 67.7558 21.9457L37.4971 41.4201Z" fill="white"/>
<path fill-rule="evenodd" clip-rule="evenodd" d="M36.9975 22.2834L10.8034 5.27272C10.482 5.08075 10.0702 4.97565 9.64388 4.97565C9.21753 4.97565 8.80558 5.08075 8.48419 5.27272C8.33156 5.36922 8.20961 5.48672 8.1263 5.61708C8.04299 5.74743 8 5.88825 8 6.03055C8 6.17286 8.04299 6.31367 8.1263 6.44403C8.20961 6.57438 8.33156 6.69189 8.48419 6.78839L35.8451 26.0403C36.1581 26.2438 36.5732 26.3567 37.0048 26.3567C37.4363 26.3567 37.8514 26.2438 38.1644 26.0403L65.5145 6.78839C65.666 6.69387 65.7872 6.5783 65.8708 6.45009C65.9544 6.32189 65.9984 6.18309 66 6.04268C66.0006 5.90202 65.9576 5.76248 65.8739 5.63405C65.7902 5.50563 65.6678 5.39172 65.5145 5.29818C65.2004 5.09509 64.7849 4.98171 64.353 4.98171C63.9212 4.98171 63.5057 5.09509 63.1916 5.29818L36.9975 22.2834Z" fill="white"/>
</svg>
