<svg width="532" height="84" viewBox="0 0 532 84" fill="none" xmlns="http://www.w3.org/2000/svg">
<path d="M138.784 83.5566C138.784 83.3126 138.656 83.1596 138.499 83.2168C138.343 83.274 138.019 83.0445 137.78 82.7069C137.528 82.3507 137.139 82.093 136.854 82.093C136.465 82.093 136.434 82.042 136.704 81.8498C136.967 81.663 136.958 81.5891 136.667 81.5312C136.368 81.4719 136.381 81.3883 136.728 81.1394C137.064 80.8982 137.081 80.8056 136.801 80.75C136.6 80.7098 136.434 80.6009 136.434 80.5079C136.434 80.4148 136.565 80.3863 136.725 80.4446C136.891 80.5053 136.94 80.4358 136.84 80.2815C136.744 80.1335 136.816 80.0124 137.001 80.0124C137.245 80.0124 137.251 79.9183 137.022 79.6656C136.769 79.3871 136.798 79.3188 137.17 79.3188C137.544 79.3188 137.562 79.2742 137.264 79.0864C136.884 78.8461 136.146 79.0609 136.242 79.3838C136.267 79.4673 136.133 79.5693 135.943 79.6105C135.717 79.6598 135.658 79.554 135.769 79.3016C135.863 79.0905 135.819 78.9593 135.673 79.0099C135.526 79.0606 135.142 79.0446 134.819 78.9745C134.353 78.8733 134.49 78.8208 135.48 78.7209C136.258 78.6422 136.728 78.5026 136.728 78.3499C136.728 78.2153 136.985 78.1051 137.299 78.1051C137.613 78.1051 138.05 77.9527 138.271 77.7665C138.667 77.4326 140.164 76.9769 140.648 77.0424C140.785 77.061 141.645 76.9648 142.558 76.8288C143.471 76.6928 145.044 76.5265 146.054 76.4593C147.064 76.3921 147.964 76.2668 148.054 76.1808C148.144 76.0948 148.507 76.0227 148.861 76.0206C149.215 76.0184 150.297 75.7861 151.267 75.5043C152.236 75.2225 153.252 74.9902 153.525 74.988C153.799 74.9858 154.104 74.9061 154.204 74.8107C154.303 74.7154 154.236 74.6374 154.054 74.6374C153.647 74.6374 153.793 73.8619 154.204 73.845C154.365 73.8384 155.077 73.7351 155.785 73.6154C156.493 73.4957 157.395 73.4455 157.789 73.5039C158.184 73.5623 158.926 73.5337 159.439 73.4403C159.952 73.3469 161.109 73.1853 162.01 73.0811C164.484 72.7953 165.805 72.5566 165.805 72.3953C165.805 72.2282 150.738 72.3448 147.008 72.5408C145.042 72.6441 144.293 72.6159 143.483 72.4082C142.918 72.263 142.389 72.133 142.308 72.1192C142.228 72.1054 141.775 72 141.303 71.8849C140.831 71.7698 140.236 71.7235 139.982 71.7821C139.727 71.8407 135.818 71.9166 131.294 71.9509C126.771 71.9851 122.476 72.0908 121.749 72.1858C121.022 72.2807 118.844 72.449 116.908 72.5597C114.972 72.6704 113.136 72.8409 112.827 72.9386C112.518 73.0362 111.619 73.0795 110.83 73.0348C110.041 72.99 109.324 73.0214 109.237 73.1046C109.15 73.1878 108.956 73.211 108.806 73.1562C108.655 73.1013 108.532 73.139 108.532 73.24C108.532 73.341 108.433 73.4081 108.312 73.3892C107.823 73.3129 105.301 73.6284 105.301 73.7658C105.301 73.935 103.083 74.2163 102.244 74.1535C101.935 74.1304 101.434 74.2688 101.131 74.4611C100.827 74.6534 100.353 74.82 100.077 74.8312C99.8002 74.8425 98.781 74.8685 97.8118 74.8891C96.8425 74.9096 95.5209 75.0166 94.8747 75.1267C94.2285 75.2368 93.2006 75.3707 92.5903 75.4243C91.98 75.4779 91.5524 75.5903 91.64 75.674C91.9134 75.9351 91.2607 76.0035 86.1579 76.2485C85.8867 76.2615 85.6885 76.3461 85.7173 76.4364C85.7461 76.5267 85.5054 76.6465 85.1823 76.7027C84.8593 76.7588 84.2612 76.9387 83.8534 77.1025C83.3199 77.3167 82.2076 77.4315 79.8883 77.5118C78.1154 77.5731 76.3593 77.6152 75.9859 77.6052C75.6125 77.5952 74.9011 77.711 74.405 77.8624C73.8926 78.0188 73.4246 78.0691 73.3216 77.9788C73.0688 77.757 72.0348 77.544 72.2613 77.7603C72.5 77.9883 72.2142 77.9767 71.4322 77.7264C69.8538 77.2214 62.3817 77.6053 61.6022 78.2315C61.3608 78.4253 61.3344 78.5561 61.5287 78.5944C61.6959 78.6273 61.8326 78.7232 61.8326 78.8077C61.8326 78.8921 61.6477 78.9193 61.4217 78.8681C61.1958 78.8169 60.9236 78.8583 60.817 78.9602C60.5322 79.2323 62.2924 79.1928 63.2423 78.9058C63.6785 78.7741 64.6302 78.6088 65.3571 78.5386C66.084 78.4684 66.9101 78.3857 67.1928 78.3547C67.4754 78.3237 67.7067 78.4006 67.7067 78.5255C67.7067 78.6862 68.072 78.7357 68.955 78.6949C69.9199 78.6503 70.0852 78.6776 69.6831 78.8153C69.397 78.9132 69.2291 79.0565 69.3099 79.1337C69.4842 79.3003 67.8421 79.4677 64.663 79.6076C62.878 79.6862 62.2954 79.6551 62.0976 79.4707C61.9119 79.2977 61.8404 79.2917 61.8371 79.4489C61.8304 79.7681 60.0651 79.7165 59.4326 79.3787C59.1372 79.2208 58.8955 79.1655 58.8955 79.2557C58.8955 79.3552 57.9422 79.3729 56.4724 79.3006C55.1397 79.235 53.0581 79.1384 51.8465 79.0858C50.635 79.0333 49.2096 78.8996 48.679 78.7887C48.1484 78.6779 47.3852 78.6243 46.9831 78.6697C46.581 78.715 46.1687 78.6725 46.0668 78.5752C45.953 78.4665 46.0298 78.4523 46.2661 78.5386C46.5053 78.6258 46.5793 78.6108 46.4619 78.4987C46.2407 78.2874 44.84 78.096 43.1822 78.0506C42.2042 78.0238 42.002 77.956 41.9754 77.6459C41.9469 77.3129 42.1495 77.2592 43.8845 77.1405C44.9521 77.0675 46.156 77.0246 46.5598 77.0452L47.2941 77.0827L46.5148 76.8326C45.1634 76.399 43.8456 76.216 41.2731 76.1048C39.9 76.0454 37.9174 75.8694 36.8674 75.7137C34.4524 75.3554 26.0727 75.328 25.7072 75.6771C25.5814 75.7972 25.3231 75.8388 25.133 75.7694C24.6423 75.5904 19.2374 75.5301 19.4212 75.7057C19.5932 75.87 19.5494 75.8728 15.7073 75.9416C12.9955 75.9902 11.8508 76.0495 7.7904 76.3514C5.93893 76.489 4.85644 76.4102 3.79825 76.0606C3.35509 75.9142 3.4506 75.8309 4.51784 75.4332C5.37866 75.1124 6.43029 74.9237 8.01767 74.8052C10.7266 74.6031 13.3113 74.3484 15.1734 74.1002C16.2873 73.9517 16.5095 73.8599 16.3927 73.5964C16.309 73.4073 16.08 73.3128 15.8384 73.3675C15.612 73.4188 15.4268 73.3744 15.4268 73.2688C15.4268 73.1632 15.6581 73.0757 15.9408 73.0742C16.38 73.072 16.3907 73.0471 16.0142 72.9035C15.7356 72.7972 15.7052 72.7344 15.9316 72.7327C16.129 72.7312 16.2134 72.613 16.1198 72.4691C16.0017 72.2874 16.2948 72.1176 17.0836 71.9107L18.217 71.6133L15.3473 71.5088C13.769 71.4513 11.6873 71.4122 10.7214 71.4218C9.75552 71.4315 8.96523 71.4296 8.96523 71.4177C8.96523 71.4058 9.22956 71.2161 9.55264 70.9962C9.87572 70.7763 10.1401 70.6491 10.1401 70.7136C10.1401 70.7781 10.4377 70.7158 10.8015 70.575C11.1652 70.4343 12.4427 70.2294 13.6402 70.1197C14.8378 70.01 16.341 69.8113 16.9808 69.678C17.6206 69.5447 18.623 69.4329 19.2085 69.4295C20.8442 69.42 24.9644 68.7876 23.773 68.7289C23.6249 68.7216 23.2394 68.6797 22.9163 68.6358C22.5933 68.592 22.1675 68.5352 21.9703 68.5096C21.2983 68.4227 21.2554 68.2539 21.8757 68.1377C22.2162 68.0739 22.8402 67.8327 23.2624 67.6017C23.6846 67.3707 24.325 67.1817 24.6855 67.1817C25.046 67.1817 25.4917 67.0744 25.676 66.9433C25.9514 66.7475 25.7092 66.6847 24.3169 66.5911C23.385 66.5284 22.2261 66.4393 21.7415 66.3932C20.5886 66.2833 16.0008 66.2992 15.6857 66.4141C15.2606 66.5692 11.9023 66.6424 11.9023 66.4965C11.9023 66.4199 12.1006 66.2601 12.3429 66.1413C12.5852 66.0226 12.7834 65.844 12.7834 65.7444C12.7834 65.6449 12.6965 65.6147 12.5902 65.6775C12.4839 65.7402 12.2195 65.7046 12.0028 65.5984C11.7845 65.4915 11.6086 65.4793 11.6086 65.5711C11.6086 65.6622 11.4103 65.7368 11.168 65.7368C10.4627 65.7368 10.6562 65.5511 11.6255 65.2978C12.7155 65.013 12.5594 64.8935 10.8021 64.6675C9.19899 64.4615 8.89338 64.1385 10.0428 63.865C11.2323 63.5819 16.8208 63.2146 20.0154 63.2094C21.5128 63.2069 23.0886 63.1531 23.5172 63.0896L24.2963 62.9741L23.4595 62.57C22.9992 62.3478 22.3991 62.1631 22.126 62.1597C21.4298 62.1509 21.2182 61.8751 21.5916 61.4632C21.9859 61.0283 24.5408 60.2462 25.5673 60.2462C26.0001 60.2462 26.2503 60.1713 26.1471 60.0728C26.0473 59.9774 25.7232 59.8994 25.4269 59.8994C24.9293 59.8994 24.3761 59.4665 24.4851 59.1625C24.5959 58.8534 19.9359 59.1991 19.5459 59.5288C19.2481 59.7807 11.7481 60.4388 11.0108 60.2778L10.3087 60.1245L10.9917 59.9087C11.3673 59.7901 13.8075 59.483 16.4144 59.2265C21.1846 58.757 22.3456 58.4256 19.2198 58.4256C18.2593 58.4256 17.3757 58.3266 17.0885 58.1867C16.6805 57.9881 16.1156 57.9826 13.7361 58.1541C9.36063 58.4696 6.81778 58.6862 6.22144 58.7944C5.82635 58.8661 5.70753 58.8147 5.78088 58.6039C5.88777 58.2966 6.79645 57.9361 8.22101 57.6357C9.4472 57.3772 8.685 57.1493 7.11718 57.3056C6.43744 57.3734 5.28654 57.4839 4.55962 57.551L3.23793 57.6732L4.33934 57.0501C4.94511 56.7074 5.44074 56.3991 5.44074 56.365C5.44074 56.3309 4.62116 56.2483 3.61945 56.1814C1.25103 56.0232 -0.0162496 55.6313 0.000157321 55.062C0.00877572 54.7618 1.90885 54.359 3.67683 54.2826C4.40467 54.2512 6.05752 54.1015 7.34983 53.95C8.64215 53.7985 10.6248 53.6394 11.7558 53.5965C12.8868 53.5536 14.605 53.4363 15.574 53.3358C21.5923 52.712 22.9468 52.5584 23.2062 52.4706C23.3656 52.4167 22.903 52.2873 22.1782 52.1831C21.4488 52.0782 20.8604 51.892 20.8604 51.766C20.8604 51.4742 23.8207 50.8404 26.5073 50.557C27.8142 50.4191 28.7812 50.214 29.0978 50.0074C29.3812 49.8226 30.3644 49.5895 31.3371 49.4765C33.5442 49.2201 33.4846 48.977 31.0865 48.4539C30.5723 48.3418 30.2112 48.1598 30.284 48.0495C30.4497 47.7984 31.8111 47.4155 32.5377 47.4155C32.8381 47.4155 33.0022 47.3375 32.9024 47.2421C32.8026 47.1467 31.7374 47.0687 30.5354 47.0687C28.555 47.0687 27.7597 46.8914 28.7171 46.6634C29.5725 46.4596 25.2862 46.5699 23.1691 46.8062C20.5326 47.1004 19.0981 46.9772 19.0981 46.4567C19.0981 46.2167 19.8653 45.9017 21.9811 45.2727C23.9741 44.6802 24.7447 44.3703 24.4776 44.2684C23.9702 44.075 24.471 43.8772 26.4408 43.4931C29.2213 42.951 31.4271 42.0422 31.1375 41.5581C30.9397 41.2275 32.0234 41.0471 36.5008 40.6656C38.7263 40.476 40.9551 40.2007 41.4536 40.0538C41.9521 39.907 43.0076 39.7411 43.7991 39.6851C45.9815 39.5307 50.1573 38.907 50.8105 38.638C51.1291 38.5067 51.79 38.3938 52.279 38.3871C52.7681 38.3804 53.4326 38.3079 53.7556 38.2259C54.2234 38.1073 54.1037 38.0717 53.1682 38.0514C50.6648 37.9969 49.3364 37.8512 49.0045 37.5947C48.7779 37.4195 48.4239 37.3657 47.9765 37.4382C47.3892 37.5335 47.3665 37.5222 47.8134 37.3569C48.099 37.2513 48.5616 37.1871 48.8413 37.2143C49.1211 37.2414 49.5278 37.1979 49.7452 37.1175C49.9789 37.031 50.4361 37.0648 50.8647 37.2002C51.4292 37.3785 51.7117 37.3838 52.1448 37.2242C52.4963 37.0946 52.7657 37.0817 52.8782 37.1892C52.976 37.2826 53.8082 37.3618 54.7275 37.3652C55.6468 37.3685 56.7294 37.4828 57.1333 37.6191C58.0131 37.916 58.3081 37.9378 58.3081 37.7058C58.3081 37.6104 58.102 37.5324 57.8502 37.5324C57.5984 37.5324 57.4647 37.4632 57.5532 37.3787C57.6417 37.2942 57.4373 37.1823 57.099 37.1301C56.7607 37.0779 56.5414 36.9325 56.6116 36.807C56.7411 36.5754 58.0567 36.4397 62.1263 36.2381C65.8029 36.0561 66.8256 35.9581 66.8256 35.7879C66.8256 35.6984 66.6274 35.6251 66.3851 35.6251C66.1403 35.6251 65.9445 35.471 65.9445 35.2784C65.9445 35.0241 66.1403 34.9316 66.6788 34.9316C67.5236 34.9316 67.6677 34.6646 66.8878 34.5442C66.5989 34.4996 65.112 34.5048 63.5836 34.5557C59.132 34.704 57.3513 34.6546 56.4201 34.3571C55.947 34.206 55.4753 34.1133 55.3718 34.1511C55.2683 34.1888 55.2382 34.0001 55.305 33.7316C55.4506 33.1458 55.0375 33.0545 52.0218 33.0055C50.2169 32.9762 50.0769 32.9499 50.7041 32.7579C51.736 32.4422 55.5213 31.9891 57.7785 31.9111C58.9321 31.8713 60.0218 31.7289 60.4138 31.5668C61.2482 31.2218 61.751 31.2175 62.3151 31.5505C62.5689 31.7003 63.276 31.809 63.983 31.8069C66.1598 31.8002 74.2818 31.3126 75.3845 31.1223C76.4143 30.9446 76.4455 30.9159 76.2283 30.3473C76.0914 29.9889 76.1222 29.6862 76.3066 29.5773C76.5161 29.4536 76.507 29.3242 76.2776 29.161C75.5759 28.6619 76.4685 28.5586 80.7548 28.6427C84.0851 28.708 85.1241 28.6722 85.7999 28.4688C86.5149 28.2535 89.7385 27.9566 91.9376 27.9035C92.2607 27.8957 93.1859 27.8195 93.9936 27.7343L95.4621 27.5793L94.1404 27.4531C93.4135 27.3838 91.2327 27.3668 89.2943 27.4154C87.3558 27.4641 84.5803 27.4935 83.1264 27.4808C81.6726 27.4681 78.8309 27.5848 76.8117 27.7401C72.8163 28.0475 68.696 28.2625 66.9223 28.2562C66.3037 28.254 65.7146 28.3203 65.6132 28.4036C65.5117 28.4869 65.0161 28.5649 64.5118 28.5771C64.0075 28.5893 63.5948 28.6638 63.5948 28.7428C63.5948 28.8218 63.2975 28.837 62.934 28.7766C62.4167 28.6907 62.3688 28.7064 62.7137 28.849C63.0935 29.0059 63.0834 29.0314 62.6403 29.0337C62.3576 29.0353 62.1263 29.1234 62.1263 29.2297C62.1263 29.3484 61.847 29.315 61.4024 29.143C60.5984 28.832 60.2459 28.7832 60.4903 29.0167C60.5788 29.1012 60.3883 29.2109 60.0671 29.2605C59.7328 29.3121 59.4829 29.2649 59.4829 29.1502C59.4828 29.0341 59.0191 28.9497 58.3815 28.9497C57.6814 28.9497 57.3052 29.0256 57.3489 29.1581C57.3962 29.3016 57.0797 29.341 56.3337 29.2847C55.111 29.1922 53.9048 28.7882 53.898 28.4689C53.8948 28.3324 53.7915 28.3493 53.6088 28.5162C53.3878 28.7181 53.3231 28.667 53.3196 28.2881C53.3138 27.6627 53.7978 27.1291 54.3707 27.1291C54.6169 27.1291 54.7366 27.0511 54.6368 26.9557C54.5369 26.8604 54.6943 26.7764 54.9866 26.7691C55.9544 26.7449 56.5691 26.6398 57.2235 26.3867C57.8103 26.1597 59.1892 26.2471 59.1892 26.5112C59.1892 26.559 59.0121 26.558 58.7957 26.5087C58.5793 26.4597 58.2158 26.5552 57.988 26.7209C57.6311 26.9805 57.6315 27.0016 57.9912 26.8737C58.312 26.7595 58.3605 26.7987 58.2015 27.0433C58.0779 27.2335 58.1463 27.418 58.3719 27.5025C58.9338 27.713 59.407 27.6734 58.8959 27.4587C58.5644 27.3194 58.7345 27.2965 59.5833 27.3663C60.2072 27.4176 60.9513 27.3705 61.2483 27.261C61.6548 27.1112 61.8898 27.1143 62.2153 27.2738C62.5622 27.4438 62.6896 27.425 62.8732 27.1767C62.9985 27.0074 63.08 26.8103 63.0544 26.7388C63.0287 26.6673 63.195 26.6088 63.4238 26.6088C63.6527 26.6088 63.8903 26.5195 63.9519 26.4105C64.0135 26.3014 64.4516 26.1878 64.9255 26.1579C65.3994 26.1281 65.9348 25.9845 66.1153 25.8388C66.2958 25.693 66.5506 25.6311 66.6815 25.7012C66.8124 25.7712 66.8366 25.692 66.7351 25.5251C66.5081 25.1516 67.0698 25.1167 67.312 25.4892C67.466 25.726 67.5493 25.7229 68.0371 25.4624C68.5578 25.1842 68.5885 25.1861 68.5927 25.4982C68.5964 25.7749 68.6433 25.7863 68.8819 25.5684C69.3064 25.1807 69.2458 25.0963 68.4597 24.9798C67.9611 24.9059 67.7579 24.7629 67.7903 24.5086C67.842 24.1037 68.8651 23.8009 70.0439 23.8418C71.1427 23.88 72.1127 23.6568 72.1127 23.3659C72.1127 23.1787 72.4046 23.1238 73.2141 23.1586C74.3978 23.2097 76.3893 23.0145 77.1057 22.7773C77.4615 22.6595 77.4332 22.6288 76.9589 22.6179C76.6358 22.6105 75.7106 22.5678 74.9029 22.5231C72.4054 22.3849 69.0833 22.3893 67.8849 22.5323C67.0622 22.6305 66.7985 22.614 66.9456 22.4735C67.072 22.3528 66.9925 22.3138 66.7378 22.3715C66.4962 22.4262 66.1063 22.2675 65.7964 21.9882C65.418 21.6473 65.3682 21.4917 65.6216 21.4419C65.8596 21.395 65.8021 21.2916 65.4464 21.1269C64.9637 20.9034 64.9948 20.8897 65.798 20.9721C66.2826 21.0218 66.5139 21.0165 66.312 20.9603C65.5681 20.7532 65.9778 20.5402 67.1196 20.5402C67.8613 20.5402 68.2961 20.6201 68.2989 20.7569C68.3021 20.9164 68.3701 20.9115 68.5559 20.7384C68.7145 20.5906 68.8771 20.5688 68.9931 20.6796C69.1903 20.868 69.5642 20.8533 70.4822 20.6213C70.797 20.5418 71.489 20.4715 72.0199 20.4651C73.2372 20.4505 73.6324 20.02 72.4285 20.02C71.9524 20.02 71.5148 19.9073 71.419 19.76C71.3049 19.5845 71.4332 19.4999 71.8135 19.4999C72.1235 19.4999 72.4828 19.4023 72.612 19.2831C72.9488 18.9723 74.1458 18.6042 74.4539 18.7166C74.5977 18.7691 74.7984 18.7327 74.8999 18.6358C75.0013 18.5389 75.4491 18.4595 75.8948 18.4595C76.3406 18.4595 77.4232 18.3328 78.3006 18.178C79.6855 17.9335 79.8099 17.8774 79.2442 17.7521C78.8857 17.6727 76.4333 17.6184 73.7944 17.6313C71.1554 17.6443 68.8236 17.5918 68.6125 17.5148C68.394 17.4351 68.1422 17.4574 68.0278 17.5668C67.7918 17.7922 58.6615 17.9631 58.4346 17.7463C58.3548 17.6701 58.0844 17.6542 57.8338 17.711C57.5251 17.7809 57.4844 17.8531 57.7079 17.9346C57.8893 18.0008 57.6361 18.055 57.1451 18.055C56.6541 18.055 56.2524 17.9804 56.2524 17.8893C56.2524 17.7981 56.051 17.8222 55.8047 17.9429C55.5585 18.0635 55.2631 18.1067 55.1483 18.0389C55.0335 17.9711 55.2679 17.7681 55.6694 17.5877L56.3993 17.2597L55.665 17.343C55.0216 17.416 55.0034 17.406 55.5181 17.2616C56.3652 17.024 57.7573 17.0486 58.5733 17.3156C59.3687 17.5757 60.3643 17.49 60.3643 17.1613C60.3643 17.0099 60.9443 16.9419 62.2734 16.9375C63.4712 16.9335 64.1825 17.0021 64.1825 17.1216C64.1825 17.2264 64.3477 17.1843 64.5496 17.028C64.8148 16.8228 65.61 16.713 67.4133 16.6326C68.7864 16.5714 70.7441 16.4113 71.7637 16.2767C72.7833 16.1422 74.0389 16.0246 74.5539 16.0155C75.0689 16.0063 76.1511 15.8923 76.9588 15.7621C78.3359 15.5401 78.1804 15.5312 74.4623 15.6199C72.2815 15.6719 70.299 15.7158 70.0567 15.7174C69.8144 15.7189 66.7745 15.9031 63.3014 16.1266C59.8283 16.3502 56.0418 16.5569 54.887 16.586C53.7323 16.6152 52.8479 16.6975 52.9219 16.769C52.9958 16.8405 52.4868 16.8994 51.7907 16.8997C51.0946 16.8997 49.3356 17.0135 47.8817 17.1516C45.3887 17.3885 39.5242 17.6328 40.3206 17.4666C40.5235 17.4243 40.6149 17.3182 40.5235 17.231C40.4322 17.1438 40.7288 17.0687 41.1826 17.0641C41.6363 17.0597 42.4702 16.9078 43.0356 16.7268C43.601 16.5458 44.3279 16.325 44.651 16.2361C45.7129 15.9438 63.0354 14.252 67.1196 14.0417C68.3311 13.9794 71.8336 13.7738 74.9028 13.5849C77.9721 13.396 82.0231 13.1657 83.9051 13.0732C85.7871 12.9806 87.9629 12.792 88.7401 12.6539C89.7612 12.4725 90.2095 12.4565 90.3558 12.5962C90.5414 12.7734 93.6314 12.7249 97.3715 12.4861C97.9369 12.45 99.7211 12.3717 101.337 12.3121C104.235 12.2052 108.651 11.8455 111.123 11.5151C111.821 11.4218 112.516 11.3905 112.667 11.4457C112.818 11.5009 114.865 11.3741 117.215 11.1639C120.691 10.853 121.612 10.8214 122.159 10.9942C122.709 11.168 123.413 11.1388 126.035 10.8338C130.399 10.3261 136.093 9.6661 138.931 9.33908C140.223 9.19015 142.101 8.95763 143.103 8.82239C144.106 8.68713 145.361 8.57685 145.894 8.57732C146.426 8.57732 147.456 8.46582 148.183 8.32848C149.408 8.09703 151.916 7.84008 158.609 7.26042C162.048 6.96263 162.741 6.8939 166.246 6.50275C167.861 6.32248 170.505 6.04623 172.12 5.88883C173.735 5.73143 175.454 5.56395 175.938 5.51665C179.368 5.18208 180.021 5.18829 180.703 5.56206C181.071 5.76372 181.372 6.01731 181.372 6.12557C181.372 6.23384 181.471 6.31317 181.592 6.30188C181.713 6.2907 182.114 6.2907 182.484 6.30188C183.045 6.31903 183.107 6.37546 182.861 6.64639C182.501 7.04301 182.789 7.25694 183.327 6.99324C183.933 6.69653 183.795 6.96341 183.098 7.43646C182.733 7.68459 181.999 7.90707 181.323 7.97444C180.337 8.07281 180.225 8.12703 180.54 8.35166C181.014 8.6888 180.614 8.70972 199.435 7.36534C200.727 7.27303 203.04 7.16008 204.575 7.11435C206.109 7.06863 208.885 6.94908 210.743 6.84869C212.6 6.74833 215.045 6.63529 216.176 6.59751C217.307 6.55974 218.755 6.44799 219.394 6.34918C220.032 6.2504 222.567 6.16475 225.025 6.1589C227.484 6.15305 229.671 6.11347 229.885 6.07096C230.413 5.96608 237.296 5.75323 238.933 5.79112C239.658 5.80792 240.452 5.92955 240.699 6.06153C241.253 6.35725 242.663 6.38689 249.218 6.2407C252.232 6.17347 254.999 6.02064 255.908 5.87125C257.094 5.67631 259.061 5.62294 264.279 5.64414C268.03 5.65946 274.272 5.61295 278.148 5.54101C286.005 5.39519 285.585 5.39354 293.715 5.60188C298.979 5.73676 302.015 5.74236 306.638 5.62572C307.446 5.60533 307.875 5.55296 307.593 5.50935C307.31 5.46576 307.079 5.3485 307.079 5.24882C307.079 5.12925 307.903 5.10195 309.502 5.16858C310.834 5.22414 314.833 5.34866 318.386 5.4453C321.94 5.54195 326.5 5.70107 328.519 5.7989C336.632 6.19193 339.726 6.33045 343.939 6.48923C354.476 6.88638 360.031 7.04462 365.82 7.1126C368.486 7.14391 371.79 7.22269 373.163 7.28765C374.536 7.35262 376.585 7.39878 377.715 7.39022C378.846 7.3818 381.093 7.4514 382.708 7.5452C384.324 7.63901 389.555 7.7501 394.334 7.79211C399.113 7.83411 403.607 7.94452 404.32 8.03747C405.034 8.13041 406.656 8.24873 407.925 8.30038C409.194 8.35202 410.648 8.43442 411.156 8.48348C412.893 8.65123 415.604 8.76528 419.569 8.83737C423.06 8.90084 426.453 9.0532 431.464 9.3716C432.272 9.4229 433.395 9.48666 433.96 9.51326C434.526 9.53989 435.98 9.61173 437.191 9.67295C438.403 9.73416 440.451 9.83197 441.743 9.89032C443.035 9.94864 444.159 10.0204 444.24 10.0498C444.321 10.0792 445.139 10.1503 446.057 10.208C446.976 10.2657 447.921 10.3567 448.158 10.4103C448.394 10.4639 449.758 10.531 451.187 10.5594C455.112 10.6374 455.107 10.6369 455.107 10.9172C455.107 11.0602 455.247 11.1773 455.418 11.1773C455.589 11.1773 455.634 11.086 455.517 10.9744C455.372 10.8361 455.468 10.8085 455.817 10.8877C456.099 10.9516 456.622 11.0039 456.978 11.0039C457.415 11.0039 457.64 11.1166 457.67 11.3507C457.723 11.7652 457.563 11.785 456.974 11.4374C456.36 11.0744 455.672 11.1016 455.879 11.4807C455.98 11.6674 455.948 11.7096 455.796 11.5904C455.627 11.4583 454.799 11.4335 453.198 11.5125C450.442 11.6485 448.361 11.6111 444.534 11.3567C442.999 11.2546 441.017 11.1292 440.128 11.0779C439.24 11.0267 438.359 10.9549 438.17 10.9185C437.981 10.8822 437.75 10.9707 437.656 11.1153C437.53 11.3101 437.251 11.3479 436.581 11.261C435.529 11.1246 434.853 11.0727 432.051 10.9136C430.921 10.8493 429.916 10.768 429.82 10.733C429.614 10.6582 425.685 10.6459 420.303 10.7032C416.888 10.7395 414.48 10.6403 412.684 10.3892C411.671 10.2477 404.59 10.1864 404.59 10.3192C404.59 10.3875 405.482 10.4997 406.572 10.5686C407.663 10.6375 408.819 10.7247 409.142 10.7623C411.408 11.0262 417.478 11.3219 422.359 11.4063C423.49 11.4259 424.555 11.4947 424.725 11.5592C425.009 11.6666 434.003 12.0806 434.486 12.0086C434.601 11.9914 435.686 12.0319 436.897 12.0987C438.771 12.2018 443.554 12.4093 444.754 12.4396C445.188 12.4504 445.239 12.6743 444.841 12.8196C444.555 12.9239 442.341 12.9479 440.338 12.8685C439.726 12.8443 439.118 12.7218 438.987 12.5962C438.809 12.4265 438.304 12.3981 437.015 12.4855C436.062 12.5501 435.194 12.634 435.085 12.672C434.977 12.7099 434.688 12.6226 434.443 12.478C434.198 12.3333 433.928 12.2818 433.842 12.3634C433.676 12.5219 427.748 12.4544 426.03 12.2745C425.465 12.2153 424.468 12.1508 423.816 12.1311C423.163 12.1114 422.337 12.0031 421.98 11.8903C421.461 11.7264 421.331 11.7317 421.331 11.9168C421.331 12.053 420.938 12.167 420.376 12.1938C418.054 12.3044 414.803 12.2939 412.226 12.1675C410.372 12.0765 409.581 12.0879 409.868 12.2014C411.026 12.659 408.853 12.8847 405.471 12.6583C402.472 12.4575 401.936 12.4469 400.64 12.5631C399.971 12.623 399.033 12.6102 398.556 12.5346C397.298 12.3357 390.76 11.9833 387.848 11.9576C386.475 11.9455 384.493 11.8822 383.443 11.817C382.393 11.7518 380.278 11.6584 378.743 11.6095C377.209 11.5605 373.574 11.4058 370.666 11.2656C367.759 11.1254 363.434 10.9582 361.055 10.8941C357.18 10.7897 356.712 10.8076 356.544 11.0664C356.384 11.3125 355.873 11.354 353.085 11.3478C351.285 11.3438 349.218 11.4037 348.491 11.481L347.17 11.6217L349.373 11.815C350.584 11.9213 352.038 12.0062 352.603 12.0036C353.169 12.0008 355.482 12.1197 357.743 12.2673C360.005 12.415 364.3 12.6229 367.289 12.7294C370.277 12.8359 373.016 12.9603 373.376 13.006C373.735 13.0516 376.709 13.1649 379.984 13.2578C385.871 13.4246 389.995 13.5608 393.135 13.6919C394.023 13.729 397.071 13.8384 399.908 13.935C402.745 14.0316 405.256 14.1453 405.489 14.1878C405.721 14.2303 406.176 14.324 406.499 14.3961C406.822 14.4683 407.594 14.5489 408.215 14.5754C408.836 14.6019 409.498 14.7473 409.685 14.8985C409.955 15.1168 410.721 15.1826 413.402 15.2182C415.259 15.2429 416.911 15.311 417.072 15.3696C417.234 15.4283 418.357 15.522 419.569 15.578C425.36 15.8455 431.15 16.0628 433.814 16.1126C435.429 16.1428 438.865 16.3038 441.45 16.4703C444.035 16.6368 447.339 16.799 448.793 16.8306C458.855 17.0497 466.892 17.3256 471.114 17.5969C472.568 17.6903 475.117 17.8169 476.777 17.8783C478.438 17.9396 479.867 18.0565 479.952 18.138C480.037 18.2195 479.67 18.2925 479.135 18.3003C478.601 18.3081 477.79 18.3304 477.334 18.3499C476.878 18.3695 476.448 18.3306 476.377 18.2635C476.307 18.1964 475.761 18.2211 475.164 18.3184C474.559 18.4172 473.23 18.4447 472.156 18.3809C471.099 18.3179 465.475 18.2358 459.66 18.1985C453.844 18.1612 446.906 18.0803 444.24 18.0187C439.489 17.9089 438.143 17.9761 441.26 18.1673C442.124 18.2204 442.895 18.3015 442.974 18.3476C443.183 18.4713 442.109 18.7773 441.218 18.8477C440.18 18.9297 439.852 19.1494 440.74 19.1682C441.13 19.1765 443.168 19.256 445.268 19.3448C447.368 19.4337 451.498 19.5525 454.447 19.6089C459.293 19.7015 459.807 19.7405 459.807 20.0152C459.807 20.3966 460.989 20.4868 468.115 20.6489C470.988 20.7143 473.408 20.8336 473.492 20.9141C473.577 20.9946 474.225 21.0604 474.933 21.0604C477.346 21.0604 476.669 21.5392 473.705 21.9293C472.869 22.0393 471.745 22.1151 471.209 22.0975C467.632 21.9805 468.57 22.3219 472.583 22.5975C474.198 22.7085 476.445 22.837 477.576 22.8832C478.707 22.9294 480.755 23.045 482.128 23.14C483.502 23.2351 486.277 23.3643 488.296 23.4272C490.783 23.5046 492.062 23.6149 492.261 23.7687C492.424 23.8946 493.472 24.0463 494.611 24.1088C495.742 24.1709 496.799 24.317 496.961 24.4334C497.122 24.5499 498.22 24.6978 499.399 24.7621C500.579 24.8265 501.841 24.9937 502.203 25.1337C502.618 25.2942 503.888 25.4166 505.638 25.4647C509.412 25.5684 512.369 25.7638 512.532 25.9203C512.705 26.0848 510.133 26.3198 509.738 26.1757C509.576 26.1165 509.443 26.1421 509.443 26.2325C509.443 26.3229 509.906 26.4481 510.471 26.5107C511.587 26.6343 511.798 26.85 510.985 27.0361C510.026 27.2558 511.369 27.6036 514.388 27.9175C516.924 28.1811 518.527 28.5069 517.359 28.5214C516.261 28.535 517.956 28.8406 519.72 28.9472C520.768 29.0104 521.779 29.1375 521.966 29.2295C522.154 29.3214 523.144 29.4762 524.165 29.5733C527.004 29.8432 526.973 30.06 524.077 30.1944C522.995 30.2446 522.006 30.3933 521.709 30.5505C521.291 30.7711 520.781 30.7975 518.919 30.6948C515.131 30.486 514.382 30.5266 513.813 30.9715C513.535 31.1892 513.365 31.4219 513.434 31.4886C513.504 31.5553 514.452 31.6645 515.541 31.7312C516.629 31.798 517.652 31.9138 517.814 31.9887C517.975 32.0635 518.735 32.1799 519.503 32.2474C521.609 32.4324 521.176 32.6774 518.744 32.6774C517.559 32.6774 516.49 32.7359 516.368 32.8074C516.245 32.879 515.014 32.9375 513.63 32.9375C511.881 32.9375 511.076 33.0035 510.989 33.1542C510.902 33.3027 511.217 33.3712 511.989 33.3719C512.608 33.3722 513.577 33.4445 514.143 33.5319C514.708 33.6194 516.289 33.7403 517.657 33.8007C519.024 33.861 520.292 33.9834 520.474 34.0726C520.656 34.1619 520.882 34.1894 520.976 34.1339C521.07 34.0783 521.455 34.0976 521.83 34.1769C522.358 34.2881 522.045 34.3461 520.457 34.4314C518.584 34.532 516.448 34.785 515.317 35.0401C514.6 35.202 515.716 35.3799 519.062 35.6375C520.718 35.7649 522.073 35.9155 522.073 35.972C522.073 36.0286 522.932 36.0426 523.982 36.0031C525.516 35.9455 525.891 35.9811 525.891 36.1848C525.891 36.4991 524.961 37.013 524.399 37.0094C524.054 37.0072 524.058 36.9777 524.422 36.8387C524.797 36.6957 524.785 36.6702 524.339 36.668C524.052 36.6664 523.737 36.7864 523.641 36.9344C523.492 37.1636 522.961 37.1901 520.053 37.1128C516.408 37.016 515.512 37.1307 516.183 37.6084C517.308 38.4084 521.894 39.2661 525.047 39.2661C526.952 39.2661 527.947 39.4764 527.947 39.8791C527.947 40.0806 527.477 40.1322 525.67 40.1289C524.418 40.1267 522.865 40.0426 522.219 39.9422C521.573 39.8417 518.529 39.7242 515.454 39.681C510.016 39.6046 509.862 39.612 509.819 39.951C509.776 40.2845 510.135 40.5246 510.765 40.5848C510.926 40.6003 512.193 40.7391 513.58 40.8934C518.12 41.3984 522.151 41.706 526.276 41.8623C530.098 42.0071 531.402 42.2057 531.007 42.583C530.917 42.6691 530.717 42.6935 530.562 42.6371C530.408 42.5808 530.318 42.6381 530.362 42.7643C530.407 42.8913 530.215 42.9833 529.932 42.9702C529.651 42.9571 529.485 43.0071 529.562 43.0812C529.64 43.1554 529.255 43.2657 528.707 43.3264C527.521 43.4577 527.24 43.7703 527.847 44.2819C528.171 44.5546 528.205 44.7171 527.975 44.8813C527.596 45.1505 527.843 45.3347 528.583 45.3347C528.879 45.3347 529.121 45.3673 529.121 45.4072C529.121 45.4471 529.209 45.6147 529.316 45.7797C529.495 46.0552 529.298 46.0702 526.893 45.9646C525.453 45.9014 523.78 45.8033 523.174 45.7466C522.297 45.6646 522.072 45.6987 522.072 45.914C522.072 46.0627 521.859 46.2548 521.599 46.3408C520.927 46.5629 521.33 47.562 522.174 47.7628C522.776 47.9063 522.779 47.9146 522.219 47.9367C521.632 47.9599 521.632 47.9599 522.219 48.1089C522.792 48.2543 521.992 48.3164 518.989 48.3597C517.736 48.3777 516.786 48.6111 516.786 48.9008C516.786 49.0556 516.481 49.1501 515.978 49.1516C515.534 49.1532 514.87 49.2015 514.503 49.2596C513.876 49.3586 513.867 49.3797 514.356 49.5985C514.642 49.7268 515.238 49.8342 515.68 49.8373C516.122 49.8404 517.355 50.1159 518.421 50.4496C519.496 50.7863 520.787 51.0565 521.319 51.0565C523.099 51.0565 525.876 51.2772 525.739 51.4079C525.664 51.4792 525.828 51.5268 526.103 51.5137C526.378 51.5007 526.649 51.6244 526.707 51.7888C526.841 52.1703 525.107 52.828 524.212 52.735C523.854 52.6978 523.513 52.7525 523.455 52.8565C523.316 53.1018 519.888 53.1712 518.517 52.9564C517.935 52.8652 514.928 52.7695 511.835 52.7436C506.607 52.6999 505.065 52.7885 507.02 53.0201C507.464 53.0727 508.422 53.1952 509.149 53.2923C509.876 53.3894 511.033 53.4722 511.719 53.4764C512.406 53.4805 512.967 53.562 512.967 53.6573C512.967 53.7527 513.174 53.8307 513.427 53.8307C513.68 53.8307 514.159 53.9164 514.49 54.0212C515.087 54.2096 515.085 54.2139 514.397 54.4164C513.193 54.7711 513.566 55.1056 515.591 55.4857C516.63 55.6807 517.542 55.9538 517.617 56.0925C517.693 56.2313 517.872 56.3901 518.015 56.4454C518.464 56.6194 517.926 57.1543 517.418 57.0392C517.161 56.981 517.031 56.9812 517.131 57.0398C517.23 57.0983 516.978 57.3428 516.57 57.5832C516.035 57.8994 515.482 58.0282 514.573 58.049C513.882 58.0648 513.37 58.1287 513.435 58.1911C513.5 58.2535 512.289 58.2663 510.743 58.2195C508.495 58.1516 507.833 58.1872 507.439 58.3974C506.892 58.6893 504.008 58.8096 502.503 58.6033C501.928 58.5245 501.509 58.5488 501.384 58.6682C501.274 58.7731 500.873 58.859 500.492 58.859C499.608 58.859 498.869 59.0253 498.869 59.2244C498.869 59.3095 499.061 59.3792 499.295 59.3792C499.53 59.3792 499.834 59.4975 499.971 59.6421C500.125 59.8052 501.273 60.026 502.996 60.2238C506.389 60.6136 508.887 61.2095 508.651 61.5728C508.56 61.7124 508.298 61.784 508.068 61.7319C507.838 61.6798 507.724 61.7078 507.814 61.7939C507.905 61.8801 507.632 62.1937 507.208 62.4908C506.642 62.8885 506.283 63.0019 505.848 62.9204C505.521 62.8591 505.331 62.8802 505.423 62.9677C505.514 63.0546 505.128 63.1333 504.567 63.1427C504.005 63.1521 502.617 63.294 501.484 63.458L499.422 63.7563L500.078 64.1685C500.439 64.3953 500.856 64.5808 501.006 64.5808C501.155 64.5808 501.731 64.7079 502.285 64.8632C503.252 65.134 503.275 65.1621 502.847 65.5477C502.566 65.8011 502.51 65.9897 502.696 66.0576C502.858 66.1168 502.906 66.2462 502.803 66.3452C502.681 66.4613 502.523 66.4416 502.357 66.2899C502.19 66.1372 502.023 66.1167 501.88 66.2315C501.759 66.3288 501.263 66.5213 500.779 66.6593L499.897 66.9102L500.827 66.9691C501.834 67.0329 502.372 67.4778 501.642 67.6431C501.396 67.6989 501.121 67.7015 501.031 67.6488C500.942 67.5961 500.429 67.6989 499.892 67.8772C499.354 68.0555 498.412 68.257 497.798 68.325C497.184 68.3929 496.503 68.5536 496.286 68.682C495.771 68.9862 495.569 68.9795 492.84 68.5674C490.391 68.1976 489.7 68.2321 488.695 68.7744C488.129 69.0802 487.9 69.0953 486.365 68.9278C484.352 68.7081 480.56 68.68 480.776 68.8863C480.859 68.9657 481.891 69.1276 483.07 69.2462C486.072 69.5485 486.41 69.6134 485.917 69.7933C485.062 70.1051 488.889 70.8411 492.629 71.0843C493.639 71.1499 494.529 71.2648 494.607 71.3396C494.686 71.4144 494.472 71.6836 494.134 71.9379C493.565 72.3649 493.554 72.4237 493.991 72.7088C494.251 72.8785 494.464 73.0601 494.464 73.1123C494.464 73.3265 489.49 73.0182 487.855 72.7025C485.504 72.2487 480.744 71.9174 480.304 72.1771C480.071 72.3144 480.069 72.4324 480.297 72.5942C480.604 72.8126 481.075 72.9061 484.992 73.5257C486.213 73.7189 486.827 73.9034 486.827 74.0772C486.827 74.2968 486.481 74.3198 484.648 74.2218C483.252 74.1471 482.401 74.1696 482.281 74.2846C482.178 74.3832 482.255 74.4639 482.453 74.4639C482.651 74.4639 482.745 74.5043 482.661 74.5537C482.464 74.6699 478.305 74.1546 477.891 73.9627C477.566 73.8118 473.277 73.4218 472.362 73.46C472.08 73.4717 471.848 73.579 471.848 73.6984C471.848 73.8177 471.78 74.0206 471.696 74.1491C471.552 74.3712 475.139 74.8201 481.32 75.3536C482.248 75.4337 483.487 75.6175 484.073 75.7619C484.658 75.9062 485.55 76.0248 486.056 76.0254C487.386 76.0269 489.296 76.3702 488.988 76.5524C488.845 76.6368 487.056 76.7281 485.013 76.7552C482.97 76.7824 481.32 76.8179 481.347 76.8341C481.374 76.8502 482.049 77.0149 482.847 77.2C484.237 77.5224 484.27 77.5454 483.635 77.7461C483.138 77.9033 482.606 77.9093 481.508 77.7702C479.72 77.5439 479.485 77.5409 479.485 77.7445C479.485 77.8323 479.88 77.9553 480.362 78.0179C481.968 78.2261 481.62 78.4518 479.694 78.4518C478.573 78.4518 477.439 78.5618 476.889 78.724C476.331 78.8881 475.706 78.9478 475.314 78.8743C474.477 78.7173 460.687 78.6575 460.848 78.8115C461.189 79.1379 457.336 79.1362 454.049 78.8084C447.391 78.1449 441.726 77.7677 438.072 77.7447C436.053 77.7319 433.013 77.6143 431.317 77.4832C429.62 77.3522 426.599 77.1645 424.602 77.0662C422.605 76.9679 420.886 76.8574 420.784 76.8207C420.681 76.7841 419.605 76.7043 418.394 76.6434C417.182 76.5825 415.728 76.4997 415.163 76.4593C413.986 76.3754 408.627 76.199 404.736 76.1161C401.922 76.0562 397.645 75.8967 394.75 75.7438C393.781 75.6925 390.014 75.6174 386.379 75.5767C382.745 75.536 378.449 75.4388 376.834 75.3606C375.219 75.2825 370.751 75.2263 366.906 75.2358C361.091 75.2501 359.868 75.296 359.637 75.5086C359.4 75.7254 359.318 75.7274 359.094 75.5222C358.918 75.361 358.541 75.3145 357.962 75.3828C357.484 75.4393 356.95 75.4001 356.773 75.2955C356.596 75.1911 356.015 75.0892 355.482 75.0691C354.948 75.049 354.248 74.9863 353.925 74.9299C352.165 74.6222 350.331 74.5327 349.592 74.7185C348.999 74.8676 347.518 74.6914 347.723 74.4961C347.798 74.4241 346.383 74.3442 344.578 74.3186C339.716 74.2496 339.212 74.218 338.662 73.9485C338.215 73.7294 338.17 73.7394 338.259 74.0396C338.326 74.2683 338.216 74.3572 337.918 74.3154C337.675 74.2815 337.18 74.2523 336.816 74.2504C336.453 74.2485 336.155 74.187 336.155 74.1138C336.155 74.0406 335.942 73.9324 335.682 73.8734C335.338 73.7956 335.257 73.8404 335.385 74.0373C335.506 74.224 335.448 74.2659 335.197 74.1719C334.997 74.0968 333.578 74.0109 332.043 73.981C328.816 73.918 329.296 73.9188 314.127 73.9504C307.747 73.9637 301.709 73.9182 300.71 73.8493C299.711 73.7804 298.672 73.7744 298.4 73.8359C297.9 73.9492 288.306 74.1728 285.358 74.1399C283.052 74.1141 280.438 74.9142 281.892 75.2004C282.109 75.243 281.959 75.3657 281.525 75.5009C281.122 75.6265 280.718 75.7951 280.628 75.8756C280.304 76.1666 277.81 76.3289 277.102 76.1051C276.656 75.9641 275.473 75.9135 273.614 75.9558C272.066 75.9909 266.984 76.0609 262.319 76.1112C257.655 76.1615 253.517 76.2502 253.125 76.3083C252.733 76.3664 251.065 76.4259 249.42 76.4405C247.774 76.4551 246.163 76.5548 245.84 76.662C245.262 76.8538 242.538 77.1686 242.082 77.0963C241.52 77.0072 240.477 77.0296 239.526 77.1512C238.96 77.2234 238.233 77.2694 237.91 77.2534C237.587 77.2374 237.058 77.2106 236.735 77.1938C236.412 77.177 234.892 77.2548 233.358 77.3668C231.823 77.4788 229.996 77.5688 229.298 77.5668C228.599 77.565 227.872 77.6371 227.682 77.7273C227.492 77.8175 226.907 77.9456 226.382 78.0119C225.601 78.1105 225.428 78.0791 225.428 77.8389C225.428 77.579 225.185 77.5595 223.298 77.6682C222.127 77.7357 219.054 77.8089 216.47 77.8309C213.885 77.8529 211.058 77.9625 210.188 78.0745C209.318 78.1865 208.542 78.2782 208.463 78.2782C208.385 78.2782 208.485 78.3952 208.686 78.5383C208.887 78.6813 209.498 78.7983 210.044 78.7983C210.59 78.7983 211.036 78.831 211.036 78.8709C211.036 78.9107 211.116 79.0668 211.214 79.2176C211.459 79.5938 210.632 79.5753 209.979 79.19C209.609 78.9717 209.434 78.948 209.346 79.1044C209.278 79.2233 209.103 79.2765 208.955 79.2226C208.807 79.1688 208.686 79.1878 208.686 79.265C208.686 79.3421 208.389 79.4148 208.025 79.4265C207.662 79.4382 205.646 79.536 203.546 79.644C201.446 79.7519 197.217 79.8715 194.148 79.9097C191.079 79.9479 188.237 80.0219 187.833 80.0742C186.465 80.2513 178.941 80.6622 174.91 80.7799C167.44 80.998 161.776 81.6287 160.608 82.3726C160.243 82.6053 159.599 82.7932 159.137 82.802C155.336 82.875 150.058 83.1086 147.742 83.3065C146.773 83.3893 145.072 83.5049 143.964 83.5634C142.855 83.6219 141.284 83.744 140.472 83.8349C139.661 83.9257 138.949 84 138.891 84C138.832 84 138.784 83.8003 138.784 83.5563L138.784 83.5566ZM138.784 81.979C138.784 81.7893 138.654 81.7751 138.208 81.9162C137.863 82.025 137.7 82.2037 137.801 82.3602C137.932 82.562 138.065 82.5764 138.378 82.423C138.601 82.3135 138.784 82.1137 138.784 81.979ZM188.274 79.4002C189.423 79.1568 189.394 79.1533 186.952 79.2378C181.361 79.4314 179.609 79.5294 179.609 79.649C179.609 79.8752 187.038 79.6618 188.274 79.4002ZM51.8465 77.3063C51.8465 77.2688 51.6483 77.2382 51.406 77.2382C51.1637 77.2382 50.9654 77.3137 50.9654 77.4061C50.9654 77.4985 51.1637 77.5291 51.406 77.4743C51.6483 77.4194 51.8465 77.3438 51.8465 77.3063ZM73.1404 76.718C73.2429 76.6201 73.0023 76.5446 72.5876 76.5446C72.1838 76.5446 71.7716 76.6226 71.6718 76.718C71.5693 76.8159 71.8098 76.8914 72.2246 76.8914C72.6284 76.8914 73.0405 76.8134 73.1404 76.718ZM59.1892 75.8308C59.1892 75.6519 58.8376 75.6352 58.1853 75.7829C57.4483 75.9499 57.6461 76.1582 58.455 76.0669C58.8588 76.0213 59.1892 75.9151 59.1892 75.8308ZM225.38 75.8026C226.382 75.6378 226.519 75.5745 226.026 75.5054C225.242 75.3958 215.897 75.6275 210.889 75.8808C209.528 75.9496 220.038 76.1177 222.197 76.0616C223.247 76.0343 224.679 75.9178 225.38 75.8026ZM235.561 75.269C235.884 75.2239 235.289 75.1933 234.239 75.2011C231.733 75.2196 230.741 75.3789 232.33 75.5076C232.976 75.56 233.835 75.5461 234.239 75.4769C234.643 75.4077 235.238 75.3141 235.561 75.269V75.269ZM48.1258 75.3199C48.7306 75.3095 48.7266 75.3005 48.0475 75.1403C47.2467 74.9514 46.5598 75.0455 46.5598 75.344C46.5598 75.4528 46.7684 75.4942 47.0244 75.4362C47.2799 75.3783 47.7755 75.326 48.1258 75.3199ZM239.973 75.1248C240.051 75.0784 239.529 75.0273 238.811 75.0113C238.094 74.9953 237.415 75.0694 237.304 75.176C237.161 75.3123 237.506 75.346 238.465 75.2895C239.216 75.2453 239.894 75.1711 239.973 75.1248ZM469.646 73.0769C469.758 72.9695 469.289 72.9113 468.415 72.924C467.161 72.9422 467.101 72.9594 467.883 73.0769C469.169 73.2699 469.444 73.2699 469.646 73.0769ZM16.9504 70.531C16.7384 70.4809 16.4851 70.4871 16.3875 70.5447C16.2899 70.6023 16.4634 70.6433 16.773 70.6358C17.1151 70.6275 17.1847 70.5864 16.9504 70.531V70.531ZM20.4198 70.3027C21.0101 70.1911 21.0389 70.1629 20.5667 70.1588C20.2436 70.1559 19.7149 70.2207 19.3919 70.3027C18.6434 70.4925 19.4156 70.4925 20.4198 70.3027ZM24.3609 70.3708C24.6164 70.3129 24.8255 70.1253 24.8255 69.9539C24.8255 69.6883 24.6407 69.6558 23.5772 69.7342C22.2276 69.8338 21.3469 70.1293 22.3997 70.1293C22.7456 70.1293 23.1102 70.2073 23.2101 70.3027C23.419 70.5023 23.7057 70.5192 24.3609 70.3708ZM501.513 67.3551C501.513 67.2597 501.282 67.1829 500.999 67.1844C500.56 67.1866 500.549 67.2114 500.925 67.3551C501.48 67.5666 501.513 67.5666 501.513 67.3551ZM31.6358 60.3011C31.4238 60.2511 31.1704 60.2572 31.0729 60.3148C30.9753 60.3725 31.1487 60.4134 31.4583 60.4059C31.8005 60.3975 31.8701 60.3565 31.6358 60.3012V60.3011ZM29.2311 59.7953C29.2311 59.5127 28.4142 59.4809 27.3411 59.7217C26.1728 59.984 26.4501 60.1685 27.9094 60.0999C28.7961 60.0583 29.2311 59.958 29.2311 59.7953ZM34.6866 59.9204C34.3933 59.6402 33.343 59.5688 33.343 59.829C33.343 59.975 33.6445 60.0728 34.0946 60.0728C34.5079 60.0728 34.7744 60.0042 34.6866 59.9204ZM32.4618 59.726C32.7896 59.601 32.6203 59.5573 31.801 59.5553C31.1952 59.5537 30.6996 59.6307 30.6996 59.726C30.6996 59.9469 31.883 59.9469 32.4618 59.726ZM522.072 39.4397C522.072 39.3443 521.94 39.2663 521.779 39.2663C521.617 39.2663 521.485 39.3443 521.485 39.4397C521.485 39.535 521.617 39.6131 521.779 39.6131C521.94 39.6131 522.072 39.535 522.072 39.4397ZM524.202 36.2039C524 36.1558 523.669 36.1558 523.468 36.2039C523.266 36.252 523.431 36.2913 523.835 36.2913C524.239 36.2913 524.404 36.252 524.202 36.2039ZM519.796 34.1157C519.433 34.0743 518.838 34.0743 518.474 34.1157C518.111 34.157 518.408 34.1908 519.135 34.1908C519.862 34.1908 520.16 34.157 519.796 34.1157ZM506.212 32.716C506.212 32.6417 505.122 32.4885 503.789 32.3754C502.456 32.2623 501.048 32.1157 500.659 32.0496C500.22 31.9749 500.021 31.9944 500.132 32.1009C500.231 32.1953 501.474 32.3717 502.895 32.4931C504.316 32.6144 505.61 32.7384 505.772 32.7686C505.933 32.7989 506.098 32.8297 506.139 32.8372C506.179 32.8448 506.212 32.7902 506.212 32.716ZM77.8397 31.1171C78.3642 30.984 78.3424 30.9667 77.6367 30.9559C77.202 30.9492 76.7647 31.0217 76.6648 31.1171C76.4481 31.3241 77.0237 31.3241 77.8397 31.1171ZM504.156 30.1012C504.156 30.0193 502.83 29.8633 501.209 29.7544C497.557 29.5093 496.901 29.5044 497.275 29.7248C497.431 29.8173 499.011 29.9624 500.784 30.0473C502.558 30.1322 504.042 30.2126 504.083 30.2259C504.123 30.2393 504.156 30.1831 504.156 30.1012V30.1012ZM61.3618 28.025C61.445 27.9455 61.3207 27.8805 61.0854 27.8805C60.8502 27.8805 60.6578 27.9455 60.6578 28.025C60.6578 28.1045 60.7821 28.1695 60.9341 28.1695C61.0862 28.1695 61.2786 28.1045 61.3618 28.025ZM100.657 27.7043C100.445 27.6542 100.192 27.6603 100.094 27.7179C99.9965 27.7755 100.17 27.8165 100.48 27.809C100.822 27.8006 100.891 27.7596 100.657 27.7042V27.7043ZM55.0773 27.4759C55.0773 27.3806 54.846 27.3037 54.5633 27.3052C54.1241 27.3074 54.1134 27.3323 54.4899 27.4759C55.0442 27.6874 55.0773 27.6874 55.0773 27.4759ZM56.2522 27.2056C56.2522 27.1636 56.12 27.1291 55.9585 27.1291C55.7969 27.1291 55.6647 27.2118 55.6647 27.3128C55.6647 27.4138 55.7969 27.4482 55.9585 27.3892C56.12 27.3303 56.2522 27.2477 56.2522 27.2056ZM72.9935 25.9984C73.3973 25.9317 74.6529 25.8121 75.7837 25.7325C76.9145 25.6529 78.3023 25.5053 78.8676 25.4045C79.433 25.3037 79.8956 25.2278 79.8956 25.2357C79.8956 25.3022 81.9074 24.9312 82.9061 24.6805C84.4213 24.3003 84.517 24.0082 83.1264 24.0082C82.4085 24.0082 82.0984 23.9297 82.0984 23.7481C82.0984 23.4814 83.4129 23.376 85.595 23.4677C86.5456 23.5076 89.2578 23.2088 89.8787 22.9957C90.3425 22.8366 88.8603 22.6571 86.9269 22.6384C85.669 22.6261 84.5973 22.7482 83.2733 23.0545C82.2428 23.2929 81.1273 23.4892 80.7945 23.4907C80.3125 23.4929 80.2761 23.5257 80.6159 23.6526C80.8505 23.7402 81.1478 23.7734 81.2767 23.7264C81.4056 23.6794 81.511 23.7148 81.511 23.8049C81.511 23.9601 80.8681 24.0697 78.6248 24.297C78.0874 24.3514 77.5763 24.5058 77.4891 24.64C77.3594 24.8395 77.2464 24.8436 76.8693 24.6628C76.4829 24.4776 76.4361 24.486 76.581 24.7148C76.7075 24.9147 76.5842 24.9803 76.122 24.9591C75.7744 24.9432 75.0514 25.0009 74.5154 25.0874C73.8396 25.1965 73.4119 25.1816 73.1203 25.0387C72.8838 24.9228 72.6998 24.9075 72.6998 25.0037C72.6998 25.195 70.4619 25.7421 69.6795 25.7421C69.4022 25.7421 69.1753 25.8487 69.1753 25.9791C69.1753 26.1556 69.5691 26.2038 70.7173 26.1679C71.5653 26.1413 72.5896 26.065 72.9935 25.9984V25.9984ZM85.0757 19.7103C84.8638 19.6686 84.5508 19.7169 84.3801 19.8177C84.1621 19.9463 84.2768 19.9689 84.7653 19.8935C85.1625 19.8322 85.2956 19.7536 85.0757 19.7103ZM439.834 19.0233C439.834 18.9518 439.432 18.8767 438.942 18.8564C438.432 18.8353 438.126 18.8909 438.226 18.9864C438.43 19.182 439.835 19.2142 439.834 19.0233ZM85.9166 17.931L86.6509 17.9176L85.9658 17.7555C85.1919 17.5724 83.8607 17.7135 83.8607 17.9786C83.8607 18.0753 84.1561 18.1067 84.5215 18.0489C84.885 17.9914 85.5128 17.9383 85.9166 17.931ZM437.485 17.9685C437.485 17.889 437.286 17.824 437.044 17.824C436.802 17.824 436.604 17.889 436.604 17.9685C436.604 18.048 436.802 18.113 437.044 18.113C437.286 18.113 437.485 18.048 437.485 17.9685ZM438.715 17.9945C438.503 17.9444 438.249 17.9506 438.152 18.0082C438.054 18.0658 438.227 18.1068 438.537 18.0993C438.879 18.091 438.949 18.0499 438.715 17.9945V17.9945ZM90.9647 17.6478C90.7527 17.5977 90.4994 17.6038 90.4018 17.6614C90.3042 17.719 90.4777 17.76 90.7873 17.7525C91.1294 17.7442 91.199 17.7031 90.9647 17.6478V17.6478ZM58.0144 17.4194C58.0144 17.3241 57.8822 17.246 57.7207 17.246C57.5592 17.246 57.427 17.3241 57.427 17.4194C57.427 17.5148 57.5592 17.5928 57.7207 17.5928C57.8822 17.5928 58.0144 17.5148 58.0144 17.4194ZM65.6508 16.9647C65.6508 16.7705 65.0992 16.9408 64.9412 17.1839C64.7866 17.4218 64.8295 17.4326 65.2035 17.2493C65.4495 17.1288 65.6508 17.0007 65.6508 16.9647ZM68.5879 16.986C68.5879 16.8429 68.5359 16.7259 68.4725 16.7259C68.409 16.7259 68.2809 16.8429 68.188 16.986C68.095 17.129 68.1469 17.246 68.3034 17.246C68.4599 17.246 68.5879 17.129 68.5879 16.986ZM453.106 11.059C452.894 11.0089 452.641 11.0151 452.543 11.0727C452.446 11.1303 452.619 11.1713 452.929 11.1638C453.271 11.1555 453.341 11.1144 453.106 11.059V11.059ZM182.681 7.54829C182.774 7.45951 182.729 7.34293 182.582 7.28921C182.435 7.23548 182.238 7.30812 182.146 7.45061C181.963 7.73152 182.405 7.81211 182.681 7.54829ZM43.2707 81.963C43.1017 81.8438 43.0787 81.7439 43.2197 81.741C43.3606 81.7381 43.2287 81.6509 42.9267 81.5473C42.1518 81.2815 42.8383 81.0537 44.357 81.0726C45.1502 81.0825 45.341 81.1239 44.9444 81.2C44.3848 81.3074 43.9676 81.7488 44.4304 81.7439C45.2928 81.7346 45.9156 81.508 45.7812 81.2523C45.6501 81.0027 45.6851 81.0049 46.0542 81.2694C46.5559 81.6289 48.7909 81.695 48.9841 81.3561C49.0822 81.184 49.2016 81.1852 49.5642 81.3618C50.136 81.6404 50.4734 82.3171 49.9878 82.2113C49.7986 82.1701 49.6866 82.0313 49.7389 81.9029C49.8055 81.7395 49.6706 81.7566 49.2905 81.9597C48.8565 82.1916 48.2264 82.243 46.1625 82.2149C44.5213 82.1926 43.4659 82.1007 43.2707 81.963L43.2707 81.963ZM39.2389 81.5808C38.8476 81.4381 39.0358 81.0527 39.4967 81.0527C39.8318 81.0527 40.1259 81.5423 39.8511 81.6426C39.7293 81.687 39.4538 81.6592 39.2389 81.5808ZM45.4531 80.1858C45.1283 79.8787 45.1622 79.836 45.7496 79.8126C46.1145 79.7981 46.6112 79.7734 46.8535 79.7578C47.637 79.7075 47.7844 79.8659 47.2677 80.203C46.6149 80.6288 45.9148 80.6221 45.4531 80.1858ZM223.372 78.8956C223.372 78.8535 223.504 78.7709 223.665 78.712C223.827 78.653 223.959 78.6874 223.959 78.7884C223.959 78.8894 223.827 78.972 223.665 78.972C223.504 78.972 223.372 78.9376 223.372 78.8956ZM226.818 78.7771C227.017 78.6586 227.254 78.6054 227.345 78.6588C227.435 78.7121 227.272 78.8091 226.982 78.8742C226.564 78.9683 226.53 78.9484 226.818 78.7771ZM69.1753 78.2997C69.1753 78.216 69.3792 78.0477 69.6283 77.9256C69.9805 77.7531 70.1597 77.75 70.4335 77.9116C70.7074 78.0733 70.6883 78.1559 70.3477 78.2831C69.7938 78.4898 69.1753 78.4986 69.1753 78.2997V78.2997ZM400.771 76.718C400.771 76.6226 400.962 76.5446 401.194 76.5446C401.427 76.5446 401.699 76.6226 401.799 76.718C401.899 76.8134 401.709 76.8914 401.376 76.8914C401.043 76.8914 400.771 76.8134 400.771 76.718ZM395.778 76.5338C395.778 76.3365 396.567 76.3164 396.768 76.5086C396.848 76.5842 396.657 76.6574 396.345 76.6712C396.033 76.6851 395.778 76.6233 395.778 76.5338ZM104.507 76.2541C104.242 75.8475 104.645 75.7878 105.66 76.0832C106.19 76.2373 106.491 76.3751 106.329 76.3894C105.091 76.4993 104.644 76.4661 104.507 76.2541ZM358.477 75.8511C358.477 75.7557 358.536 75.6777 358.607 75.6777C358.678 75.6777 358.818 75.7557 358.918 75.8511C359.018 75.9464 358.959 76.0245 358.788 76.0245C358.617 76.0245 358.477 75.9464 358.477 75.8511ZM354.243 75.701C354.116 75.5801 354.092 75.4344 354.189 75.3772C354.452 75.222 354.739 75.4502 354.597 75.7016C354.497 75.8778 354.428 75.8777 354.243 75.7007V75.701ZM355.32 75.7362C354.719 75.593 354.904 75.3558 355.54 75.4541C355.863 75.5039 356.128 75.6137 356.128 75.6979C356.128 75.8632 355.899 75.8741 355.32 75.7362ZM496.128 74.8685C495.79 74.669 495.914 74.464 496.373 74.464C496.615 74.464 496.814 74.581 496.814 74.724C496.814 74.9948 496.466 75.068 496.128 74.8685ZM131.626 73.8064C131.547 73.7308 131.74 73.6575 132.055 73.6435C132.371 73.6295 132.552 73.6913 132.458 73.7809C132.25 73.9797 131.821 73.9928 131.626 73.8064ZM134.273 73.5086C134.366 73.3665 134.658 73.2442 134.924 73.2369C135.189 73.2295 136.001 73.1884 136.728 73.1454C137.681 73.0891 137.927 73.1163 137.609 73.2428C137.246 73.3876 137.241 73.4188 137.585 73.421C137.814 73.4226 137.918 73.4723 137.818 73.5317C137.717 73.5911 136.841 73.6684 135.87 73.7033C134.4 73.7563 134.133 73.7238 134.273 73.5086ZM14.4114 73.0888C14.1942 72.8814 14.7467 72.6758 15.1379 72.8185C15.4664 72.9384 15.2507 73.2502 14.8394 73.2502C14.6969 73.2502 14.5043 73.1776 14.4114 73.0888ZM17.1891 68.579C17.1891 68.4893 17.3197 68.3682 17.4794 68.3099C17.6459 68.2492 17.6951 68.3188 17.5948 68.4731C17.3996 68.7735 17.1891 68.8284 17.1891 68.579ZM19.3429 68.4897C19.3429 68.3509 19.4552 68.2782 19.5925 68.3283C19.7297 68.3784 19.766 68.492 19.673 68.5808C19.4355 68.8076 19.3429 68.7821 19.3429 68.4897ZM531.177 45.855C530.935 45.7626 530.869 45.6869 531.031 45.6869C531.192 45.6869 531.522 45.7626 531.765 45.855C532.007 45.9474 532.073 46.0231 531.912 46.0231C531.75 46.0231 531.42 45.9474 531.177 45.855ZM48.6158 32.9874C48.6158 32.9123 48.8801 32.8509 49.2032 32.8509C49.5263 32.8509 49.7906 32.9241 49.7906 33.0135C49.7906 33.103 49.5263 33.1644 49.2032 33.15C48.8801 33.1356 48.6158 33.0625 48.6158 32.9874ZM60.9153 30.441L60.2265 30.1118L61.9841 29.9741C62.9508 29.8983 64.4354 29.8319 65.2833 29.8265C66.1312 29.8211 66.8251 29.7636 66.8253 29.6987C66.8256 29.5637 68.575 29.8326 68.848 30.0096C68.9473 30.0739 68.6207 30.0808 68.1224 30.025C67.5646 29.9625 66.8872 30.0262 66.3601 30.1906C65.8892 30.3376 64.8101 30.4653 63.962 30.4746C63.1139 30.4838 62.42 30.5541 62.42 30.6308C62.42 30.8794 61.6215 30.7787 60.9153 30.441V30.441ZM57.2128 30.4921C57.3104 30.4345 57.5637 30.4283 57.7758 30.4785C58.0101 30.5338 57.9405 30.5749 57.5983 30.5832C57.2887 30.5907 57.1152 30.5498 57.2128 30.4921V30.4921ZM51.8697 28.0972C51.857 27.9144 51.9264 27.812 52.024 27.8696C52.1216 27.9272 52.132 28.0768 52.0472 28.202C51.9534 28.3403 51.8838 28.2992 51.8697 28.0972H51.8697ZM59.8911 26.6399C59.9732 26.5615 59.7698 26.3607 59.4392 26.1936C58.8478 25.8947 58.8673 25.8817 60.6555 25.3824C62.8091 24.7812 63.0074 24.7676 63.0074 25.2219C63.0074 25.4355 62.8101 25.5697 62.4935 25.5713C62.0769 25.5735 62.0582 25.6034 62.395 25.7292C62.6235 25.8146 63.0531 25.8569 63.3495 25.8232C63.646 25.7895 63.8886 25.8414 63.8886 25.9386C63.8886 26.0358 63.459 26.1015 62.934 26.0845C62.409 26.0675 61.7151 26.0628 61.392 26.0739C60.9027 26.0908 60.8782 26.1222 61.2452 26.2622C61.6217 26.4059 61.611 26.4307 61.1718 26.4329C60.8891 26.4345 60.6578 26.5136 60.6578 26.609C60.6578 26.7044 60.4517 26.7824 60.1999 26.7824C59.948 26.7824 59.8091 26.7183 59.8911 26.6399V26.6399ZM63.6466 25.2407C63.3513 25.133 63.3629 25.0607 63.7017 24.8947C64.1769 24.6618 64.5556 24.8652 64.2286 25.1776C64.112 25.289 63.8552 25.3169 63.6466 25.2407ZM53.4619 17.9396C53.3621 17.8442 53.4787 17.7662 53.721 17.7662C53.9633 17.7662 54.2432 17.8442 54.3431 17.9396C54.4429 18.0349 54.3264 18.113 54.084 18.113C53.8417 18.113 53.5618 18.0349 53.4619 17.9396ZM59.4774 17.1633C59.9003 16.8624 60.0704 16.8311 60.0704 17.0541C60.0704 17.1392 59.8534 17.2581 59.5883 17.3181C59.1851 17.4094 59.167 17.3841 59.4774 17.1633ZM474.574 14.3652C474.919 14.1619 476.799 14.0027 477.179 14.1446C477.397 14.2263 477.444 14.3021 477.282 14.313C475.701 14.42 474.441 14.4443 474.574 14.3652ZM472.791 14.1513C472.547 14.0598 472.73 14.0095 473.305 14.0095C473.796 14.0095 474.198 14.0745 474.198 14.1539C474.198 14.3385 473.287 14.3368 472.791 14.1511V14.1513ZM465.24 13.9299C463.983 13.7638 460.93 13.6446 455.227 13.539C453.274 13.5028 451.394 13.384 451.048 13.2749C450.672 13.1561 449.357 13.0957 447.771 13.1244C446.313 13.1508 445.121 13.1546 445.121 13.1328C445.121 13.0725 446.83 12.5644 447.033 12.5644C447.131 12.5644 447.13 12.6425 447.03 12.7378C446.924 12.839 447.223 12.9112 447.747 12.9112C448.241 12.9112 448.646 12.8332 448.646 12.7378C448.646 12.6425 448.786 12.5644 448.957 12.5644C449.128 12.5644 449.168 12.662 449.047 12.7812C448.884 12.9414 448.937 12.9521 449.25 12.8223C449.483 12.7257 449.938 12.6557 450.261 12.6666C450.584 12.6775 451.55 12.698 452.408 12.7122C453.265 12.7263 453.906 12.7963 453.831 12.8678C453.756 12.9394 454.508 12.9865 455.502 12.9725C456.496 12.9584 457.541 13.0198 457.824 13.1087C458.167 13.2165 458.338 13.2071 458.338 13.0805C458.338 12.9761 458.498 12.949 458.693 13.0203C458.888 13.0915 460.177 13.1711 461.557 13.1971C462.936 13.2231 464.065 13.2537 464.065 13.265C464.065 13.2763 464.726 13.3108 465.534 13.3417C466.341 13.3726 467.035 13.4152 467.076 13.4363C467.145 13.4724 467.447 13.5249 467.957 13.5893C468.191 13.6188 466.812 14.1224 466.562 14.0989C466.481 14.0912 465.886 14.0152 465.24 13.9298L465.24 13.9299ZM453.345 13.063C453.345 12.9796 453.088 12.9113 452.775 12.9113C452.461 12.9113 452.133 12.9796 452.046 13.063C451.958 13.1465 452.215 13.2147 452.616 13.2147C453.017 13.2147 453.345 13.1465 453.345 13.063ZM469.055 12.5617C468.954 12.4648 468.748 12.4304 468.597 12.4853C468.447 12.5401 468.324 12.507 468.324 12.4116C468.324 12.0759 468.798 12.0706 469.149 12.4024C469.344 12.587 469.444 12.738 469.372 12.738C469.299 12.738 469.157 12.6587 469.055 12.5618V12.5617ZM462.768 11.8855C462.458 11.7027 462.144 11.5893 462.069 11.6335C461.994 11.6778 461.289 11.7401 460.502 11.7721C459.14 11.8274 457.45 11.4702 457.879 11.2173C458.222 11.0149 460.25 11.0623 460.693 11.2831C461.147 11.5091 461.973 11.5166 462.343 11.298C462.655 11.114 464.153 11.1543 464.36 11.3523C464.643 11.6218 464.223 12.2177 463.752 12.2177C463.52 12.2177 463.078 12.0681 462.768 11.8854V11.8855ZM465.799 12.0176C465.674 11.8981 465.718 11.8643 465.909 11.9337C466.084 11.9977 466.31 11.9707 466.412 11.8738C466.686 11.6124 467.051 11.6604 467.051 11.9577C467.051 12.2631 466.104 12.3084 465.799 12.0176ZM122.416 10.7259C122.514 10.6683 122.767 10.6621 122.979 10.7123C123.213 10.7676 123.144 10.8087 122.801 10.817C122.492 10.8245 122.318 10.7836 122.416 10.726V10.7259ZM181.665 5.80242C181.665 5.70707 181.724 5.62904 181.795 5.62904C181.866 5.62904 182.006 5.70707 182.106 5.80242C182.206 5.89779 182.147 5.97581 181.976 5.97581C181.805 5.97581 181.665 5.89779 181.665 5.80242ZM188.514 5.81997C188.04 5.61433 188.153 5.31882 188.675 5.39941C189.008 5.45083 189.222 5.38009 189.253 5.20826C189.28 5.05823 189.324 4.81846 189.351 4.67541C189.378 4.53237 189.642 4.40559 189.938 4.39366C190.234 4.38169 190.576 4.35588 190.697 4.33619C190.818 4.31647 191.314 4.23747 191.798 4.16056C192.876 3.98957 193.461 3.73415 193.246 3.52875C193.158 3.4442 193.346 3.37502 193.665 3.37502C193.985 3.37502 194.313 3.47254 194.395 3.59175C194.498 3.74234 194.618 3.75169 194.786 3.62246C195.218 3.29185 196.117 3.18867 196.591 3.4154C196.972 3.59738 197.008 3.59284 196.799 3.38889C196.608 3.20188 196.671 3.17061 197.061 3.25885C197.343 3.32275 197.752 3.37501 197.97 3.37501C198.189 3.37501 198.447 3.52305 198.544 3.70399C198.658 3.91545 198.909 4.00381 199.249 3.9514C199.999 3.83566 199.921 3.40695 199.165 3.48906C198.568 3.55392 198.568 3.55155 199.141 3.39075C199.464 3.30014 200.176 3.22051 200.722 3.21381C201.269 3.20706 202.525 3.1251 203.513 3.03155C206.073 2.78915 212.509 2.36436 215.442 2.24425C216.815 2.18804 218.533 2.1111 219.26 2.07329C220.791 1.99364 223.815 1.86684 227.777 1.7161C229.312 1.65772 231.427 1.56698 232.477 1.51447C235 1.38827 238.973 1.37885 239.526 1.49783C239.768 1.54997 240.528 1.65252 241.215 1.72577C241.901 1.79899 242.463 1.91632 242.463 1.98649C242.463 2.05665 242.136 2.30696 241.737 2.54271C241.146 2.89169 240.736 2.9682 239.533 2.9543C238.654 2.94403 238.095 3.00842 238.154 3.11282C238.208 3.20937 239.27 3.2948 240.514 3.30264C242.467 3.31492 243.768 3.53926 243.324 3.78712C243.126 3.89803 239.232 4.00761 239.233 3.90229C239.233 3.85071 238.341 3.83293 237.25 3.86276C236.159 3.8926 234.509 3.84615 233.582 3.75935C232.655 3.67263 231.834 3.63869 231.758 3.68394C231.681 3.72917 231.052 3.78264 230.359 3.80276C229.666 3.82289 228.734 3.89963 228.288 3.97333C227.805 4.05302 227.325 4.03327 227.103 3.92458C226.898 3.82407 225.452 3.7238 223.89 3.70175C221.957 3.67449 221.111 3.60211 221.24 3.47501C221.344 3.37238 221.204 3.39581 220.93 3.52712C220.587 3.69135 220.059 3.73067 219.237 3.65307C218.452 3.57901 218.106 3.60121 218.228 3.71776C218.436 3.91641 218.397 3.92021 215.735 3.96243C214.685 3.97907 213.529 4.05406 213.165 4.12904C212.802 4.20403 212.505 4.2016 212.505 4.12367C212.505 4.04572 212.174 3.98194 211.77 3.98194C211.367 3.98194 211.036 4.04046 211.036 4.11198C211.036 4.18351 210.83 4.24203 210.578 4.24203C210.326 4.24203 210.189 4.17613 210.274 4.09555C210.477 3.90084 207.46 4.18679 207.241 4.38294C206.84 4.74203 201.344 5.10592 201.344 4.77337C201.344 4.67189 201.204 4.5888 201.033 4.5888C200.862 4.5888 200.798 4.66145 200.891 4.75022C201.156 5.004 200.481 5.16025 200.043 4.94609C199.75 4.80243 199.612 4.81122 199.502 4.98055C199.407 5.12676 198.924 5.19354 198.146 5.16787C197.482 5.14595 196.938 5.20087 196.938 5.28994C196.938 5.57667 195.429 5.38837 195.136 5.06508C194.98 4.89316 194.725 4.79907 194.569 4.85601C194.413 4.91295 194.353 5.024 194.435 5.10278C194.518 5.18156 194.392 5.28981 194.156 5.34331C193.919 5.39683 193.647 5.36477 193.55 5.27204C193.442 5.16926 193.066 5.20458 192.586 5.3625C191.682 5.65969 188.872 5.97545 188.514 5.82005L188.514 5.81997ZM184.309 5.03243C184.309 4.72788 184.485 4.68304 184.737 4.92352C184.83 5.0123 184.771 5.13395 184.607 5.19383C184.443 5.25373 184.309 5.18127 184.309 5.03243ZM185.415 4.73292C185.586 4.63216 185.899 4.58383 186.111 4.62553C186.331 4.66882 186.198 4.74741 185.801 4.80872C185.312 4.88414 185.198 4.86156 185.415 4.73292ZM286.592 4.29298C286.229 4.25165 285.931 4.15827 285.931 4.08549C285.931 3.8733 287.208 3.98865 287.334 4.21225C287.397 4.32395 287.405 4.4047 287.351 4.39171C287.297 4.37868 286.956 4.33431 286.592 4.29298H286.592ZM280.498 3.89517C281.305 3.69035 281.769 3.69035 281.232 3.89517C280.99 3.98762 280.593 4.05898 280.351 4.05372C280.061 4.04744 280.111 3.99343 280.498 3.89517ZM282.277 3.91131C282.187 3.82483 282.377 3.79493 282.7 3.84485C283.386 3.95072 283.473 4.06854 282.865 4.06854C282.632 4.06854 282.368 3.99778 282.277 3.91131ZM244.466 3.51893C244.004 3.24462 244.214 3.22559 247.844 3.21268C249.973 3.20502 252.009 3.16529 252.369 3.12421C252.729 3.08312 253.092 3.115 253.176 3.19501C253.26 3.27502 253.733 3.32396 254.227 3.30375C255.564 3.24914 255.57 3.50157 254.234 3.57679C253.602 3.61236 253.148 3.58141 253.225 3.50821C253.466 3.27791 253.014 3.36336 252.554 3.63506C252.054 3.93003 250.813 3.98314 250.539 3.7213C250.418 3.60585 250.164 3.60853 249.782 3.72927C249.131 3.93471 248.519 3.7951 248.818 3.50955C248.949 3.38468 248.876 3.3728 248.603 3.47423C248.376 3.55831 247.463 3.66857 246.575 3.71925C245.303 3.79176 244.854 3.74912 244.466 3.5189V3.51893ZM268.015 3.72174C268.015 3.62638 268.074 3.54836 268.145 3.54836C268.216 3.54836 268.356 3.62638 268.456 3.72174C268.556 3.8171 268.497 3.89513 268.326 3.89513C268.155 3.89513 268.015 3.8171 268.015 3.72174ZM256.267 3.37496C256.002 3.27398 255.966 3.20582 256.176 3.20423C256.369 3.20266 256.608 3.2796 256.708 3.37496C256.933 3.59024 256.831 3.59024 256.267 3.37496ZM370.985 3.35132C371.137 3.20616 370.018 3.03541 369.791 3.16921C369.475 3.35562 368.17 3.39084 368.17 3.21292C368.17 3.10288 367.334 3.07636 365.893 3.14072C364.127 3.21963 363.387 3.17897 362.589 2.95935C362.024 2.80369 361.784 2.71209 362.056 2.75581C362.328 2.79953 362.593 2.76746 362.644 2.68466C362.694 2.60182 362.934 2.50868 363.177 2.47767C363.419 2.44671 363.714 2.3433 363.833 2.24793C363.952 2.15257 364.051 2.24542 364.053 2.45439C364.057 2.81346 364.102 2.82061 364.865 2.58514C365.59 2.36169 365.715 2.36721 366.08 2.63877C366.467 2.92668 366.478 2.92665 366.309 2.63877C366.173 2.4046 366.294 2.33534 366.843 2.33534C367.233 2.33534 367.688 2.47189 367.852 2.63877C368.019 2.80716 368.156 2.84574 368.161 2.72547C368.17 2.49842 369.051 2.41262 369.051 2.63877C369.051 2.71029 370.05 2.7643 371.271 2.75879C372.492 2.75326 373.557 2.81179 373.638 2.88883C373.719 2.96586 374.068 3.02888 374.414 3.02888C374.917 3.02888 374.969 3.07223 374.675 3.24561C374.308 3.46262 370.762 3.56486 370.985 3.35203V3.35132ZM375.806 3.3461C375.806 3.26662 375.905 3.19635 376.026 3.18991C376.147 3.18347 376.669 3.14554 377.186 3.10564C378.348 3.01589 378.762 3.31334 377.644 3.43487C376.539 3.55502 375.806 3.51964 375.806 3.3461ZM354.659 2.76813C354.659 2.67277 354.164 2.59475 353.558 2.59475C352.952 2.59475 352.359 2.67277 352.241 2.76813C352.097 2.88372 352.023 2.88372 352.02 2.76813C352.013 2.55091 350.253 2.49952 350.253 2.71657C350.253 2.80388 350.133 2.83148 349.987 2.77791C349.707 2.67586 347.123 2.512 344.379 2.42227C343.491 2.39322 342.764 2.35194 342.764 2.33051C342.764 2.2143 338.899 2.21251 338.652 2.32862C338.211 2.53588 335.274 2.68047 335.274 2.49493C335.274 2.40679 335.076 2.33468 334.834 2.33468C334.591 2.33468 334.393 2.40997 334.393 2.50201C334.393 2.60647 332.325 2.63849 328.886 2.58727C325.857 2.54215 323.06 2.50605 322.671 2.50705C322.281 2.50862 321.521 2.43693 320.982 2.34904C320.392 2.25295 320.002 2.25235 320.002 2.34747C320.002 2.50504 318.974 2.47951 318.696 2.31501C318.615 2.26757 317.279 2.25648 315.726 2.29039C313.854 2.33126 312.762 2.28349 312.487 2.14871C312.163 1.99032 312.07 1.99799 312.067 2.18333C312.064 2.33367 311.983 2.35461 311.847 2.24016C311.717 2.13145 310.046 2.05042 307.666 2.03746C305.485 2.02565 298.877 1.97121 292.98 1.91668C287.084 1.86216 279.518 1.80715 276.166 1.79445C272.814 1.78189 270.071 1.72254 270.071 1.66287C270.07 1.60317 269.343 1.55434 268.455 1.55434C267.567 1.55434 266.84 1.61286 266.84 1.68439C266.84 1.75591 266.701 1.81443 266.529 1.81443C266.358 1.81443 266.3 1.7364 266.4 1.64104C266.5 1.54568 266.375 1.46766 266.124 1.46766C265.872 1.46774 265.666 1.38971 265.666 1.29436C265.666 1.19899 265.526 1.12096 265.355 1.12096C265.184 1.12096 265.125 1.19899 265.225 1.29436C265.332 1.39676 265.009 1.46666 264.435 1.46508C263.699 1.46288 263.57 1.42156 263.903 1.29436C264.229 1.17022 264.243 1.12558 263.956 1.12362C263.657 1.12142 263.669 1.06117 264.008 0.860879C264.251 0.717837 264.723 0.600797 265.057 0.600797C265.392 0.600797 265.666 0.517511 265.666 0.415718C265.666 0.305934 265.92 0.278229 266.29 0.347621C266.71 0.426318 266.848 0.40178 266.713 0.272613C266.603 0.167016 266.59 0.0806328 266.686 0.0806328C266.781 0.0806328 266.96 0.2411 267.083 0.437235L267.306 0.793851L268.081 0.434182C268.612 0.187656 268.92 0.135838 269.059 0.269484C269.204 0.407712 269.335 0.395999 269.51 0.229201C269.71 0.0380187 271.725 -0.00484435 280.267 0.000416179C286.048 0.0040907 293.157 0.0569894 296.064 0.118266C298.972 0.17953 303.796 0.274896 306.785 0.330196C317.576 0.529826 320.356 0.60238 320.597 0.690603C321.138 0.887733 323.505 1.0626 323.863 0.931852C324.084 0.851283 324.341 0.88005 324.473 1.00008C324.643 1.15498 324.774 1.14165 324.99 0.94757C325.149 0.804525 325.282 0.765512 325.284 0.860879C325.287 0.970311 327.104 1.02653 330.208 1.01331C335.115 0.992398 343.498 1.27229 343.499 1.45705C343.499 1.51061 344.523 1.54565 345.775 1.53495C347.92 1.51657 352.861 1.75386 353.738 1.91733C354.061 1.97764 354.067 2.04246 353.77 2.25402C353.47 2.46722 353.477 2.50182 353.81 2.43982C354.035 2.39793 354.587 2.31582 355.038 2.25738C355.543 2.1919 355.793 2.06988 355.688 1.93947C355.595 1.82306 355.672 1.84996 355.861 1.9992C356.138 2.21869 356.515 2.24561 357.834 2.13995C358.761 2.06565 359.687 2.07946 359.98 2.17198C360.263 2.26147 360.867 2.3453 361.322 2.35829C362.083 2.38002 362.093 2.38812 361.44 2.46073C360.892 2.52173 360.826 2.57462 361.147 2.69454C361.601 2.86422 361.219 2.88547 357.082 2.92084C355.639 2.93312 354.659 2.87141 354.659 2.76815L354.659 2.76813ZM269.297 1.20864C269.204 1.06614 269.01 0.99273 268.866 1.0455C268.451 1.19679 268.559 1.46772 269.034 1.46772C269.296 1.46772 269.399 1.36601 269.297 1.20864ZM252.167 1.80135C252.469 1.46792 252.451 1.43006 252.036 1.52423C251.621 1.61817 251.602 1.5802 251.901 1.25065L252.248 0.867996L252.54 1.25456C252.875 1.69807 253.482 1.76255 253.73 1.38103C253.823 1.23798 253.793 1.12095 253.663 1.12095C253.534 1.12095 253.428 1.00296 253.428 0.858733C253.428 0.645548 253.693 0.617296 254.847 0.707682C255.817 0.783619 256.267 0.756833 256.267 0.623143C256.267 0.514418 256.732 0.427406 257.312 0.427406C257.998 0.427406 258.289 0.493083 258.158 0.618092C258.016 0.753654 258.137 0.752506 258.575 0.614105C259.087 0.452335 259.162 0.464068 259.019 0.683496C258.925 0.828737 258.73 0.94758 258.585 0.94758C258.441 0.94758 258.323 1.0256 258.323 1.12096C258.323 1.48239 258.854 1.27349 259.204 0.774184C259.613 0.191867 259.623 0.188665 260.359 0.421281C260.731 0.538627 260.846 0.721849 260.744 1.03533C260.665 1.28107 260.715 1.4594 260.856 1.43159C260.998 1.40379 261.179 1.45727 261.26 1.55049C261.347 1.65072 260.649 1.73195 259.551 1.74936C257.855 1.77624 257.668 1.74308 257.375 1.36317C257.058 0.953546 255.973 0.773915 255.973 1.13119C255.973 1.2322 256.104 1.26714 256.264 1.20889C256.428 1.14909 256.481 1.21549 256.386 1.36109C256.288 1.51193 256.025 1.57551 255.754 1.51401C255.452 1.44563 255.362 1.47802 255.497 1.60659C255.733 1.83228 254.757 1.99892 253.624 1.92634C253.22 1.90049 252.648 1.94867 252.353 2.03343C251.873 2.17151 251.853 2.14742 252.167 1.80136V1.80135ZM260.202 1.14985C260.285 1.07039 260.166 1.00537 259.938 1.00537C259.71 1.00537 259.592 1.07039 259.675 1.14985C259.758 1.22932 259.877 1.29434 259.938 1.29434C260 1.29434 260.119 1.22932 260.202 1.14985ZM248.211 1.83421C248.122 1.74968 248.313 1.63989 248.635 1.59019C249.025 1.53 249.161 1.40761 249.041 1.22371C248.942 1.07183 248.986 0.947566 249.138 0.947566C249.541 0.947566 249.475 1.51395 249.043 1.7691C248.605 2.02789 248.428 2.04172 248.211 1.83421ZM250.012 1.35214C250.094 1.22498 250.2 1.12095 250.246 1.12095C250.292 1.12095 250.398 1.22498 250.48 1.35214C250.563 1.47929 250.458 1.58333 250.246 1.58333C250.035 1.58333 249.929 1.47929 250.012 1.35214ZM251.144 0.866386C251.458 0.726377 252.004 0.60934 252.358 0.606303C253.059 0.600179 253.505 0.863225 253.066 1.02337C252.916 1.07822 252.742 1.03348 252.68 0.923782C252.596 0.77399 252.412 0.773701 251.94 0.922215C251.037 1.20746 250.47 1.16727 251.144 0.865902V0.866386ZM247.242 0.842798C247.339 0.785184 247.593 0.779021 247.805 0.829136C248.039 0.88448 247.969 0.925569 247.627 0.933879C247.318 0.941385 247.144 0.900432 247.242 0.842818V0.842798ZM262.729 0.77416C262.352 0.63053 262.363 0.605689 262.802 0.603419C263.085 0.601848 263.316 0.678789 263.316 0.77416C263.316 0.98563 263.283 0.98563 262.729 0.77416ZM261.151 0.510076C261.011 0.294602 261.087 0.27976 261.56 0.429476C262.241 0.64458 262.306 0.77416 261.732 0.77416C261.507 0.77416 261.246 0.655314 261.151 0.510076Z" fill="#09D4D5" fill-opacity="0.82"/>
</svg>
