<svg width="531" height="1089" viewBox="0 0 531 1089" fill="none" xmlns="http://www.w3.org/2000/svg">
<path d="M351.205 1088.5C357.264 1088.5 362.201 1084.06 362.201 1078.61C362.201 1073.16 357.264 1068.92 351.205 1068.92C345.37 1068.92 340.433 1073.16 340.433 1078.61C340.433 1084.06 345.37 1088.5 351.205 1088.5ZM514.35 174.288C520.634 174.288 525.571 169.847 525.571 164.195C525.571 158.543 520.634 154.102 514.35 154.102C508.067 154.102 503.13 158.543 503.13 164.195C503.13 169.847 508.067 174.288 514.35 174.288ZM516.594 241.708C523.327 241.708 528.713 236.863 528.713 231.009C528.713 224.954 523.327 220.109 516.594 220.109C509.862 220.109 504.476 224.954 504.476 231.009C504.476 236.863 509.862 241.708 516.594 241.708ZM497.744 199.318C498.642 199.318 499.315 198.511 499.315 197.905C499.315 197.098 498.642 196.492 497.744 196.492C497.071 196.492 496.398 197.098 496.398 197.905C496.398 198.511 497.071 199.318 497.744 199.318ZM497.744 769.766C498.866 769.766 499.764 768.958 499.764 768.151C499.764 767.141 498.866 766.536 497.744 766.536C496.846 766.536 495.949 767.141 495.949 768.151C495.949 768.958 496.846 769.766 497.744 769.766ZM524.673 341.627C528.039 341.627 530.957 339.205 530.957 335.975C530.957 332.745 528.039 330.121 524.673 330.121C521.083 330.121 518.165 332.745 518.165 335.975C518.165 339.205 521.083 341.627 524.673 341.627ZM512.555 310.541C518.614 310.541 523.776 306.1 523.776 300.448C523.776 294.796 518.614 290.154 512.555 290.154C506.272 290.154 501.11 294.796 501.11 300.448C501.11 306.1 506.272 310.541 512.555 310.541ZM497.744 276.024C504.027 276.024 509.189 271.381 509.189 265.729C509.189 259.875 504.027 255.232 497.744 255.232C491.461 255.232 486.299 259.875 486.299 265.729C486.299 271.381 491.461 276.024 497.744 276.024ZM296.898 42.6771C302.508 42.6771 306.996 38.6399 306.996 33.5935C306.996 28.5471 302.508 24.5099 296.898 24.5099C291.512 24.5099 287.024 28.5471 287.024 33.5935C287.024 38.6399 291.512 42.6771 296.898 42.6771ZM263.236 20.4728C268.173 20.4728 272.213 16.8394 272.213 12.1967C272.213 7.75581 268.173 4.12238 263.236 4.12238C258.075 4.12238 254.035 7.75581 254.035 12.1967C254.035 16.8394 258.075 20.4728 263.236 20.4728ZM329.213 913.689C332.13 913.689 334.374 911.671 334.374 909.047C334.374 906.422 332.13 904.202 329.213 904.202C326.295 904.202 323.827 906.422 323.827 909.047C323.827 911.671 326.295 913.689 329.213 913.689ZM524.673 632.705C526.244 632.705 527.59 631.494 527.59 630.081C527.59 628.466 526.244 627.456 524.673 627.456C522.878 627.456 521.756 628.466 521.756 630.081C521.756 631.494 522.878 632.705 524.673 632.705ZM511.882 453.456C516.594 453.456 520.409 450.024 520.409 445.785C520.409 441.546 516.594 438.316 511.882 438.316C507.394 438.316 503.579 441.546 503.579 445.785C503.579 450.024 507.394 453.456 511.882 453.456ZM462.287 283.29C472.61 283.29 481.138 275.62 481.138 266.334C481.138 256.847 472.61 249.378 462.287 249.378C451.74 249.378 443.437 256.847 443.437 266.334C443.437 275.62 451.74 283.29 462.287 283.29ZM444.11 241.304C449.272 241.304 453.535 237.469 453.535 232.826C453.535 228.183 449.272 224.348 444.11 224.348C438.949 224.348 434.685 228.183 434.685 232.826C434.685 237.469 438.949 241.304 444.11 241.304ZM400.35 178.325C405.512 178.325 409.551 174.49 409.551 169.847C409.551 165.204 405.512 161.571 400.35 161.571C395.189 161.571 390.925 165.204 390.925 169.847C390.925 174.49 395.189 178.325 400.35 178.325ZM285.901 70.3314C290.165 70.3314 293.756 67.1018 293.756 63.2665C293.756 59.2293 290.165 56.2015 285.901 56.2015C281.413 56.2015 278.047 59.2293 278.047 63.2665C278.047 67.1018 281.413 70.3314 285.901 70.3314ZM217.232 28.1434C221.272 28.1434 224.413 25.1155 224.413 21.684C224.413 18.0505 221.272 15.2245 217.232 15.2245C213.417 15.2245 210.276 18.0505 210.276 21.684C210.276 25.1155 213.417 28.1434 217.232 28.1434ZM180.878 7.9577C183.122 7.9577 185.142 6.3428 185.142 4.12238C185.142 2.10381 183.122 0.287109 180.878 0.287109C178.409 0.287109 176.614 2.10381 176.614 4.12238C176.614 6.3428 178.409 7.9577 180.878 7.9577ZM490.563 631.292C491.461 631.292 492.134 630.686 492.134 629.879C492.134 629.071 491.461 628.264 490.563 628.264C489.665 628.264 488.768 629.071 488.768 629.879C488.768 630.686 489.665 631.292 490.563 631.292ZM500.437 595.159C501.335 595.159 502.232 594.554 502.232 593.746C502.232 592.939 501.335 592.333 500.437 592.333C499.539 592.333 498.866 592.939 498.866 593.746C498.866 594.554 499.539 595.159 500.437 595.159ZM511.882 524.307C514.575 524.307 516.819 522.491 516.819 520.068C516.819 517.848 514.575 515.829 511.882 515.829C509.413 515.829 507.169 517.848 507.169 520.068C507.169 522.491 509.413 524.307 511.882 524.307ZM513.453 490.396C517.941 490.396 521.756 487.166 521.756 482.927C521.756 478.89 517.941 475.458 513.453 475.458C508.74 475.458 505.15 478.89 505.15 482.927C505.15 487.166 508.74 490.396 513.453 490.396ZM479.118 461.126C488.319 461.126 495.949 454.263 495.949 445.785C495.949 437.307 488.319 430.444 479.118 430.444C469.693 430.444 461.839 437.307 461.839 445.785C461.839 454.263 469.693 461.126 479.118 461.126ZM474.405 422.37C482.709 422.37 489.441 416.314 489.441 408.845C489.441 401.377 482.709 395.321 474.405 395.321C466.102 395.321 459.37 401.377 459.37 408.845C459.37 416.314 466.102 422.37 474.405 422.37ZM466.776 381.191C472.161 381.191 476.65 377.154 476.65 372.309C476.65 367.465 472.161 363.629 466.776 363.629C461.39 363.629 457.126 367.465 457.126 372.309C457.126 377.154 461.39 381.191 466.776 381.191ZM426.382 267.546L427.055 267.142L426.382 266.536L425.709 267.142L426.382 267.546ZM241.468 898.55C243.488 898.55 245.059 897.137 245.059 895.32C245.059 893.504 243.488 892.091 241.468 892.091C239.673 892.091 238.102 893.504 238.102 895.32C238.102 897.137 239.673 898.55 241.468 898.55ZM407.307 732.018L407.531 731.816L407.307 731.615L407.083 731.816L407.307 732.018ZM456.228 631.494C457.575 631.494 458.472 630.686 458.472 629.475C458.472 628.466 457.575 627.658 456.228 627.658C455.106 627.658 453.984 628.466 453.984 629.475C453.984 630.686 455.106 631.494 456.228 631.494ZM479.118 524.509C481.587 524.509 483.831 522.491 483.831 520.068C483.831 517.646 481.587 515.829 479.118 515.829C476.425 515.829 474.181 517.646 474.181 520.068C474.181 522.491 476.425 524.509 479.118 524.509ZM480.464 487.771C483.382 487.771 485.85 485.551 485.85 482.927C485.85 480.303 483.382 478.284 480.464 478.284C477.547 478.284 475.303 480.303 475.303 482.927C475.303 485.551 477.547 487.771 480.464 487.771ZM445.905 453.456C450.618 453.456 454.433 450.024 454.433 445.785C454.433 441.748 450.618 438.316 445.905 438.316C441.417 438.316 437.602 441.748 437.602 445.785C437.602 450.024 441.417 453.456 445.905 453.456ZM441.193 417.727C446.579 417.727 451.067 413.892 451.067 408.845C451.067 404.001 446.579 399.964 441.193 399.964C435.807 399.964 431.319 404.001 431.319 408.845C431.319 413.892 435.807 417.727 441.193 417.727ZM433.114 388.256C442.764 388.256 450.618 381.191 450.618 372.511C450.618 363.629 442.764 356.564 433.114 356.564C424.811 356.564 418.079 361.611 416.059 368.474C414.039 361.813 407.307 356.968 399.228 356.968C389.579 356.968 381.724 363.831 381.724 372.511C381.724 381.191 389.579 388.256 399.228 388.256C407.307 388.256 414.039 383.21 416.059 376.548C418.079 383.21 425.035 388.256 433.114 388.256ZM447.701 488.781C451.291 488.781 454.209 486.156 454.209 482.927C454.209 479.697 451.291 477.073 447.701 477.073C444.11 477.073 440.968 479.697 440.968 482.927C440.968 486.156 444.11 488.781 447.701 488.781ZM412.917 453.456C417.63 453.456 421.445 450.024 421.445 445.785C421.445 441.748 417.63 438.316 412.917 438.316C408.429 438.316 404.614 441.748 404.614 445.785C404.614 450.024 408.429 453.456 412.917 453.456ZM407.756 417.323C412.917 417.323 417.181 413.69 417.181 408.845C417.181 404.203 412.917 400.569 407.756 400.569C402.594 400.569 398.331 404.203 398.331 408.845C398.331 413.69 402.594 417.323 407.756 417.323ZM387.335 344.251C391.823 344.251 395.413 341.021 395.413 336.984C395.413 332.947 391.823 329.717 387.335 329.717C382.846 329.717 379.256 332.947 379.256 336.984C379.256 341.021 382.846 344.251 387.335 344.251ZM251.342 161.369C256.504 161.369 260.768 157.735 260.768 153.093C260.768 148.45 256.504 144.615 251.342 144.615C246.405 144.615 242.142 148.45 242.142 153.093C242.142 157.735 246.405 161.369 251.342 161.369ZM185.59 116.355C190.752 116.355 194.791 112.721 194.791 108.079C194.791 103.638 190.752 100.004 185.59 100.004C180.653 100.004 176.614 103.638 176.614 108.079C176.614 112.721 180.653 116.355 185.59 116.355ZM149.909 94.1505C152.602 94.1505 154.846 92.132 154.846 89.5078C154.846 87.0856 152.602 85.067 149.909 85.067C146.992 85.067 144.748 87.0856 144.748 89.5078C144.748 92.132 146.992 94.1505 149.909 94.1505ZM387.335 633.31C390.027 633.31 392.047 631.292 392.047 628.869C392.047 626.447 390.027 624.63 387.335 624.63C384.642 624.63 382.398 626.447 382.398 628.869C382.398 631.292 384.642 633.31 387.335 633.31ZM379.929 453.456C384.642 453.456 388.457 450.024 388.457 445.785C388.457 441.546 384.642 438.115 379.929 438.115C375.216 438.115 371.401 441.546 371.401 445.785C371.401 450.024 375.216 453.456 379.929 453.456ZM374.319 416.92C379.256 416.92 383.295 413.286 383.295 409.047C383.295 404.606 379.256 400.973 374.319 400.973C369.606 400.973 365.567 404.606 365.567 409.047C365.567 413.286 369.606 416.92 374.319 416.92ZM365.118 380.989C370.279 380.989 374.319 377.356 374.319 372.713C374.319 368.272 370.279 364.437 365.118 364.437C360.181 364.437 356.142 368.272 356.142 372.713C356.142 377.356 360.181 380.989 365.118 380.989ZM102.335 864.84L103.457 864.033L102.335 863.023L101.213 864.033L102.335 864.84ZM139.587 849.903C140.709 849.903 141.831 848.893 141.831 847.884C141.831 846.673 140.709 845.664 139.587 845.664C138.24 845.664 137.118 846.673 137.118 847.884C137.118 848.893 138.24 849.903 139.587 849.903ZM346.941 453.859C351.878 453.859 355.693 450.226 355.693 445.785C355.693 441.344 351.878 437.913 346.941 437.913C342.004 437.913 338.189 441.344 338.189 445.785C338.189 450.226 342.004 453.859 346.941 453.859ZM340.882 416.718C345.594 416.718 349.634 413.286 349.634 409.047C349.634 404.808 345.594 401.377 340.882 401.377C336.169 401.377 332.354 404.808 332.354 409.047C332.354 413.286 336.169 416.718 340.882 416.718ZM331.008 380.989C335.945 380.989 339.984 377.356 339.984 372.915C339.984 368.474 335.945 365.042 331.008 365.042C326.295 365.042 322.256 368.474 322.256 372.915C322.256 377.356 326.295 380.989 331.008 380.989ZM317.319 352.729C326.52 352.729 333.701 346.068 333.701 337.792C333.701 329.717 326.52 323.056 317.319 323.056C308.342 323.056 300.937 329.717 300.937 337.792C300.937 346.068 308.342 352.729 317.319 352.729ZM346.941 525.519C350.307 525.519 352.776 523.096 352.776 520.068C352.776 517.242 350.307 514.82 346.941 514.82C343.575 514.82 341.106 517.242 341.106 520.068C341.106 523.096 343.575 525.519 346.941 525.519ZM313.953 455.071C319.563 455.071 324.051 450.832 324.051 445.785C324.051 440.739 319.563 436.702 313.953 436.702C308.118 436.702 303.63 440.739 303.63 445.785C303.63 450.832 308.118 455.071 313.953 455.071ZM307.445 416.314C311.933 416.314 315.524 413.084 315.524 409.047C315.524 405.212 311.933 401.982 307.445 401.982C302.957 401.982 299.366 405.212 299.366 409.047C299.366 413.084 302.957 416.314 307.445 416.314ZM3.37 833.35C5.16527 833.35 6.51172 831.937 6.51172 830.323C6.51172 828.708 5.16527 827.295 3.37 827.295C1.57472 827.295 0.00390625 828.708 0.00390625 830.323C0.00390625 831.937 1.57472 833.35 3.37 833.35ZM43.3149 823.056C44.6614 823.056 45.7834 822.046 45.7834 820.633C45.7834 819.422 44.6614 818.413 43.3149 818.413C41.7441 818.413 40.6219 819.422 40.6219 820.633C40.6219 822.046 41.7441 823.056 43.3149 823.056ZM245.957 346.27C250.22 346.27 253.811 343.242 253.811 339.407C253.811 335.571 250.22 332.342 245.957 332.342C241.693 332.342 238.327 335.571 238.327 339.407C238.327 343.242 241.693 346.27 245.957 346.27ZM239.898 416.112C243.937 416.112 247.303 413.084 247.303 409.451C247.303 405.616 243.937 402.588 239.898 402.588C235.858 402.588 232.492 405.616 232.492 409.451C232.492 413.084 235.858 416.112 239.898 416.112Z" fill="#09D4D5"/>
</svg>
