<svg width="631" height="1089" viewBox="0 0 631 1089" fill="none" xmlns="http://www.w3.org/2000/svg">
<path d="M535.114 379.416C535.114 380.425 533.992 381.233 532.87 381.233C531.748 381.233 530.85 380.425 530.85 379.416C530.85 378.407 531.748 377.599 532.87 377.599C533.992 377.599 535.114 378.407 535.114 379.416Z" fill="#09D4D5"/>
<path d="M43.4331 97.0181C43.4331 103.478 37.5984 108.726 30.4173 108.726C23.2362 108.726 17.4016 103.478 17.4016 97.0181C17.4016 90.5587 23.2362 85.3104 30.4173 85.3104C37.5984 85.3104 43.4331 90.5587 43.4331 97.0181Z" fill="#09D4D5"/>
<path d="M91.2323 82.8881C91.2323 88.9438 85.8465 93.7884 79.1142 93.7884C72.3819 93.7884 66.7717 88.9438 66.7717 82.8881C66.7717 76.8324 72.3819 71.786 79.1142 71.786C85.8465 71.786 91.2323 76.8324 91.2323 82.8881Z" fill="#09D4D5"/>
<path d="M70.1378 114.378C70.1378 120.837 64.3032 126.085 57.1221 126.085C49.941 126.085 44.1063 120.837 44.1063 114.378C44.1063 107.918 49.941 102.67 57.1221 102.67C64.3032 102.67 70.1378 107.918 70.1378 114.378Z" fill="#09D4D5"/>
<path d="M49.9409 146.877C49.9409 153.336 44.1063 158.584 36.9252 158.584C29.7441 158.584 23.9095 153.336 23.9095 146.877C23.9095 140.417 29.7441 135.169 36.9252 135.169C44.1063 135.169 49.9409 140.417 49.9409 146.877Z" fill="#09D4D5"/>
<path d="M31.9882 179.981C31.9882 186.844 25.9291 192.295 18.2992 192.295C10.8937 192.295 4.61026 186.844 4.61026 179.981C4.61026 173.32 10.8937 167.668 18.2992 167.668C25.9291 167.668 31.9882 173.32 31.9882 179.981Z" fill="#09D4D5"/>
<path d="M2.59058 829.96L1.46851 830.97L0.346466 829.96L1.46851 828.951L2.59058 829.96Z" fill="#09D4D5"/>
<path d="M85.6221 960.965C85.6221 964.397 82.7048 967.021 79.1142 967.021C75.5236 967.021 72.3819 964.397 72.3819 960.965C72.3819 957.736 75.5236 955.112 79.1142 955.112C82.7048 955.112 85.6221 957.736 85.6221 960.965Z" fill="#09D4D5"/>
<path d="M96.3937 131.939C96.3937 138.197 90.7835 143.243 83.8268 143.243C76.8701 143.243 71.2599 138.197 71.2599 131.939C71.2599 125.682 76.8701 120.635 83.8268 120.635C90.7835 120.635 96.3937 125.682 96.3937 131.939Z" fill="#09D4D5"/>
<path d="M76.8701 164.438C76.8701 170.898 71.0354 176.146 63.8543 176.146C56.6732 176.146 50.8386 170.898 50.8386 164.438C50.8386 157.979 56.6732 152.731 63.8543 152.731C71.0354 152.731 76.8701 157.979 76.8701 164.438Z" fill="#09D4D5"/>
<path d="M58.6929 197.745C58.6929 204.406 52.8583 209.654 45.4528 209.654C38.0472 209.654 32.2126 204.406 32.2126 197.745C32.2126 191.083 38.0472 185.835 45.4528 185.835C52.8583 185.835 58.6929 191.083 58.6929 197.745Z" fill="#09D4D5"/>
<path d="M41.8622 231.858C41.8622 238.116 36.0276 243.364 29.0709 243.364C21.8898 243.364 16.0551 238.116 16.0551 231.858C16.0551 225.399 21.8898 220.151 29.0709 220.151C36.0276 220.151 41.8622 225.399 41.8622 231.858Z" fill="#09D4D5"/>
<path d="M26.1536 266.578C26.1536 272.432 20.7677 277.276 14.2599 277.276C7.75198 277.276 2.36615 272.432 2.36615 266.578C2.36615 260.724 7.75198 255.879 14.2599 255.879C20.7677 255.879 26.1536 260.724 26.1536 266.578Z" fill="#09D4D5"/>
<path d="M18.5236 777.276C18.5236 779.496 16.7284 781.111 14.2599 781.111C12.0158 781.111 9.99606 779.496 9.99606 777.276C9.99606 775.257 12.0158 773.44 14.2599 773.44C16.7284 773.44 18.5236 775.257 18.5236 777.276Z" fill="#09D4D5"/>
<path d="M31.7638 812.197C31.7638 813.408 30.4173 814.619 29.0709 814.619C27.5 814.619 26.1536 813.408 26.1536 812.197C26.1536 810.784 27.5 809.573 29.0709 809.573C30.4173 809.573 31.7638 810.784 31.7638 812.197Z" fill="#09D4D5"/>
<path d="M46.5748 846.109L45.4528 847.32L44.3307 846.109L45.4528 845.1L46.5748 846.109Z" fill="#09D4D5"/>
<path d="M122.65 149.299C122.65 155.355 117.264 160.199 110.531 160.199C104.024 160.199 98.6378 155.355 98.6378 149.299C98.6378 143.445 104.024 138.601 110.531 138.601C117.264 138.601 122.65 143.445 122.65 149.299Z" fill="#09D4D5"/>
<path d="M103.35 182C103.35 188.257 97.7402 193.304 90.7835 193.304C83.8268 193.304 77.9921 188.257 77.9921 182C77.9921 175.742 83.8268 170.494 90.7835 170.494C97.7402 170.494 103.35 175.742 103.35 182Z" fill="#09D4D5"/>
<path d="M85.3976 215.306C85.3976 221.766 79.563 226.812 72.6063 226.812C65.6496 226.812 60.0394 221.766 60.0394 215.306C60.0394 209.049 65.6496 204.002 72.6063 204.002C79.563 204.002 85.3976 209.049 85.3976 215.306Z" fill="#09D4D5"/>
<path d="M69.0157 249.622C69.0157 255.879 63.4055 260.926 56.4488 260.926C49.4921 260.926 43.8819 255.879 43.8819 249.622C43.8819 243.364 49.4921 238.318 56.4488 238.318C63.4055 238.318 69.0157 243.364 69.0157 249.622Z" fill="#09D4D5"/>
<path d="M39.6181 320.07C39.6181 324.914 35.3543 328.75 29.9685 328.75C24.5827 328.75 20.0945 324.914 20.0945 320.07C20.0945 315.225 24.5827 311.188 29.9685 311.188C35.3543 311.188 39.6181 315.225 39.6181 320.07Z" fill="#09D4D5"/>
<path d="M31.9882 356C31.9882 362.258 26.6024 367.103 19.6457 367.103C12.9134 367.103 7.30316 362.258 7.30316 356C7.30316 349.945 12.9134 344.898 19.6457 344.898C26.6024 344.898 31.9882 349.945 31.9882 356Z" fill="#09D4D5"/>
<path d="M19.6457 651.519C19.6457 655.556 16.0551 658.988 11.3425 658.988C6.85434 658.988 3.03937 655.556 3.03937 651.519C3.03937 647.28 6.85434 644.05 11.3425 644.05C16.0551 644.05 19.6457 647.28 19.6457 651.519Z" fill="#09D4D5"/>
<path d="M26.8268 687.853C26.8268 691.486 23.6851 694.312 19.6457 694.312C15.6063 694.312 12.4646 691.486 12.4646 687.853C12.4646 684.22 15.6063 681.394 19.6457 681.394C23.6851 681.394 26.8268 684.22 26.8268 687.853Z" fill="#09D4D5"/>
<path d="M35.8032 723.985C35.8032 726.811 33.1102 729.234 29.9685 729.234C26.8268 729.234 24.1339 726.811 24.1339 723.985C24.1339 720.958 26.8268 718.737 29.9685 718.737C33.1102 718.737 35.8032 720.958 35.8032 723.985Z" fill="#09D4D5"/>
<path d="M46.7992 759.512C46.7992 761.733 44.7795 763.549 42.311 763.549C39.6181 763.549 37.5984 761.733 37.5984 759.512C37.5984 757.09 39.6181 755.273 42.311 755.273C44.7795 755.273 46.7992 757.09 46.7992 759.512Z" fill="#09D4D5"/>
<path d="M59.1418 794.232C59.1418 795.645 58.0197 796.856 56.4488 796.856C54.878 796.856 53.7559 795.645 53.7559 794.232C53.7559 793.021 54.878 791.809 56.4488 791.809C58.0197 791.809 59.1418 793.021 59.1418 794.232Z" fill="#09D4D5"/>
<path d="M73.9528 828.547C73.9528 829.153 73.504 829.758 72.6063 829.758C71.9331 829.758 71.2599 829.153 71.2599 828.547C71.2599 827.942 71.9331 827.336 72.6063 827.336C73.504 827.336 73.9528 827.942 73.9528 828.547Z" fill="#09D4D5"/>
<path d="M91.9055 862.056L90.7835 863.065L89.437 862.056L90.7835 860.844L91.9055 862.056Z" fill="#09D4D5"/>
<path d="M149.13 166.861C149.13 172.714 143.744 177.357 137.461 177.357C130.953 177.357 125.791 172.714 125.791 166.861C125.791 161.007 130.953 156.364 137.461 156.364C143.744 156.364 149.13 161.007 149.13 166.861Z" fill="#09D4D5"/>
<path d="M136.563 199.561C136.563 208.847 128.035 216.517 117.713 216.517C107.165 216.517 98.8622 208.847 98.8622 199.561C98.8622 190.074 107.165 182.605 117.713 182.605C128.035 182.605 136.563 190.074 136.563 199.561Z" fill="#09D4D5"/>
<path d="M110.083 233.07C110.083 238.116 105.594 242.355 99.9843 242.355C94.1496 242.355 89.6614 238.116 89.6614 233.07C89.6614 228.023 94.1496 223.784 99.9843 223.784C105.594 223.784 110.083 228.023 110.083 233.07Z" fill="#09D4D5"/>
<path d="M80.0118 302.508C80.0118 307.353 75.748 311.188 70.3622 311.188C64.9764 311.188 60.4882 307.353 60.4882 302.508C60.4882 297.664 64.9764 293.627 70.3622 293.627C75.748 293.627 80.0118 297.664 80.0118 302.508Z" fill="#09D4D5"/>
<path d="M61.1614 374.369C61.1614 380.425 55.5512 385.27 48.8189 385.27C42.0866 385.27 36.7008 380.425 36.7008 374.369C36.7008 368.314 42.0866 363.267 48.8189 363.267C55.5512 363.267 61.1614 368.314 61.1614 374.369Z" fill="#09D4D5"/>
<path d="M54.6536 410.905C54.6536 417.567 48.5945 422.815 41.4134 422.815C34.0079 422.815 27.9488 417.567 27.9488 410.905C27.9488 404.244 34.0079 398.794 41.4134 398.794C48.5945 398.794 54.6536 404.244 54.6536 410.905Z" fill="#09D4D5"/>
<path d="M49.7166 447.643C49.7166 454.507 43.4331 459.957 36.0276 459.957C28.3976 459.957 22.3386 454.507 22.3386 447.643C22.3386 440.982 28.3976 435.33 36.0276 435.33C43.4331 435.33 49.7166 440.982 49.7166 447.643Z" fill="#09D4D5"/>
<path d="M46.3504 484.785C46.3504 491.648 40.2914 497.098 32.6614 497.098C25.0315 497.098 18.9724 491.648 18.9724 484.785C18.9724 477.922 25.0315 472.472 32.6614 472.472C40.2914 472.472 46.3504 477.922 46.3504 484.785Z" fill="#09D4D5"/>
<path d="M43.4331 521.927C43.4331 527.781 38.2717 532.625 31.5394 532.625C25.0315 532.625 19.8701 527.781 19.8701 521.927C19.8701 516.073 25.0315 511.228 31.5394 511.228C38.2717 511.228 43.4331 516.073 43.4331 521.927Z" fill="#09D4D5"/>
<path d="M43.6575 559.068C43.6575 564.518 38.7205 568.959 32.6614 568.959C26.6024 568.959 21.8898 564.518 21.8898 559.068C21.8898 553.82 26.6024 549.379 32.6614 549.379C38.7205 549.379 43.6575 553.82 43.6575 559.068Z" fill="#09D4D5"/>
<path d="M46.126 596.21C46.126 601.257 41.6378 605.495 36.0276 605.495C30.1929 605.495 25.7047 601.257 25.7047 596.21C25.7047 591.164 30.1929 586.925 36.0276 586.925C41.6378 586.925 46.126 591.164 46.126 596.21Z" fill="#09D4D5"/>
<path d="M51.063 633.15C51.063 637.994 46.7992 641.83 41.4134 641.83C36.0276 641.83 31.5394 637.994 31.5394 633.15C31.5394 628.305 36.0276 624.268 41.4134 624.268C46.7992 624.268 51.063 628.305 51.063 633.15Z" fill="#09D4D5"/>
<path d="M57.3465 669.686C57.3465 673.925 53.5315 677.357 48.8189 677.357C44.1063 677.357 40.2914 673.925 40.2914 669.686C40.2914 665.447 44.1063 662.015 48.8189 662.015C53.5315 662.015 57.3465 665.447 57.3465 669.686Z" fill="#09D4D5"/>
<path d="M64.752 705.818C64.752 708.846 62.0591 711.47 58.4685 711.47C55.1024 711.47 52.4095 708.846 52.4095 705.818C52.4095 702.791 55.1024 700.166 58.4685 700.166C62.0591 700.166 64.752 702.791 64.752 705.818Z" fill="#09D4D5"/>
<path d="M75.2992 741.547C75.2992 743.969 73.0551 745.988 70.3622 745.988C67.4449 745.988 65.2008 743.969 65.2008 741.547C65.2008 738.923 67.4449 736.904 70.3622 736.904C73.0551 736.904 75.2992 738.923 75.2992 741.547Z" fill="#09D4D5"/>
<path d="M88.5394 776.468C88.5394 778.689 86.5197 780.505 84.0512 780.505C81.5827 780.505 79.7874 778.689 79.7874 776.468C79.7874 774.248 81.5827 772.633 84.0512 772.633C86.5197 772.633 88.5394 774.248 88.5394 776.468Z" fill="#09D4D5"/>
<path d="M102.453 810.784C102.453 812.197 101.331 813.206 99.9843 813.206C98.4134 813.206 97.2914 812.197 97.2914 810.784C97.2914 809.573 98.4134 808.563 99.9843 808.563C101.331 808.563 102.453 809.573 102.453 810.784Z" fill="#09D4D5"/>
<path d="M119.508 844.494C119.508 845.301 118.61 845.907 117.713 845.907C116.815 845.907 115.917 845.301 115.917 844.494C115.917 843.485 116.815 842.879 117.713 842.879C118.61 842.879 119.508 843.485 119.508 844.494Z" fill="#09D4D5"/>
<path d="M140.154 876.993C140.154 878.406 139.031 879.617 137.461 879.617C135.89 879.617 134.543 878.406 134.543 876.993C134.543 875.782 135.89 874.571 137.461 874.571C139.031 874.571 140.154 875.782 140.154 876.993Z" fill="#09D4D5"/>
<path d="M192.441 939.367C192.441 944.413 187.953 948.45 182.343 948.45C176.957 948.45 172.469 944.413 172.469 939.367C172.469 934.522 176.957 930.485 182.343 930.485C187.953 930.485 192.441 934.522 192.441 939.367Z" fill="#09D4D5"/>
<path d="M137.461 250.833C137.461 255.879 132.972 260.118 127.138 260.118C121.528 260.118 116.815 255.879 116.815 250.833C116.815 245.585 121.528 241.548 127.138 241.548C132.972 241.548 137.461 245.585 137.461 250.833Z" fill="#09D4D5"/>
<path d="M123.098 297.866C119.957 300.086 116.142 301.499 111.654 301.499C101.78 301.499 93.7008 294.232 93.7008 285.35C93.7008 276.267 101.78 269 111.654 269C121.752 269 129.831 276.267 129.831 285.35C129.831 287.167 129.382 289.186 128.709 290.801C131.626 288.782 135.441 287.571 139.48 287.571C149.13 287.571 156.984 294.434 156.984 303.114C156.984 311.794 149.13 318.859 139.48 318.859C129.831 318.859 121.976 311.794 121.976 303.114C121.976 301.297 122.425 299.48 123.098 297.866Z" fill="#09D4D5"/>
<path d="M97.0669 356.202C97.0669 361.249 92.8032 365.084 87.1929 365.084C81.8071 365.084 77.3189 361.249 77.3189 356.202C77.3189 351.358 81.8071 347.522 87.1929 347.522C92.8032 347.522 97.0669 351.358 97.0669 356.202Z" fill="#09D4D5"/>
<path d="M83.6024 429.274C83.6024 435.33 78.2165 440.175 71.4843 440.175C64.9764 440.175 59.5906 435.33 59.5906 429.274C59.5906 423.219 64.9764 418.374 71.4843 418.374C78.2165 418.374 83.6024 423.219 83.6024 429.274Z" fill="#09D4D5"/>
<path d="M80.4606 466.214C80.4606 472.876 74.4016 478.326 66.9961 478.326C59.5906 478.326 53.7559 472.876 53.7559 466.214C53.7559 459.553 59.5906 454.305 66.9961 454.305C74.4016 454.305 80.4606 459.553 80.4606 466.214Z" fill="#09D4D5"/>
<path d="M77.7677 503.356C77.7677 509.815 71.9331 514.862 64.752 514.862C57.7953 514.862 51.9606 509.815 51.9606 503.356C51.9606 496.897 57.7953 491.85 64.752 491.85C71.9331 491.85 77.7677 496.897 77.7677 503.356Z" fill="#09D4D5"/>
<path d="M82.9291 540.498C82.9291 549.581 74.8504 556.848 64.752 556.848C54.878 556.848 46.7992 549.581 46.7992 540.498C46.7992 531.616 54.878 524.349 64.752 524.349C74.8504 524.349 82.9291 531.616 82.9291 540.498Z" fill="#09D4D5"/>
<path d="M77.9921 577.639C77.9921 583.089 73.0551 587.53 66.9961 587.53C61.1614 587.53 56.2244 583.089 56.2244 577.639C56.2244 572.391 61.1614 567.95 66.9961 567.95C73.0551 567.95 77.9921 572.391 77.9921 577.639Z" fill="#09D4D5"/>
<path d="M81.5827 614.579C81.5827 619.626 77.0945 623.663 71.4843 623.663C66.0984 623.663 61.6103 619.626 61.6103 614.579C61.6103 609.735 66.0984 605.697 71.4843 605.697C77.0945 605.697 81.5827 609.735 81.5827 614.579Z" fill="#09D4D5"/>
<path d="M87.1929 651.317C87.1929 655.758 83.1536 659.391 78.2166 659.391C73.504 659.391 69.4646 655.758 69.4646 651.317C69.4646 646.876 73.504 643.445 78.2166 643.445C83.1536 643.445 87.1929 646.876 87.1929 651.317Z" fill="#09D4D5"/>
<path d="M95.0472 687.651C95.0472 691.487 91.4567 694.514 87.1929 694.514C82.9292 694.514 79.563 691.487 79.563 687.651C79.563 683.816 82.9292 680.586 87.1929 680.586C91.4567 680.586 95.0472 683.816 95.0472 687.651Z" fill="#09D4D5"/>
<path d="M105.37 723.38C105.37 727.013 102.228 729.839 98.4134 729.839C94.5984 729.839 91.4567 727.013 91.4567 723.38C91.4567 719.948 94.5984 717.122 98.4134 717.122C102.228 717.122 105.37 719.948 105.37 723.38Z" fill="#09D4D5"/>
<path d="M117.488 758.705C117.488 761.531 114.795 763.751 111.654 763.751C108.512 763.751 106.043 761.531 106.043 758.705C106.043 755.879 108.512 753.457 111.654 753.457C114.795 753.457 117.488 755.879 117.488 758.705Z" fill="#09D4D5"/>
<path d="M129.831 793.222C129.831 794.433 128.484 795.443 127.138 795.443C125.791 795.443 124.669 794.433 124.669 793.222C124.669 791.809 125.791 790.8 127.138 790.8C128.484 790.8 129.831 791.809 129.831 793.222Z" fill="#09D4D5"/>
<path d="M146.437 826.932C146.437 827.74 145.539 828.345 144.642 828.345C143.744 828.345 142.846 827.74 142.846 826.932C142.846 825.923 143.744 825.318 144.642 825.318C145.539 825.318 146.437 825.923 146.437 826.932Z" fill="#09D4D5"/>
<path d="M169.551 859.633C169.551 862.257 167.083 864.276 164.165 864.276C161.248 864.276 158.78 862.257 158.78 859.633C158.78 857.009 161.248 854.789 164.165 854.789C167.083 854.789 169.551 857.009 169.551 859.633Z" fill="#09D4D5"/>
<path d="M193.114 891.325C193.114 895.16 189.748 898.188 185.709 898.188C181.445 898.188 178.079 895.16 178.079 891.325C178.079 887.691 181.445 884.663 185.709 884.663C189.748 884.663 193.114 887.691 193.114 891.325Z" fill="#09D4D5"/>
<path d="M221.839 922.007C221.839 928.466 216.228 933.715 209.047 933.715C201.866 933.715 196.256 928.466 196.256 922.007C196.256 915.749 201.866 910.501 209.047 910.501C216.228 910.501 221.839 915.749 221.839 922.007Z" fill="#09D4D5"/>
<path d="M118.61 410.905C118.61 416.154 113.898 420.393 108.063 420.393C102.228 420.393 97.5157 416.154 97.5157 410.905C97.5157 405.657 102.228 401.418 108.063 401.418C113.898 401.418 118.61 405.657 118.61 410.905Z" fill="#09D4D5"/>
<path d="M114.346 447.845C114.346 453.901 108.961 458.746 102.228 458.746C95.4961 458.746 89.8858 453.901 89.8858 447.845C89.8858 441.588 95.4961 436.743 102.228 436.743C108.961 436.743 114.346 441.588 114.346 447.845Z" fill="#09D4D5"/>
<path d="M111.654 484.785C111.654 491.244 105.819 496.493 98.6378 496.493C91.4567 496.493 85.6221 491.244 85.6221 484.785C85.6221 478.326 91.4567 473.077 98.6378 473.077C105.819 473.077 111.654 478.326 111.654 484.785Z" fill="#09D4D5"/>
<path d="M108.961 521.927C108.961 527.579 103.799 532.221 97.5157 532.221C91.0079 532.221 85.8465 527.579 85.8465 521.927C85.8465 516.275 91.0079 511.632 97.5157 511.632C103.799 511.632 108.961 516.275 108.961 521.927Z" fill="#09D4D5"/>
<path d="M109.634 559.068C109.634 564.518 104.697 568.959 98.6378 568.959C92.5788 568.959 87.6418 564.518 87.6418 559.068C87.6418 553.618 92.5788 549.379 98.6378 549.379C104.697 549.379 109.634 553.618 109.634 559.068Z" fill="#09D4D5"/>
<path d="M112.551 596.21C112.551 601.458 107.839 605.697 102.228 605.697C96.3937 605.697 91.6811 601.458 91.6811 596.21C91.6811 590.962 96.3937 586.723 102.228 586.723C107.839 586.723 112.551 590.962 112.551 596.21Z" fill="#09D4D5"/>
<path d="M118.161 632.948C118.161 637.994 113.673 642.032 108.063 642.032C102.453 642.032 97.9646 637.994 97.9646 632.948C97.9646 627.902 102.453 623.865 108.063 623.865C113.673 623.865 118.161 627.902 118.161 632.948Z" fill="#09D4D5"/>
<path d="M125.343 669.484C125.343 673.925 121.303 677.558 116.142 677.558C111.205 677.558 107.165 673.925 107.165 669.484C107.165 664.841 111.205 661.208 116.142 661.208C121.303 661.208 125.343 664.841 125.343 669.484Z" fill="#09D4D5"/>
<path d="M133.87 705.415C133.87 708.846 130.728 711.672 126.689 711.672C122.874 711.672 119.732 708.846 119.732 705.415C119.732 701.983 122.874 699.157 126.689 699.157C130.728 699.157 133.87 701.983 133.87 705.415Z" fill="#09D4D5"/>
<path d="M145.539 740.74C145.539 743.767 142.846 746.19 139.48 746.19C136.339 746.19 133.646 743.767 133.646 740.74C133.646 737.712 136.339 735.491 139.48 735.491C142.846 735.491 145.539 737.712 145.539 740.74Z" fill="#09D4D5"/>
<path d="M159.228 775.459C159.228 777.679 156.984 779.698 154.516 779.698C152.047 779.698 149.803 777.679 149.803 775.459C149.803 773.037 152.047 771.22 154.516 771.22C156.984 771.22 159.228 773.037 159.228 775.459Z" fill="#09D4D5"/>
<path d="M176.283 809.169C176.283 811.591 174.264 813.408 171.571 813.408C169.102 813.408 167.083 811.591 167.083 809.169C167.083 806.949 169.102 805.132 171.571 805.132C174.264 805.132 176.283 806.949 176.283 809.169Z" fill="#09D4D5"/>
<path d="M195.358 842.072C195.358 844.292 193.339 846.109 190.87 846.109C188.402 846.109 186.606 844.292 186.606 842.072C186.606 839.851 188.402 838.035 190.87 838.035C193.339 838.035 195.358 839.851 195.358 842.072Z" fill="#09D4D5"/>
<path d="M228.571 873.965C228.571 882.039 221.39 888.499 212.413 888.499C203.437 888.499 196.031 882.039 196.031 873.965C196.031 865.891 203.437 859.431 212.413 859.431C221.39 859.431 228.571 865.891 228.571 873.965Z" fill="#09D4D5"/>
<path d="M243.831 904.647C243.831 908.684 240.24 911.914 235.752 911.914C231.264 911.914 227.449 908.684 227.449 904.647C227.449 900.61 231.264 897.38 235.752 897.38C240.24 897.38 243.831 900.61 243.831 904.647Z" fill="#09D4D5"/>
<path d="M268.74 934.118C268.74 937.954 265.15 940.982 260.886 940.982C256.622 940.982 253.032 937.954 253.032 934.118C253.032 930.283 256.622 927.053 260.886 927.053C265.15 927.053 268.74 930.283 268.74 934.118Z" fill="#09D4D5"/>
<path d="M145.764 466.214C145.764 472.472 140.154 477.72 133.197 477.72C126.016 477.72 120.406 472.472 120.406 466.214C120.406 459.957 126.016 454.91 133.197 454.91C140.154 454.91 145.764 459.957 145.764 466.214Z" fill="#09D4D5"/>
<path d="M143.295 503.356C143.295 509.613 137.685 514.862 130.728 514.862C123.547 514.862 117.937 509.613 117.937 503.356C117.937 497.098 123.547 492.052 130.728 492.052C137.685 492.052 143.295 497.098 143.295 503.356Z" fill="#09D4D5"/>
<path d="M142.173 540.498C142.173 546.351 137.012 550.994 130.728 550.994C124.22 550.994 119.059 546.351 119.059 540.498C119.059 534.846 124.22 530.203 130.728 530.203C137.012 530.203 142.173 534.846 142.173 540.498Z" fill="#09D4D5"/>
<path d="M143.969 577.639C143.969 583.089 139.256 587.53 133.197 587.53C127.138 587.53 122.201 583.089 122.201 577.639C122.201 572.189 127.138 567.748 133.197 567.748C139.256 567.748 143.969 572.189 143.969 577.639Z" fill="#09D4D5"/>
<path d="M148.232 614.579C148.232 619.626 143.744 623.865 138.134 623.865C132.299 623.865 127.811 619.626 127.811 614.579C127.811 609.533 132.299 605.495 138.134 605.495C143.744 605.495 148.232 609.533 148.232 614.579Z" fill="#09D4D5"/>
<path d="M154.74 651.115C154.74 655.758 150.476 659.593 145.315 659.593C140.378 659.593 136.114 655.758 136.114 651.115C136.114 646.472 140.378 642.839 145.315 642.839C150.476 642.839 154.74 646.472 154.74 651.115Z" fill="#09D4D5"/>
<path d="M163.717 687.248C163.717 691.487 159.902 694.918 155.189 694.918C150.476 694.918 146.661 691.487 146.661 687.248C146.661 683.009 150.476 679.577 155.189 679.577C159.902 679.577 163.717 683.009 163.717 687.248Z" fill="#09D4D5"/>
<path d="M174.713 722.774C174.713 726.408 171.571 729.436 167.307 729.436C163.268 729.436 159.902 726.408 159.902 722.774C159.902 719.141 163.268 716.113 167.307 716.113C171.571 716.113 174.713 719.141 174.713 722.774Z" fill="#09D4D5"/>
<path d="M186.831 757.696C186.831 760.118 184.587 761.935 181.894 761.935C179.201 761.935 177.181 760.118 177.181 757.696C177.181 755.273 179.201 753.255 181.894 753.255C184.587 753.255 186.831 755.273 186.831 757.696Z" fill="#09D4D5"/>
<path d="M211.516 791.608C211.516 797.865 205.681 803.113 198.724 803.113C191.768 803.113 186.158 797.865 186.158 791.608C186.158 785.35 191.768 780.303 198.724 780.303C205.681 780.303 211.516 785.35 211.516 791.608Z" fill="#09D4D5"/>
<path d="M233.059 824.712C233.059 832.181 226.102 838.236 217.799 838.236C209.272 838.236 202.539 832.181 202.539 824.712C202.539 817.042 209.272 810.986 217.799 810.986C226.102 810.986 233.059 817.042 233.059 824.712Z" fill="#09D4D5"/>
<path d="M247.197 856.605C247.197 860.642 243.606 864.074 238.894 864.074C234.406 864.074 230.591 860.642 230.591 856.605C230.591 852.366 234.406 849.137 238.894 849.137C243.606 849.137 247.197 852.366 247.197 856.605Z" fill="#09D4D5"/>
<path d="M269.189 887.288C269.189 890.719 266.047 893.545 262.232 893.545C258.417 893.545 255.276 890.719 255.276 887.288C255.276 883.856 258.417 881.03 262.232 881.03C266.047 881.03 269.189 883.856 269.189 887.288Z" fill="#09D4D5"/>
<path d="M495.169 1060.08C495.169 1069.77 486.417 1077.64 475.87 1077.64C465.098 1077.64 456.346 1069.77 456.346 1060.08C456.346 1050.59 465.098 1042.72 475.87 1042.72C486.417 1042.72 495.169 1050.59 495.169 1060.08Z" fill="#09D4D5"/>
<path d="M524.343 1077.84C524.343 1083.9 518.957 1088.74 512.224 1088.74C505.492 1088.74 499.882 1083.9 499.882 1077.84C499.882 1071.78 505.492 1066.74 512.224 1066.74C518.957 1066.74 524.343 1071.78 524.343 1077.84Z" fill="#09D4D5"/>
<path d="M235.752 270.009C235.752 274.854 231.264 278.891 225.878 278.891C220.492 278.891 216.004 274.854 216.004 270.009C216.004 264.963 220.492 261.128 225.878 261.128C231.264 261.128 235.752 264.963 235.752 270.009Z" fill="#09D4D5"/>
<path d="M178.528 447.845C178.528 452.69 174.039 456.727 168.429 456.727C162.819 456.727 158.331 452.69 158.331 447.845C158.331 442.799 162.819 438.762 168.429 438.762C174.039 438.762 178.528 442.799 178.528 447.845Z" fill="#09D4D5"/>
<path d="M176.957 484.785C176.957 491.043 171.346 495.887 164.614 495.887C157.658 495.887 152.047 491.043 152.047 484.785C152.047 478.729 157.658 473.683 164.614 473.683C171.346 473.683 176.957 478.729 176.957 484.785Z" fill="#09D4D5"/>
<path d="M175.61 521.927C175.61 528.184 170 533.231 163.268 533.231C156.311 533.231 150.925 528.184 150.925 521.927C150.925 515.871 156.311 510.825 163.268 510.825C170 510.825 175.61 515.871 175.61 521.927Z" fill="#09D4D5"/>
<path d="M175.61 559.068C175.61 564.72 170.673 569.161 164.614 569.161C158.331 569.161 153.394 564.72 153.394 559.068C153.394 553.618 158.331 549.177 164.614 549.177C170.673 549.177 175.61 553.618 175.61 559.068Z" fill="#09D4D5"/>
<path d="M179.425 596.21C179.425 601.66 174.488 605.899 168.429 605.899C162.37 605.899 157.433 601.66 157.433 596.21C157.433 590.76 162.37 586.319 168.429 586.319C174.488 586.319 179.425 590.76 179.425 596.21Z" fill="#09D4D5"/>
<path d="M185.26 632.948C185.26 637.994 180.772 642.233 174.937 642.233C169.102 642.233 164.39 637.994 164.39 632.948C164.39 627.7 169.102 623.461 174.937 623.461C180.772 623.461 185.26 627.7 185.26 632.948Z" fill="#09D4D5"/>
<path d="M193.563 669.08C193.563 673.925 189.299 677.962 183.913 677.962C178.528 677.962 174.039 673.925 174.039 669.08C174.039 664.236 178.528 660.401 183.913 660.401C189.299 660.401 193.563 664.236 193.563 669.08Z" fill="#09D4D5"/>
<path d="M202.764 704.809C202.764 708.443 199.398 711.47 195.358 711.47C191.319 711.47 187.953 708.443 187.953 704.809C187.953 701.176 191.319 698.148 195.358 698.148C199.398 698.148 202.764 701.176 202.764 704.809Z" fill="#09D4D5"/>
<path d="M214.433 739.932C214.433 742.354 212.189 744.373 209.496 744.373C206.579 744.373 204.335 742.354 204.335 739.932C204.335 737.308 206.579 735.289 209.496 735.289C212.189 735.289 214.433 737.308 214.433 739.932Z" fill="#09D4D5"/>
<path d="M232.161 774.046C232.161 777.074 229.244 779.496 225.878 779.496C222.512 779.496 219.595 777.074 219.595 774.046C219.595 770.816 222.512 768.394 225.878 768.394C229.244 768.394 232.161 770.816 232.161 774.046Z" fill="#09D4D5"/>
<path d="M273.453 839.044C273.453 842.879 269.862 846.109 265.598 846.109C261.335 846.109 257.969 842.879 257.969 839.044C257.969 835.209 261.335 832.181 265.598 832.181C269.862 832.181 273.453 835.209 273.453 839.044Z" fill="#09D4D5"/>
<path d="M297.24 869.928C297.24 873.965 293.425 877.397 288.937 877.397C284.224 877.397 280.41 873.965 280.41 869.928C280.41 865.689 284.224 862.257 288.937 862.257C293.425 862.257 297.24 865.689 297.24 869.928Z" fill="#09D4D5"/>
<path d="M577.079 6.98999C577.079 10.6234 573.937 13.4494 570.122 13.4494C566.307 13.4494 563.165 10.6234 563.165 6.98999C563.165 3.55842 566.307 0.732422 570.122 0.732422C573.937 0.732422 577.079 3.55842 577.079 6.98999Z" fill="#09D4D5"/>
<path d="M279.961 254.265C279.961 258.705 276.146 262.137 271.433 262.137C266.721 262.137 262.906 258.705 262.906 254.265C262.906 250.026 266.721 246.594 271.433 246.594C276.146 246.594 279.961 250.026 279.961 254.265Z" fill="#09D4D5"/>
<path d="M217.126 429.476C217.126 435.532 211.516 440.578 204.559 440.578C197.827 440.578 192.217 435.532 192.217 429.476C192.217 423.219 197.827 418.172 204.559 418.172C211.516 418.172 217.126 423.219 217.126 429.476Z" fill="#09D4D5"/>
<path d="M210.843 466.214C210.843 472.068 205.681 476.711 199.173 476.711C192.665 476.711 187.504 472.068 187.504 466.214C187.504 460.562 192.665 455.718 199.173 455.718C205.681 455.718 210.843 460.562 210.843 466.214Z" fill="#09D4D5"/>
<path d="M208.374 503.356C208.374 509.21 202.988 514.054 196.48 514.054C189.972 514.054 184.587 509.21 184.587 503.356C184.587 497.502 189.972 492.658 196.48 492.658C202.988 492.658 208.374 497.502 208.374 503.356Z" fill="#09D4D5"/>
<path d="M207.925 540.498C207.925 546.351 202.764 550.994 196.48 550.994C190.197 550.994 185.035 546.351 185.035 540.498C185.035 534.846 190.197 530.203 196.48 530.203C202.764 530.203 207.925 534.846 207.925 540.498Z" fill="#09D4D5"/>
<path d="M210.394 577.639C210.394 583.089 205.232 587.732 199.173 587.732C193.114 587.732 187.953 583.089 187.953 577.639C187.953 572.189 193.114 567.546 199.173 567.546C205.232 567.546 210.394 572.189 210.394 577.639Z" fill="#09D4D5"/>
<path d="M215.555 614.579C215.555 620.029 210.618 624.268 204.559 624.268C198.5 624.268 193.787 620.029 193.787 614.579C193.787 609.129 198.5 604.688 204.559 604.688C210.618 604.688 215.555 609.129 215.555 614.579Z" fill="#09D4D5"/>
<path d="M222.736 650.913C222.736 655.96 218.248 659.997 212.862 659.997C207.252 659.997 202.764 655.96 202.764 650.913C202.764 646.069 207.252 642.032 212.862 642.032C218.248 642.032 222.736 646.069 222.736 650.913Z" fill="#09D4D5"/>
<path d="M232.835 686.844C232.835 691.285 228.571 695.12 223.634 695.12C218.472 695.12 214.433 691.285 214.433 686.844C214.433 682.403 218.472 678.568 223.634 678.568C228.571 678.568 232.835 682.403 232.835 686.844Z" fill="#09D4D5"/>
<path d="M269.413 756.283C269.413 764.559 262.008 771.018 253.032 771.018C243.831 771.018 236.65 764.559 236.65 756.283C236.65 748.208 243.831 741.547 253.032 741.547C262.008 741.547 269.413 748.208 269.413 756.283Z" fill="#09D4D5"/>
<path d="M300.158 821.684C300.158 825.519 296.567 828.749 292.303 828.749C288.039 828.749 284.673 825.519 284.673 821.684C284.673 817.849 288.039 814.619 292.303 814.619C296.567 814.619 300.158 817.849 300.158 821.684Z" fill="#09D4D5"/>
<path d="M333.146 852.568C333.146 861.248 325.291 868.313 315.417 868.313C305.768 868.313 297.913 861.248 297.913 852.568C297.913 843.687 305.768 836.622 315.417 836.622C325.291 836.622 333.146 843.687 333.146 852.568Z" fill="#09D4D5"/>
<path d="M358.953 881.838C358.953 890.719 350.874 897.986 341 897.986C330.902 897.986 322.823 890.719 322.823 881.838C322.823 872.754 330.902 865.487 341 865.487C350.874 865.487 358.953 872.754 358.953 881.838Z" fill="#09D4D5"/>
<path d="M349.079 208.847C349.079 212.278 345.937 215.104 342.122 215.104C338.307 215.104 335.165 212.278 335.165 208.847C335.165 205.415 338.307 202.589 342.122 202.589C345.937 202.589 349.079 205.415 349.079 208.847Z" fill="#09D4D5"/>
<path d="M303.524 271.826C303.524 274.45 301.28 276.671 298.362 276.671C295.445 276.671 292.976 274.45 292.976 271.826C292.976 269.202 295.445 267.183 298.362 267.183C301.28 267.183 303.524 269.202 303.524 271.826Z" fill="#09D4D5"/>
<path d="M253.032 411.309C253.032 416.759 248.095 421.2 242.035 421.2C235.752 421.2 230.815 416.759 230.815 411.309C230.815 405.657 235.752 401.216 242.035 401.216C248.095 401.216 253.032 405.657 253.032 411.309Z" fill="#09D4D5"/>
<path d="M245.626 447.845C245.626 453.295 240.689 457.534 234.854 457.534C228.795 457.534 223.858 453.295 223.858 447.845C223.858 442.395 228.795 438.156 234.854 438.156C240.689 438.156 245.626 442.395 245.626 447.845Z" fill="#09D4D5"/>
<path d="M241.811 484.785C241.811 490.437 236.65 494.878 230.366 494.878C224.307 494.878 219.146 490.437 219.146 484.785C219.146 479.133 224.307 474.692 230.366 474.692C236.65 474.692 241.811 479.133 241.811 484.785Z" fill="#09D4D5"/>
<path d="M240.689 521.927C240.689 527.781 235.528 532.423 229.02 532.423C222.512 532.423 217.35 527.781 217.35 521.927C217.35 516.073 222.512 511.43 229.02 511.43C235.528 511.43 240.689 516.073 240.689 521.927Z" fill="#09D4D5"/>
<path d="M241.587 559.068C241.587 564.72 236.65 569.161 230.366 569.161C224.307 569.161 219.37 564.72 219.37 559.068C219.37 553.618 224.307 549.177 230.366 549.177C236.65 549.177 241.587 553.618 241.587 559.068Z" fill="#09D4D5"/>
<path d="M246.299 596.21C246.299 601.862 241.138 606.505 234.854 606.505C228.346 606.505 223.185 601.862 223.185 596.21C223.185 590.356 228.346 585.714 234.854 585.714C241.138 585.714 246.299 590.356 246.299 596.21Z" fill="#09D4D5"/>
<path d="M252.807 632.746C252.807 638.196 248.095 642.637 242.035 642.637C235.976 642.637 231.039 638.196 231.039 632.746C231.039 627.296 235.976 622.855 242.035 622.855C248.095 622.855 252.807 627.296 252.807 632.746Z" fill="#09D4D5"/>
<path d="M259.315 668.879C259.315 672.512 255.949 675.338 251.91 675.338C247.87 675.338 244.504 672.512 244.504 668.879C244.504 665.043 247.87 662.217 251.91 662.217C255.949 662.217 259.315 665.043 259.315 668.879Z" fill="#09D4D5"/>
<path d="M273.677 704.203C273.677 708.644 269.638 712.278 264.701 712.278C259.764 712.278 255.724 708.644 255.724 704.203C255.724 699.763 259.764 696.129 264.701 696.129C269.638 696.129 273.677 699.763 273.677 704.203Z" fill="#09D4D5"/>
<path d="M408.996 891.93C408.996 898.793 402.713 904.244 395.307 904.244C387.677 904.244 381.618 898.793 381.618 891.93C381.618 885.269 387.677 879.617 395.307 879.617C402.713 879.617 408.996 885.269 408.996 891.93Z" fill="#09D4D5"/>
<path d="M564.287 1000.73C564.287 1001.94 562.941 1002.95 561.594 1002.95C560.248 1002.95 559.126 1001.94 559.126 1000.73C559.126 999.52 560.248 998.511 561.594 998.511C562.941 998.511 564.287 999.52 564.287 1000.73Z" fill="#09D4D5"/>
<path d="M350.425 257.091C350.425 259.513 348.181 261.33 345.713 261.33C343.02 261.33 341 259.513 341 257.091C341 254.87 343.02 252.852 345.713 252.852C348.181 252.852 350.425 254.87 350.425 257.091Z" fill="#09D4D5"/>
<path d="M300.382 357.615C300.382 361.451 296.791 364.68 292.528 364.68C288.264 364.68 284.898 361.451 284.898 357.615C284.898 353.78 288.264 350.752 292.528 350.752C296.791 350.752 300.382 353.78 300.382 357.615Z" fill="#09D4D5"/>
<path d="M282.654 466.214C282.654 474.894 274.799 481.757 265.374 481.757C255.724 481.757 248.095 474.894 248.095 466.214C248.095 457.736 255.724 450.873 265.374 450.873C274.799 450.873 282.654 457.736 282.654 466.214Z" fill="#09D4D5"/>
<path d="M273.228 503.356C273.228 508.806 268.291 513.045 262.232 513.045C256.398 513.045 251.461 508.806 251.461 503.356C251.461 497.906 256.398 493.667 262.232 493.667C268.291 493.667 273.228 497.906 273.228 503.356Z" fill="#09D4D5"/>
<path d="M281.756 614.377C281.756 619.424 277.043 623.663 271.433 623.663C265.823 623.663 261.335 619.424 261.335 614.377C261.335 609.331 265.823 605.294 271.433 605.294C277.043 605.294 281.756 609.331 281.756 614.377Z" fill="#09D4D5"/>
<path d="M288.039 650.711C288.039 654.345 284.673 657.373 280.634 657.373C276.37 657.373 273.004 654.345 273.004 650.711C273.004 646.876 276.37 644.05 280.634 644.05C284.673 644.05 288.039 646.876 288.039 650.711Z" fill="#09D4D5"/>
<path d="M300.158 686.238C300.158 689.872 296.791 692.9 292.528 692.9C288.488 692.9 285.122 689.872 285.122 686.238C285.122 682.605 288.488 679.577 292.528 679.577C296.791 679.577 300.158 682.605 300.158 686.238Z" fill="#09D4D5"/>
<path d="M316.988 720.958C316.988 725.6 312.724 729.436 307.563 729.436C302.402 729.436 298.138 725.6 298.138 720.958C298.138 716.315 302.402 712.48 307.563 712.48C312.724 712.48 316.988 716.315 316.988 720.958Z" fill="#09D4D5"/>
<path d="M332.921 754.466C332.921 758.301 329.555 761.531 325.291 761.531C321.028 761.531 317.437 758.301 317.437 754.466C317.437 750.631 321.028 747.603 325.291 747.603C329.555 747.603 332.921 750.631 332.921 754.466Z" fill="#09D4D5"/>
<path d="M380.047 817.647C380.047 823.299 374.886 827.942 368.827 827.942C362.543 827.942 357.382 823.299 357.382 817.647C357.382 811.995 362.543 807.554 368.827 807.554C374.886 807.554 380.047 811.995 380.047 817.647Z" fill="#09D4D5"/>
<path d="M305.319 521.927C305.319 527.175 300.606 531.414 294.772 531.414C288.937 531.414 284.224 527.175 284.224 521.927C284.224 516.678 288.937 512.439 294.772 512.439C300.606 512.439 305.319 516.678 305.319 521.927Z" fill="#09D4D5"/>
<path d="M309.807 596.008C309.807 600.247 305.992 603.679 301.28 603.679C296.567 603.679 292.752 600.247 292.752 596.008C292.752 591.769 296.567 588.338 301.28 588.338C305.992 588.338 309.807 591.769 309.807 596.008Z" fill="#09D4D5"/>
<path d="M332.697 668.273C332.697 674.329 327.311 679.173 320.579 679.173C313.846 679.173 308.461 674.329 308.461 668.273C308.461 662.217 313.846 657.373 320.579 657.373C327.311 657.373 332.697 662.217 332.697 668.273Z" fill="#09D4D5"/>
<path d="M344.815 703.194C344.815 708.039 340.327 712.076 334.941 712.076C329.555 712.076 325.067 708.039 325.067 703.194C325.067 698.35 329.555 694.312 334.941 694.312C340.327 694.312 344.815 698.35 344.815 703.194Z" fill="#09D4D5"/>
<path d="M361.197 736.904C361.197 741.345 357.158 744.979 352.22 744.979C347.283 744.979 343.244 741.345 343.244 736.904C343.244 732.463 347.283 728.83 352.22 728.83C357.158 728.83 361.197 732.463 361.197 736.904Z" fill="#09D4D5"/>
<path d="M379.598 769.403C379.598 772.835 376.232 775.863 372.417 775.863C368.378 775.863 365.236 772.835 365.236 769.403C365.236 765.77 368.378 762.944 372.417 762.944C376.232 762.944 379.598 765.77 379.598 769.403Z" fill="#09D4D5"/>
<path d="M476.543 204.81L475.87 205.213L475.421 204.81L475.87 204.406L476.543 204.81Z" fill="#09D4D5"/>
<path d="M341.898 429.678C341.898 431.293 340.327 432.706 338.532 432.706C336.736 432.706 335.165 431.293 335.165 429.678C335.165 428.063 336.736 426.65 338.532 426.65C340.327 426.65 341.898 428.063 341.898 429.678Z" fill="#09D4D5"/>
<path d="M348.63 614.175C348.63 619.222 344.142 623.259 338.532 623.259C332.921 623.259 328.433 619.222 328.433 614.175C328.433 609.331 332.921 605.294 338.532 605.294C344.142 605.294 348.63 609.331 348.63 614.175Z" fill="#09D4D5"/>
<path d="M358.504 650.308C358.504 655.152 354.24 658.988 348.854 658.988C343.469 658.988 338.98 655.152 338.98 650.308C338.98 645.463 343.469 641.426 348.854 641.426C354.24 641.426 358.504 645.463 358.504 650.308Z" fill="#09D4D5"/>
<path d="M372.642 685.431C372.642 690.477 368.154 694.716 362.319 694.716C356.709 694.716 351.996 690.477 351.996 685.431C351.996 680.182 356.709 676.145 362.319 676.145C368.154 676.145 372.642 680.182 372.642 685.431Z" fill="#09D4D5"/>
<path d="M389.248 719.343C389.248 724.389 384.76 728.426 379.15 728.426C373.539 728.426 369.051 724.389 369.051 719.343C369.051 714.296 373.539 710.259 379.15 710.259C384.76 710.259 389.248 714.296 389.248 719.343Z" fill="#09D4D5"/>
<path d="M408.323 751.842C408.323 756.484 404.284 760.32 399.122 760.32C393.961 760.32 389.697 756.484 389.697 751.842C389.697 747.401 393.961 743.566 399.122 743.566C404.284 743.566 408.323 747.401 408.323 751.842Z" fill="#09D4D5"/>
<path d="M397.776 376.388C397.776 380.223 394.185 383.453 389.921 383.453C385.658 383.453 382.291 380.223 382.291 376.388C382.291 372.553 385.658 369.323 389.921 369.323C394.185 369.323 397.776 372.553 397.776 376.388Z" fill="#09D4D5"/>
<path d="M372.193 521.927C372.193 527.579 367.032 532.221 360.524 532.221C354.24 532.221 349.079 527.579 349.079 521.927C349.079 516.275 354.24 511.632 360.524 511.632C367.032 511.632 372.193 516.275 372.193 521.927Z" fill="#09D4D5"/>
<path d="M399.795 667.466C399.795 672.512 395.532 676.347 389.921 676.347C384.535 676.347 380.047 672.512 380.047 667.466C380.047 662.621 384.535 658.584 389.921 658.584C395.532 658.584 399.795 662.621 399.795 667.466Z" fill="#09D4D5"/>
<path d="M416.177 701.781C416.177 706.626 411.689 710.663 406.303 710.663C400.693 710.663 396.429 706.626 396.429 701.781C396.429 696.735 400.693 692.9 406.303 692.9C411.689 692.9 416.177 696.735 416.177 701.781Z" fill="#09D4D5"/>
<path d="M435.028 734.482C435.028 739.125 430.988 742.758 425.827 742.758C420.665 742.758 416.626 739.125 416.626 734.482C416.626 729.839 420.665 726.004 425.827 726.004C430.988 726.004 435.028 729.839 435.028 734.482Z" fill="#09D4D5"/>
<path d="M531.299 240.336L529.953 241.346L528.606 240.336L529.953 239.125L531.299 240.336Z" fill="#09D4D5"/>
<path d="M503.024 266.78C503.024 267.789 502.126 268.596 501.004 268.596C499.882 268.596 498.984 267.789 498.984 266.78C498.984 265.77 499.882 264.963 501.004 264.963C502.126 264.963 503.024 265.77 503.024 266.78Z" fill="#09D4D5"/>
<path d="M426.051 394.353C426.051 398.39 422.461 401.822 417.748 401.822C413.26 401.822 409.445 398.39 409.445 394.353C409.445 390.114 413.26 386.884 417.748 386.884C422.461 386.884 426.051 390.114 426.051 394.353Z" fill="#09D4D5"/>
<path d="M403.161 503.356C403.161 507.999 399.122 511.632 393.961 511.632C389.024 511.632 384.984 507.999 384.984 503.356C384.984 498.915 389.024 495.08 393.961 495.08C399.122 495.08 403.161 498.915 403.161 503.356Z" fill="#09D4D5"/>
<path d="M443.106 684.018C443.106 688.862 438.843 692.9 433.457 692.9C428.071 692.9 423.583 688.862 423.583 684.018C423.583 679.173 428.071 675.338 433.457 675.338C438.843 675.338 443.106 679.173 443.106 684.018Z" fill="#09D4D5"/>
<path d="M462.181 716.92C462.181 721.765 457.917 725.6 452.532 725.6C447.37 725.6 442.882 721.765 442.882 716.92C442.882 712.278 447.37 708.443 452.532 708.443C457.917 708.443 462.181 712.278 462.181 716.92Z" fill="#09D4D5"/>
<path d="M492.925 748.006C492.925 756.888 484.846 763.953 475.197 763.953C465.547 763.953 457.693 756.888 457.693 748.006C457.693 739.327 465.547 732.262 475.197 732.262C484.846 732.262 492.925 739.327 492.925 748.006Z" fill="#09D4D5"/>
<path d="M510.205 777.074C510.205 781.515 506.165 785.148 501.004 785.148C496.067 785.148 492.028 781.515 492.028 777.074C492.028 772.633 496.067 769 501.004 769C506.165 769 510.205 772.633 510.205 777.074Z" fill="#09D4D5"/>
<path d="M558.902 258.1C558.902 259.109 558.004 259.715 557.106 259.715C555.984 259.715 555.087 259.109 555.087 258.1C555.087 257.091 555.984 256.283 557.106 256.283C558.004 256.283 558.902 257.091 558.902 258.1Z" fill="#09D4D5"/>
<path d="M529.728 284.341C529.728 285.35 528.831 286.158 527.933 286.158C526.811 286.158 525.913 285.35 525.913 284.341C525.913 283.332 526.811 282.525 527.933 282.525C528.831 282.525 529.728 283.332 529.728 284.341Z" fill="#09D4D5"/>
<path d="M439.067 595.806C439.067 597.825 437.272 599.44 435.028 599.44C432.784 599.44 430.988 597.825 430.988 595.806C430.988 593.788 432.784 592.173 435.028 592.173C437.272 592.173 439.067 593.788 439.067 595.806Z" fill="#09D4D5"/>
<path d="M510.878 730.647C510.878 735.289 506.839 738.923 501.902 738.923C496.74 738.923 492.701 735.289 492.701 730.647C492.701 726.206 496.74 722.573 501.902 722.573C506.839 722.573 510.878 726.206 510.878 730.647Z" fill="#09D4D5"/>
<path d="M601.315 809.371C601.315 815.225 595.929 820.069 589.197 820.069C582.465 820.069 577.079 815.225 577.079 809.371C577.079 803.315 582.465 798.471 589.197 798.471C595.929 798.471 601.315 803.315 601.315 809.371Z" fill="#09D4D5"/>
<path d="M465.996 577.437L464.65 578.649L463.303 577.437L464.65 576.428L465.996 577.437Z" fill="#09D4D5"/>
<path d="M537.583 713.287C537.583 717.728 533.319 721.361 528.382 721.361C523.445 721.361 519.406 717.728 519.406 713.287C519.406 708.846 523.445 705.213 528.382 705.213C533.319 705.213 537.583 708.846 537.583 713.287Z" fill="#09D4D5"/>
<path d="M563.839 742.153C563.839 746.795 559.799 750.429 554.638 750.429C549.476 750.429 545.213 746.795 545.213 742.153C545.213 737.51 549.476 733.675 554.638 733.675C559.799 733.675 563.839 737.51 563.839 742.153Z" fill="#09D4D5"/>
<path d="M594.358 767.99C594.358 773.037 589.87 777.074 584.26 777.074C578.65 777.074 574.161 773.037 574.161 767.99C574.161 762.944 578.65 758.907 584.26 758.907C589.87 758.907 594.358 762.944 594.358 767.99Z" fill="#09D4D5"/>
<path d="M630.039 790.598C630.039 797.26 624.205 802.508 617.024 802.508C609.843 802.508 604.008 797.26 604.008 790.598C604.008 784.139 609.843 778.891 617.024 778.891C624.205 778.891 630.039 784.139 630.039 790.598Z" fill="#09D4D5"/>
</svg>
