<svg width="749" height="351" viewBox="0 0 749 351" fill="none" xmlns="http://www.w3.org/2000/svg">
<path d="M39.2838 3.305C38.9902 3.305 38.77 3.08467 38.77 2.79089C38.77 2.49711 38.9902 2.27678 39.2838 2.27678C39.5773 2.27678 39.7975 2.49711 39.7975 2.79089C39.7975 3.08467 39.5773 3.305 39.2838 3.305ZM26 350.036C25.5597 350.036 25.1927 349.669 25.1927 349.228C25.1927 348.788 25.5597 348.42 26 348.42C26.4404 348.42 26.8073 348.788 26.8073 349.228C26.8073 349.669 26.4404 350.036 26 350.036ZM52.6409 350.403C51.9804 350.403 51.4666 349.889 51.4666 349.228C51.4666 348.567 51.9804 348.053 52.6409 348.053C53.3014 348.053 53.8152 348.567 53.8152 349.228C53.8152 349.889 53.3014 350.403 52.6409 350.403ZM79.2818 350.403C78.6213 350.403 78.1075 349.889 78.1075 349.228C78.1075 348.567 78.6213 348.053 79.2818 348.053C79.9423 348.053 80.456 348.567 80.456 349.228C80.456 349.889 79.9423 350.403 79.2818 350.403ZM105.849 350.697C105.042 350.697 104.381 350.036 104.381 349.228C104.381 348.42 105.042 347.759 105.849 347.759C106.73 347.759 107.39 348.42 107.39 349.228C107.39 350.036 106.73 350.697 105.849 350.697ZM132.49 350.771C131.683 350.771 130.949 350.036 130.949 349.228C130.949 348.347 131.683 347.686 132.49 347.686C133.371 347.686 134.031 348.347 134.031 349.228C134.031 350.036 133.371 350.771 132.49 350.771ZM159.131 350.771C158.324 350.771 157.59 350.036 157.59 349.228C157.59 348.347 158.324 347.686 159.131 347.686C160.012 347.686 160.672 348.347 160.672 349.228C160.672 350.036 160.012 350.771 159.131 350.771ZM185.772 350.697C184.965 350.697 184.304 350.036 184.304 349.228C184.304 348.42 184.965 347.759 185.772 347.759C186.579 347.759 187.24 348.42 187.24 349.228C187.24 350.036 186.579 350.697 185.772 350.697ZM212.413 350.697C211.605 350.697 210.945 350.036 210.945 349.228C210.945 348.42 211.605 347.759 212.413 347.759C213.22 347.759 213.881 348.42 213.881 349.228C213.881 350.036 213.22 350.697 212.413 350.697ZM239.054 350.477C238.32 350.477 237.806 349.889 237.806 349.228C237.806 348.494 238.32 347.98 239.054 347.98C239.714 347.98 240.301 348.494 240.301 349.228C240.301 349.889 239.714 350.477 239.054 350.477ZM265.695 350.11C265.181 350.11 264.814 349.669 264.814 349.228C264.814 348.714 265.181 348.347 265.695 348.347C266.135 348.347 266.575 348.714 266.575 349.228C266.575 349.669 266.135 350.11 265.695 350.11ZM292.262 349.595L291.895 349.228L292.262 348.861L292.702 349.228L292.262 349.595ZM12.6429 323.743C12.0558 323.743 11.4686 323.229 11.4686 322.568C11.4686 321.907 12.0558 321.393 12.6429 321.393C13.3034 321.393 13.8905 321.907 13.8905 322.568C13.8905 323.229 13.3034 323.743 12.6429 323.743ZM39.2838 323.743C38.6233 323.743 38.1095 323.229 38.1095 322.568C38.1095 321.907 38.6233 321.393 39.2838 321.393C39.9443 321.393 40.458 321.907 40.458 322.568C40.458 323.229 39.9443 323.743 39.2838 323.743ZM65.9246 323.743C65.2641 323.743 64.7504 323.229 64.7504 322.568C64.7504 321.907 65.2641 321.393 65.9246 321.393C66.5852 321.393 67.0989 321.907 67.0989 322.568C67.0989 323.229 66.5852 323.743 65.9246 323.743ZM92.5655 324.551C91.4647 324.551 90.584 323.67 90.584 322.568C90.584 321.466 91.4647 320.585 92.5655 320.585C93.6664 320.585 94.5471 321.466 94.5471 322.568C94.5471 323.67 93.6664 324.551 92.5655 324.551ZM119.206 324.551C118.106 324.551 117.225 323.67 117.225 322.568C117.225 321.466 118.106 320.585 119.206 320.585C120.307 320.585 121.188 321.466 121.188 322.568C121.188 323.67 120.307 324.551 119.206 324.551ZM145.847 324.551C144.746 324.551 143.866 323.67 143.866 322.568C143.866 321.466 144.746 320.585 145.847 320.585C146.948 320.585 147.829 321.466 147.829 322.568C147.829 323.67 146.948 324.551 145.847 324.551ZM172.488 324.551C171.387 324.551 170.433 323.67 170.433 322.568C170.433 321.466 171.387 320.585 172.488 320.585C173.589 320.585 174.47 321.466 174.47 322.568C174.47 323.67 173.589 324.551 172.488 324.551ZM199.056 324.551C198.028 324.551 197.074 323.67 197.074 322.568C197.074 321.466 198.028 320.585 199.056 320.585C200.23 320.585 201.111 321.466 201.111 322.568C201.111 323.67 200.23 324.551 199.056 324.551ZM225.697 324.551C224.596 324.551 223.715 323.67 223.715 322.568C223.715 321.466 224.596 320.585 225.697 320.585C226.797 320.585 227.751 321.466 227.751 322.568C227.751 323.67 226.797 324.551 225.697 324.551ZM252.337 324.551C251.237 324.551 250.356 323.67 250.356 322.568C250.356 321.466 251.237 320.585 252.337 320.585C253.438 320.585 254.319 321.466 254.319 322.568C254.319 323.67 253.438 324.551 252.337 324.551ZM278.978 323.743C278.318 323.743 277.804 323.229 277.804 322.568C277.804 321.907 278.318 321.393 278.978 321.393C279.639 321.393 280.153 321.907 280.153 322.568C280.153 323.229 279.639 323.743 278.978 323.743ZM305.619 323.743C304.959 323.743 304.445 323.229 304.445 322.568C304.445 321.907 304.959 321.393 305.619 321.393C306.28 321.393 306.793 321.907 306.793 322.568C306.793 323.229 306.28 323.743 305.619 323.743ZM332.26 323.743C331.6 323.743 331.086 323.229 331.086 322.568C331.086 321.907 331.6 321.393 332.26 321.393C332.921 321.393 333.434 321.907 333.434 322.568C333.434 323.229 332.921 323.743 332.26 323.743ZM358.901 324.551C357.8 324.551 356.846 323.67 356.846 322.568C356.846 321.466 357.8 320.585 358.901 320.585C360.002 320.585 360.883 321.466 360.883 322.568C360.883 323.67 360.002 324.551 358.901 324.551ZM385.468 323.743C384.881 323.743 384.294 323.229 384.294 322.568C384.294 321.907 384.881 321.393 385.468 321.393C386.129 321.393 386.716 321.907 386.716 322.568C386.716 323.229 386.129 323.743 385.468 323.743ZM412.109 322.641L412.036 322.568L412.109 322.495L412.183 322.568L412.109 322.641ZM26 298.625C24.4588 298.625 23.2846 297.45 23.2846 295.908C23.2846 294.439 24.4588 293.19 26 293.19C27.4678 293.19 28.7155 294.439 28.7155 295.908C28.7155 297.45 27.4678 298.625 26 298.625ZM52.6409 299.066C50.8795 299.066 49.4851 297.67 49.4851 295.908C49.4851 294.145 50.8795 292.75 52.6409 292.75C54.4023 292.75 55.7967 294.145 55.7967 295.908C55.7967 297.67 54.4023 299.066 52.6409 299.066ZM79.2818 300.094C76.9333 300.094 75.0251 298.258 75.0251 295.908C75.0251 293.557 76.9333 291.721 79.2818 291.721C81.5569 291.721 83.4651 293.557 83.4651 295.908C83.4651 298.258 81.5569 300.094 79.2818 300.094ZM105.849 300.094C103.574 300.094 101.666 298.258 101.666 295.908C101.666 293.557 103.574 291.721 105.849 291.721C108.198 291.721 110.106 293.557 110.106 295.908C110.106 298.258 108.198 300.094 105.849 300.094ZM132.49 300.094C130.215 300.094 128.307 298.258 128.307 295.908C128.307 293.557 130.215 291.721 132.49 291.721C134.839 291.721 136.747 293.557 136.747 295.908C136.747 298.258 134.839 300.094 132.49 300.094ZM159.131 300.094C156.856 300.094 154.948 298.258 154.948 295.908C154.948 293.557 156.856 291.721 159.131 291.721C161.48 291.721 163.388 293.557 163.388 295.908C163.388 298.258 161.48 300.094 159.131 300.094ZM185.772 301.122C182.91 301.122 180.561 298.845 180.561 295.908C180.561 293.043 182.91 290.693 185.772 290.693C188.708 290.693 191.056 293.043 191.056 295.908C191.056 298.845 188.708 301.122 185.772 301.122ZM212.413 301.122C209.477 301.122 207.202 298.845 207.202 295.908C207.202 293.043 209.477 290.693 212.413 290.693C215.275 290.693 217.624 293.043 217.624 295.908C217.624 298.845 215.275 301.122 212.413 301.122ZM239.054 300.094C236.705 300.094 234.797 298.258 234.797 295.908C234.797 293.557 236.705 291.721 239.054 291.721C241.329 291.721 243.237 293.557 243.237 295.908C243.237 298.258 241.329 300.094 239.054 300.094ZM265.695 300.094C263.346 300.094 261.438 298.258 261.438 295.908C261.438 293.557 263.346 291.721 265.695 291.721C267.97 291.721 269.878 293.557 269.878 295.908C269.878 298.258 267.97 300.094 265.695 300.094ZM292.262 300.094C289.987 300.094 288.079 298.258 288.079 295.908C288.079 293.557 289.987 291.721 292.262 291.721C294.611 291.721 296.519 293.557 296.519 295.908C296.519 298.258 294.611 300.094 292.262 300.094ZM318.903 299.066C317.142 299.066 315.747 297.67 315.747 295.908C315.747 294.145 317.142 292.75 318.903 292.75C320.664 292.75 322.132 294.145 322.132 295.908C322.132 297.67 320.664 299.066 318.903 299.066ZM345.544 298.405C344.149 298.405 343.049 297.303 343.049 295.908C343.049 294.512 344.149 293.411 345.544 293.411C346.938 293.411 348.039 294.512 348.039 295.908C348.039 297.303 346.938 298.405 345.544 298.405ZM372.185 297.891C371.084 297.891 370.203 297.009 370.203 295.908C370.203 294.806 371.084 293.925 372.185 293.925C373.286 293.925 374.166 294.806 374.166 295.908C374.166 297.009 373.286 297.891 372.185 297.891ZM398.826 297.083C398.165 297.083 397.651 296.569 397.651 295.908C397.651 295.247 398.165 294.733 398.826 294.733C399.486 294.733 400 295.247 400 295.908C400 296.569 399.486 297.083 398.826 297.083ZM425.466 298.405C424.072 298.405 422.971 297.303 422.971 295.908C422.971 294.512 424.072 293.411 425.466 293.411C426.861 293.411 427.962 294.512 427.962 295.908C427.962 297.303 426.861 298.405 425.466 298.405ZM452.107 297.083C451.447 297.083 450.933 296.569 450.933 295.908C450.933 295.247 451.447 294.733 452.107 294.733C452.768 294.733 453.282 295.247 453.282 295.908C453.282 296.569 452.768 297.083 452.107 297.083ZM39.2838 276.371C35.3941 276.371 32.2382 273.213 32.2382 269.247C32.2382 265.355 35.3941 262.197 39.2838 262.197C43.2469 262.197 46.4027 265.355 46.4027 269.247C46.4027 273.213 43.2469 276.371 39.2838 276.371ZM65.9246 274.535C63.0624 274.535 60.7139 272.185 60.7139 269.247C60.7139 266.383 63.0624 264.033 65.9246 264.033C68.8603 264.033 71.2088 266.383 71.2088 269.247C71.2088 272.185 68.8603 274.535 65.9246 274.535ZM92.5655 275.049C89.4097 275.049 86.841 272.479 86.841 269.247C86.841 266.089 89.4097 263.519 92.5655 263.519C95.7213 263.519 98.3634 266.089 98.3634 269.247C98.3634 272.479 95.7213 275.049 92.5655 275.049ZM119.206 278.575C114.069 278.575 109.886 274.388 109.886 269.247C109.886 264.106 114.069 259.92 119.206 259.92C124.344 259.92 128.527 264.106 128.527 269.247C128.527 274.388 124.344 278.575 119.206 278.575ZM145.847 278.868C140.563 278.868 136.233 274.535 136.233 269.247C136.233 263.959 140.563 259.626 145.847 259.626C151.131 259.626 155.461 263.959 155.461 269.247C155.461 274.535 151.131 278.868 145.847 278.868ZM172.488 276.886C168.232 276.886 164.856 273.434 164.856 269.247C164.856 265.061 168.232 261.683 172.488 261.683C176.671 261.683 180.047 265.061 180.047 269.247C180.047 273.434 176.671 276.886 172.488 276.886ZM199.056 276.886C194.872 276.886 191.496 273.434 191.496 269.247C191.496 265.061 194.872 261.683 199.056 261.683C203.312 261.683 206.688 265.061 206.688 269.247C206.688 273.434 203.312 276.886 199.056 276.886ZM225.697 276.886C221.513 276.886 218.137 273.434 218.137 269.247C218.137 265.061 221.513 261.683 225.697 261.683C229.953 261.683 233.329 265.061 233.329 269.247C233.329 273.434 229.953 276.886 225.697 276.886ZM252.337 276.886C248.154 276.886 244.778 273.434 244.778 269.247C244.778 265.061 248.154 261.683 252.337 261.683C256.521 261.683 259.97 265.061 259.97 269.247C259.97 273.434 256.521 276.886 252.337 276.886ZM278.978 276.886C274.795 276.886 271.346 273.434 271.346 269.247C271.346 265.061 274.795 261.683 278.978 261.683C283.162 261.683 286.611 265.061 286.611 269.247C286.611 273.434 283.162 276.886 278.978 276.886ZM305.619 276.886C301.436 276.886 297.987 273.434 297.987 269.247C297.987 265.061 301.436 261.683 305.619 261.683C309.802 261.683 313.252 265.061 313.252 269.247C313.252 273.434 309.802 276.886 305.619 276.886ZM332.26 276.886C328.077 276.886 324.627 273.434 324.627 269.247C324.627 265.061 328.077 261.683 332.26 261.683C336.443 261.683 339.819 265.061 339.819 269.247C339.819 273.434 336.443 276.886 332.26 276.886ZM358.901 275.049C355.672 275.049 353.103 272.479 353.103 269.247C353.103 266.089 355.672 263.519 358.901 263.519C362.057 263.519 364.625 266.089 364.625 269.247C364.625 272.479 362.057 275.049 358.901 275.049ZM385.468 274.535C382.606 274.535 380.258 272.185 380.258 269.247C380.258 266.383 382.606 264.033 385.468 264.033C388.404 264.033 390.753 266.383 390.753 269.247C390.753 272.185 388.404 274.535 385.468 274.535ZM412.109 273.507C409.834 273.507 407.926 271.598 407.926 269.247C407.926 266.971 409.834 265.061 412.109 265.061C414.458 265.061 416.366 266.971 416.366 269.247C416.366 271.598 414.458 273.507 412.109 273.507ZM438.75 271.744C437.356 271.744 436.255 270.643 436.255 269.247C436.255 267.852 437.356 266.75 438.75 266.75C440.145 266.75 441.245 267.852 441.245 269.247C441.245 270.643 440.145 271.744 438.75 271.744ZM465.391 270.422C464.731 270.422 464.217 269.908 464.217 269.247C464.217 268.586 464.731 268.072 465.391 268.072C466.052 268.072 466.565 268.586 466.565 269.247C466.565 269.908 466.052 270.422 465.391 270.422ZM492.032 271.23C490.931 271.23 490.05 270.349 490.05 269.247C490.05 268.146 490.931 267.264 492.032 267.264C493.133 267.264 494.014 268.146 494.014 269.247C494.014 270.349 493.133 271.23 492.032 271.23ZM518.673 271.083C517.645 271.083 516.838 270.276 516.838 269.247C516.838 268.219 517.645 267.411 518.673 267.411C519.7 267.411 520.508 268.219 520.508 269.247C520.508 270.276 519.7 271.083 518.673 271.083ZM545.314 270.276C544.727 270.276 544.286 269.835 544.286 269.247C544.286 268.66 544.727 268.219 545.314 268.219C545.827 268.219 546.341 268.66 546.341 269.247C546.341 269.835 545.827 270.276 545.314 270.276ZM26 252.282C20.6425 252.282 16.3124 247.948 16.3124 242.587C16.3124 237.299 20.6425 232.966 26 232.966C31.3576 232.966 35.6876 237.299 35.6876 242.587C35.6876 247.948 31.3576 252.282 26 252.282ZM52.6409 251.547C47.7237 251.547 43.6872 247.581 43.6872 242.587C43.6872 237.666 47.7237 233.7 52.6409 233.7C57.5581 233.7 61.5946 237.666 61.5946 242.587C61.5946 247.581 57.5581 251.547 52.6409 251.547ZM79.2818 251.547C74.2912 251.547 70.3281 247.581 70.3281 242.587C70.3281 237.666 74.2912 233.7 79.2818 233.7C84.199 233.7 88.1621 237.666 88.1621 242.587C88.1621 247.581 84.199 251.547 79.2818 251.547ZM105.849 252.208C100.565 252.208 96.3085 247.948 96.3085 242.587C96.3085 237.299 100.565 233.039 105.849 233.039C111.207 233.039 115.463 237.299 115.463 242.587C115.463 247.948 111.207 252.208 105.849 252.208ZM132.49 252.943C126.839 252.943 122.142 248.316 122.142 242.587C122.142 236.932 126.839 232.231 132.49 232.231C138.215 232.231 142.838 236.932 142.838 242.587C142.838 248.316 138.215 252.943 132.49 252.943ZM159.131 254.485C152.599 254.485 147.242 249.197 147.242 242.587C147.242 236.05 152.599 230.689 159.131 230.689C165.736 230.689 171.02 236.05 171.02 242.587C171.02 249.197 165.736 254.485 159.131 254.485ZM185.772 254.485C179.24 254.485 173.883 249.197 173.883 242.587C173.883 236.05 179.24 230.689 185.772 230.689C192.377 230.689 197.661 236.05 197.661 242.587C197.661 249.197 192.377 254.485 185.772 254.485ZM212.413 254.485C205.808 254.485 200.523 249.197 200.523 242.587C200.523 236.05 205.808 230.689 212.413 230.689C218.945 230.689 224.302 236.05 224.302 242.587C224.302 249.197 218.945 254.485 212.413 254.485ZM239.054 254.485C232.449 254.485 227.164 249.197 227.164 242.587C227.164 236.05 232.449 230.689 239.054 230.689C245.585 230.689 250.943 236.05 250.943 242.587C250.943 249.197 245.585 254.485 239.054 254.485ZM265.695 256.174C258.135 256.174 252.044 250.152 252.044 242.587C252.044 235.096 258.135 229 265.695 229C272.226 229 277.731 233.7 278.978 239.87C280.226 233.7 285.73 229 292.262 229C299.821 229 305.913 235.096 305.913 242.587C305.913 250.152 299.821 256.174 292.262 256.174C285.73 256.174 280.226 251.547 278.978 245.304C277.731 251.547 272.226 256.174 265.695 256.174ZM318.903 254.485C312.371 254.485 307.014 249.197 307.014 242.587C307.014 236.05 312.371 230.689 318.903 230.689C325.508 230.689 330.792 236.05 330.792 242.587C330.792 249.197 325.508 254.485 318.903 254.485ZM345.544 254.485C339.012 254.485 333.654 249.197 333.654 242.587C333.654 236.05 339.012 230.689 345.544 230.689C352.149 230.689 357.433 236.05 357.433 242.587C357.433 249.197 352.149 254.485 345.544 254.485ZM372.185 252.208C366.901 252.208 362.57 247.948 362.57 242.587C362.57 237.299 366.901 233.039 372.185 233.039C377.469 233.039 381.799 237.299 381.799 242.587C381.799 247.948 377.469 252.208 372.185 252.208ZM398.826 252.208C393.541 252.208 389.211 247.948 389.211 242.587C389.211 237.299 393.541 233.039 398.826 233.039C404.11 233.039 408.44 237.299 408.44 242.587C408.44 247.948 404.11 252.208 398.826 252.208ZM425.466 250.225C421.283 250.225 417.834 246.847 417.834 242.587C417.834 238.401 421.283 235.022 425.466 235.022C429.65 235.022 433.026 238.401 433.026 242.587C433.026 246.847 429.65 250.225 425.466 250.225ZM452.107 248.389C448.878 248.389 446.309 245.819 446.309 242.587C446.309 239.429 448.878 236.858 452.107 236.858C455.263 236.858 457.832 239.429 457.832 242.587C457.832 245.819 455.263 248.389 452.107 248.389ZM478.675 247.875C475.813 247.875 473.464 245.525 473.464 242.587C473.464 239.723 475.813 237.372 478.675 237.372C481.61 237.372 483.959 239.723 483.959 242.587C483.959 245.525 481.61 247.875 478.675 247.875ZM505.316 244.643C504.215 244.643 503.334 243.689 503.334 242.587C503.334 241.485 504.215 240.604 505.316 240.604C506.417 240.604 507.371 241.485 507.371 242.587C507.371 243.689 506.417 244.643 505.316 244.643ZM531.957 243.762C531.296 243.762 530.782 243.248 530.782 242.587C530.782 241.926 531.296 241.412 531.957 241.412C532.617 241.412 533.131 241.926 533.131 242.587C533.131 243.248 532.617 243.762 531.957 243.762ZM558.597 246.847C556.249 246.847 554.414 244.937 554.414 242.587C554.414 240.31 556.249 238.401 558.597 238.401C560.946 238.401 562.781 240.31 562.781 242.587C562.781 244.937 560.946 246.847 558.597 246.847ZM585.238 246.847C582.89 246.847 581.055 244.937 581.055 242.587C581.055 240.31 582.89 238.401 585.238 238.401C587.587 238.401 589.422 240.31 589.422 242.587C589.422 244.937 587.587 246.847 585.238 246.847ZM611.879 245.084C610.485 245.084 609.457 243.982 609.457 242.587C609.457 241.265 610.485 240.163 611.879 240.163C613.2 240.163 614.301 241.265 614.301 242.587C614.301 243.982 613.2 245.084 611.879 245.084ZM638.52 244.276C637.566 244.276 636.832 243.542 636.832 242.587C636.832 241.706 637.566 240.898 638.52 240.898C639.401 240.898 640.208 241.706 640.208 242.587C640.208 243.542 639.401 244.276 638.52 244.276ZM665.088 242.807L664.867 242.587L665.088 242.367L665.381 242.587L665.088 242.807ZM39.2838 226.282C33.6327 226.282 28.9357 221.655 28.9357 216C28.9357 210.271 33.6327 205.644 39.2838 205.644C45.0083 205.644 49.6319 210.271 49.6319 216C49.6319 221.655 45.0083 226.282 39.2838 226.282ZM65.9246 227.825C59.3929 227.825 54.0353 222.537 54.0353 216C54.0353 209.39 59.3929 204.029 65.9246 204.029C72.5298 204.029 77.814 209.39 77.814 216C77.814 222.537 72.5298 227.825 65.9246 227.825ZM92.5655 227.825C86.0337 227.825 80.6762 222.537 80.6762 216C80.6762 209.39 86.0337 204.029 92.5655 204.029C99.1707 204.029 104.455 209.39 104.455 216C104.455 222.537 99.1707 227.825 92.5655 227.825ZM119.206 229.587C111.721 229.587 105.629 223.491 105.629 216C105.629 208.435 111.721 202.339 119.206 202.339C125.298 202.339 130.509 206.452 132.197 212.034C133.885 206.085 139.389 201.752 145.847 201.752C153.627 201.752 160.012 208.142 160.012 216C160.012 223.785 153.627 230.175 145.847 230.175C139.389 230.175 133.885 225.842 132.197 219.893C130.509 225.474 125.298 229.587 119.206 229.587ZM172.488 226.282C166.764 226.282 162.14 221.655 162.14 216C162.14 210.271 166.764 205.644 172.488 205.644C178.139 205.644 182.836 210.271 182.836 216C182.836 221.655 178.139 226.282 172.488 226.282ZM199.056 227.825C192.524 227.825 187.24 222.537 187.24 216C187.24 209.39 192.524 204.029 199.056 204.029C205.661 204.029 211.018 209.39 211.018 216C211.018 222.537 205.661 227.825 199.056 227.825ZM225.697 227.825C219.165 227.825 213.807 222.537 213.807 216C213.807 209.39 219.165 204.029 225.697 204.029C232.302 204.029 237.586 209.39 237.586 216C237.586 222.537 232.302 227.825 225.697 227.825ZM252.337 227.825C245.806 227.825 240.448 222.537 240.448 216C240.448 209.39 245.806 204.029 252.337 204.029C258.943 204.029 264.227 209.39 264.227 216C264.227 222.537 258.943 227.825 252.337 227.825ZM278.978 226.282C273.254 226.282 268.63 221.655 268.63 216C268.63 210.271 273.254 205.644 278.978 205.644C284.703 205.644 289.326 210.271 289.326 216C289.326 221.655 284.703 226.282 278.978 226.282ZM305.619 226.282C299.895 226.282 295.271 221.655 295.271 216C295.271 210.271 299.895 205.644 305.619 205.644C311.344 205.644 315.967 210.271 315.967 216C315.967 221.655 311.344 226.282 305.619 226.282ZM332.26 226.282C326.536 226.282 321.912 221.655 321.912 216C321.912 210.271 326.536 205.644 332.26 205.644C337.985 205.644 342.608 210.271 342.608 216C342.608 221.655 337.985 226.282 332.26 226.282ZM358.901 226.282C353.176 226.282 348.553 221.655 348.553 216C348.553 210.271 353.176 205.644 358.901 205.644C364.552 205.644 369.249 210.271 369.249 216C369.249 221.655 364.552 226.282 358.901 226.282ZM385.468 226.282C379.817 226.282 375.194 221.655 375.194 216C375.194 210.271 379.817 205.644 385.468 205.644C391.193 205.644 395.817 210.271 395.817 216C395.817 221.655 391.193 226.282 385.468 226.282ZM412.109 227.825C405.578 227.825 400.22 222.537 400.22 216C400.22 209.39 405.578 204.029 412.109 204.029C418.714 204.029 423.999 209.39 423.999 216C423.999 222.537 418.714 227.825 412.109 227.825ZM438.75 229.587C431.264 229.587 425.173 223.491 425.173 216C425.173 208.435 431.264 202.339 438.75 202.339C445.355 202.339 450.786 207.04 452.107 213.209C453.355 207.04 458.859 202.339 465.391 202.339C472.877 202.339 478.968 208.435 478.968 216C478.968 223.491 472.877 229.587 465.391 229.587C458.859 229.587 453.355 224.887 452.107 218.718C450.786 224.887 445.355 229.587 438.75 229.587ZM492.032 226.282C486.307 226.282 481.684 221.655 481.684 216C481.684 210.271 486.307 205.644 492.032 205.644C497.756 205.644 502.38 210.271 502.38 216C502.38 221.655 497.756 226.282 492.032 226.282ZM518.673 224.887C513.756 224.887 509.719 220.921 509.719 216C509.719 211.006 513.756 207.04 518.673 207.04C523.59 207.04 527.627 211.006 527.627 216C527.627 220.921 523.59 224.887 518.673 224.887ZM545.314 224.887C540.323 224.887 536.36 220.921 536.36 216C536.36 211.006 540.323 207.04 545.314 207.04C550.231 207.04 554.194 211.006 554.194 216C554.194 220.921 550.231 224.887 545.314 224.887ZM571.881 221.068C569.092 221.068 566.817 218.791 566.817 216C566.817 213.136 569.092 210.859 571.881 210.859C574.743 210.859 577.019 213.136 577.019 216C577.019 218.791 574.743 221.068 571.881 221.068ZM598.522 221.215C595.66 221.215 593.311 218.864 593.311 216C593.311 213.062 595.66 210.712 598.522 210.712C601.458 210.712 603.806 213.062 603.806 216C603.806 218.864 601.458 221.215 598.522 221.215ZM625.163 218.497C623.769 218.497 622.668 217.322 622.668 216C622.668 214.605 623.769 213.43 625.163 213.43C626.557 213.43 627.658 214.605 627.658 216C627.658 217.322 626.557 218.497 625.163 218.497ZM651.804 217.983C650.703 217.983 649.822 217.028 649.822 216C649.822 214.898 650.703 213.944 651.804 213.944C652.905 213.944 653.785 214.898 653.785 216C653.785 217.028 652.905 217.983 651.804 217.983ZM678.445 217.175C677.784 217.175 677.271 216.588 677.271 216C677.271 215.339 677.784 214.752 678.445 214.752C679.105 214.752 679.619 215.339 679.619 216C679.619 216.588 679.105 217.175 678.445 217.175ZM705.086 217.175C704.425 217.175 703.911 216.588 703.911 216C703.911 215.339 704.425 214.752 705.086 214.752C705.746 214.752 706.26 215.339 706.26 216C706.26 216.588 705.746 217.175 705.086 217.175ZM746.405 194.995C745.524 194.995 744.79 194.261 744.79 193.379C744.79 192.424 745.524 191.69 746.405 191.69C747.359 191.69 748.093 192.424 748.093 193.379C748.093 194.261 747.359 194.995 746.405 194.995ZM52.6409 200.724C46.3293 200.724 41.2653 195.583 41.2653 189.34C41.2653 183.024 46.3293 177.956 52.6409 177.956C58.8791 177.956 64.0165 183.024 64.0165 189.34C64.0165 195.583 58.8791 200.724 52.6409 200.724ZM79.2818 201.238C72.6766 201.238 67.3925 195.876 67.3925 189.34C67.3925 182.73 72.6766 177.442 79.2818 177.442C85.8136 177.442 91.1711 182.73 91.1711 189.34C91.1711 195.876 85.8136 201.238 79.2818 201.238ZM105.849 201.238C99.3175 201.238 94.0333 195.876 94.0333 189.34C94.0333 182.73 99.3175 177.442 105.849 177.442C112.454 177.442 117.812 182.73 117.812 189.34C117.812 195.876 112.454 201.238 105.849 201.238ZM132.49 199.695C126.839 199.695 122.142 194.995 122.142 189.34C122.142 183.611 126.839 178.984 132.49 178.984C138.215 178.984 142.838 183.611 142.838 189.34C142.838 194.995 138.215 199.695 132.49 199.695ZM159.131 198.888C153.847 198.888 149.517 194.628 149.517 189.34C149.517 183.978 153.847 179.719 159.131 179.719C164.415 179.719 168.745 183.978 168.745 189.34C168.745 194.628 164.415 198.888 159.131 198.888ZM185.772 195.289C182.469 195.289 179.827 192.645 179.827 189.34C179.827 186.035 182.469 183.317 185.772 183.317C189.075 183.317 191.79 186.035 191.79 189.34C191.79 192.645 189.075 195.289 185.772 195.289ZM212.413 196.905C208.23 196.905 204.78 193.526 204.78 189.34C204.78 185.08 208.23 181.702 212.413 181.702C216.596 181.702 220.045 185.08 220.045 189.34C220.045 193.526 216.596 196.905 212.413 196.905ZM239.054 196.905C234.87 196.905 231.421 193.526 231.421 189.34C231.421 185.08 234.87 181.702 239.054 181.702C243.237 181.702 246.613 185.08 246.613 189.34C246.613 193.526 243.237 196.905 239.054 196.905ZM265.695 195.656C262.172 195.656 259.31 192.792 259.31 189.34C259.31 185.814 262.172 182.95 265.695 182.95C269.144 182.95 272.006 185.814 272.006 189.34C272.006 192.792 269.144 195.656 265.695 195.656ZM292.262 195.656C288.813 195.656 285.95 192.792 285.95 189.34C285.95 185.814 288.813 182.95 292.262 182.95C295.785 182.95 298.647 185.814 298.647 189.34C298.647 192.792 295.785 195.656 292.262 195.656ZM318.903 195.068C315.747 195.068 313.178 192.498 313.178 189.34C313.178 186.108 315.747 183.538 318.903 183.538C322.132 183.538 324.701 186.108 324.701 189.34C324.701 192.498 322.132 195.068 318.903 195.068ZM345.544 195.068C342.388 195.068 339.819 192.498 339.819 189.34C339.819 186.108 342.388 183.538 345.544 183.538C348.773 183.538 351.342 186.108 351.342 189.34C351.342 192.498 348.773 195.068 345.544 195.068ZM372.185 195.068C369.029 195.068 366.46 192.498 366.46 189.34C366.46 186.108 369.029 183.538 372.185 183.538C375.34 183.538 377.983 186.108 377.983 189.34C377.983 192.498 375.34 195.068 372.185 195.068ZM398.826 195.509C395.376 195.509 392.587 192.718 392.587 189.34C392.587 185.888 395.376 183.097 398.826 183.097C402.275 183.097 404.99 185.888 404.99 189.34C404.99 192.718 402.275 195.509 398.826 195.509ZM425.466 195.656C421.944 195.656 419.081 192.792 419.081 189.34C419.081 185.814 421.944 182.95 425.466 182.95C428.989 182.95 431.778 185.814 431.778 189.34C431.778 192.792 428.989 195.656 425.466 195.656ZM452.107 195.656C448.585 195.656 445.722 192.792 445.722 189.34C445.722 185.814 448.585 182.95 452.107 182.95C455.557 182.95 458.419 185.814 458.419 189.34C458.419 192.792 455.557 195.656 452.107 195.656ZM478.675 196.905C474.492 196.905 471.116 193.526 471.116 189.34C471.116 185.08 474.492 181.702 478.675 181.702C482.932 181.702 486.307 185.08 486.307 189.34C486.307 193.526 482.932 196.905 478.675 196.905ZM505.316 198.227C500.398 198.227 496.435 194.261 496.435 189.34C496.435 184.346 500.398 180.38 505.316 180.38C510.306 180.38 514.269 184.346 514.269 189.34C514.269 194.261 510.306 198.227 505.316 198.227ZM531.957 198.888C526.672 198.888 522.342 194.628 522.342 189.34C522.342 183.978 526.672 179.719 531.957 179.719C537.241 179.719 541.571 183.978 541.571 189.34C541.571 194.628 537.241 198.888 531.957 198.888ZM558.597 199.695C552.873 199.695 548.249 194.995 548.249 189.34C548.249 183.611 552.873 178.984 558.597 178.984C564.322 178.984 568.946 183.611 568.946 189.34C568.946 194.995 564.322 199.695 558.597 199.695ZM585.238 199.695C579.514 199.695 574.89 194.995 574.89 189.34C574.89 183.611 579.514 178.984 585.238 178.984C590.963 178.984 595.586 183.611 595.586 189.34C595.586 194.995 590.963 199.695 585.238 199.695ZM611.879 199.695C606.155 199.695 601.531 194.995 601.531 189.34C601.531 183.611 606.155 178.984 611.879 178.984C617.604 178.984 622.227 183.611 622.227 189.34C622.227 194.995 617.604 199.695 611.879 199.695ZM638.52 199.695C632.796 199.695 628.172 194.995 628.172 189.34C628.172 183.611 632.796 178.984 638.52 178.984C644.171 178.984 648.868 183.611 648.868 189.34C648.868 194.995 644.171 199.695 638.52 199.695ZM665.088 198.888C659.803 198.888 655.547 194.628 655.547 189.34C655.547 183.978 659.803 179.719 665.088 179.719C670.445 179.719 674.702 183.978 674.702 189.34C674.702 194.628 670.445 198.888 665.088 198.888ZM691.728 195.656C688.279 195.656 685.417 192.792 685.417 189.34C685.417 185.814 688.279 182.95 691.728 182.95C695.251 182.95 698.113 185.814 698.113 189.34C698.113 192.792 695.251 195.656 691.728 195.656ZM719.03 194.407C716.975 194.407 715.287 192.718 715.287 190.588C715.287 188.532 716.975 186.843 719.03 186.843C721.085 186.843 722.773 188.532 722.773 190.588C722.773 192.718 721.085 194.407 719.03 194.407ZM39.2838 174.577C32.752 174.577 27.3944 169.216 27.3944 162.679C27.3944 156.069 32.752 150.781 39.2838 150.781C45.8889 150.781 51.1731 156.069 51.1731 162.679C51.1731 169.216 45.8889 174.577 39.2838 174.577ZM65.9246 173.035C60.2002 173.035 55.5765 168.408 55.5765 162.679C55.5765 156.951 60.2002 152.324 65.9246 152.324C71.6491 152.324 76.2728 156.951 76.2728 162.679C76.2728 168.408 71.6491 173.035 65.9246 173.035ZM92.5655 173.035C86.841 173.035 82.2174 168.408 82.2174 162.679C82.2174 156.951 86.841 152.324 92.5655 152.324C98.29 152.324 102.914 156.951 102.914 162.679C102.914 168.408 98.29 173.035 92.5655 173.035ZM119.206 169.069C115.684 169.069 112.748 166.205 112.748 162.679C112.748 159.081 115.684 156.216 119.206 156.216C122.729 156.216 125.591 159.081 125.591 162.679C125.591 166.205 122.729 169.069 119.206 169.069ZM145.847 170.244C141.664 170.244 138.215 166.866 138.215 162.679C138.215 158.493 141.664 155.041 145.847 155.041C150.031 155.041 153.407 158.493 153.407 162.679C153.407 166.866 150.031 170.244 145.847 170.244ZM172.488 168.996C168.965 168.996 166.103 166.205 166.103 162.679C166.103 159.154 168.965 156.29 172.488 156.29C175.938 156.29 178.8 159.154 178.8 162.679C178.8 166.205 175.938 168.996 172.488 168.996ZM199.056 168.408C195.9 168.408 193.331 165.838 193.331 162.679C193.331 159.448 195.9 156.877 199.056 156.877C202.285 156.877 204.854 159.448 204.854 162.679C204.854 165.838 202.285 168.408 199.056 168.408ZM225.697 166.866C223.421 166.866 221.513 164.956 221.513 162.679C221.513 160.329 223.421 158.42 225.697 158.42C228.045 158.42 229.953 160.329 229.953 162.679C229.953 164.956 228.045 166.866 225.697 166.866ZM252.337 166.866C250.062 166.866 248.154 164.956 248.154 162.679C248.154 160.329 250.062 158.42 252.337 158.42C254.686 158.42 256.594 160.329 256.594 162.679C256.594 164.956 254.686 166.866 252.337 166.866ZM278.978 165.838C277.217 165.838 275.823 164.442 275.823 162.679C275.823 160.917 277.217 159.521 278.978 159.521C280.74 159.521 282.134 160.917 282.134 162.679C282.134 164.442 280.74 165.838 278.978 165.838ZM305.619 165.397C304.078 165.397 302.904 164.148 302.904 162.679C302.904 161.137 304.078 159.962 305.619 159.962C307.087 159.962 308.335 161.137 308.335 162.679C308.335 164.148 307.087 165.397 305.619 165.397ZM332.26 165.177C330.866 165.177 329.765 164.075 329.765 162.679C329.765 161.284 330.866 160.182 332.26 160.182C333.654 160.182 334.755 161.284 334.755 162.679C334.755 164.075 333.654 165.177 332.26 165.177ZM358.901 164.662C357.8 164.662 356.846 163.781 356.846 162.679C356.846 161.578 357.8 160.696 358.901 160.696C360.002 160.696 360.883 161.578 360.883 162.679C360.883 163.781 360.002 164.662 358.901 164.662ZM385.468 163.855C384.881 163.855 384.294 163.34 384.294 162.679C384.294 162.018 384.881 161.504 385.468 161.504C386.129 161.504 386.716 162.018 386.716 162.679C386.716 163.34 386.129 163.855 385.468 163.855ZM412.109 163.855C411.449 163.855 410.935 163.34 410.935 162.679C410.935 162.018 411.449 161.504 412.109 161.504C412.77 161.504 413.284 162.018 413.284 162.679C413.284 163.34 412.77 163.855 412.109 163.855ZM438.75 163.855C438.09 163.855 437.576 163.34 437.576 162.679C437.576 162.018 438.09 161.504 438.75 161.504C439.411 161.504 439.924 162.018 439.924 162.679C439.924 163.34 439.411 163.855 438.75 163.855ZM465.391 163.855C464.731 163.855 464.217 163.34 464.217 162.679C464.217 162.018 464.731 161.504 465.391 161.504C466.052 161.504 466.565 162.018 466.565 162.679C466.565 163.34 466.052 163.855 465.391 163.855ZM492.032 163.855C491.371 163.855 490.858 163.34 490.858 162.679C490.858 162.018 491.371 161.504 492.032 161.504C492.692 161.504 493.206 162.018 493.206 162.679C493.206 163.34 492.692 163.855 492.032 163.855ZM518.673 163.855C518.012 163.855 517.499 163.34 517.499 162.679C517.499 162.018 518.012 161.504 518.673 161.504C519.333 161.504 519.847 162.018 519.847 162.679C519.847 163.34 519.333 163.855 518.673 163.855ZM545.314 163.855C544.653 163.855 544.139 163.34 544.139 162.679C544.139 162.018 544.653 161.504 545.314 161.504C545.974 161.504 546.488 162.018 546.488 162.679C546.488 163.34 545.974 163.855 545.314 163.855ZM571.881 163.855C571.294 163.855 570.707 163.34 570.707 162.679C570.707 162.018 571.294 161.504 571.881 161.504C572.542 161.504 573.129 162.018 573.129 162.679C573.129 163.34 572.542 163.855 571.881 163.855ZM26 145.64C20.7159 145.64 16.3858 141.307 16.3858 136.019C16.3858 130.731 20.7159 126.398 26 126.398C31.2842 126.398 35.6142 130.731 35.6142 136.019C35.6142 141.307 31.2842 145.64 26 145.64ZM52.6409 143.657C48.4576 143.657 45.0083 140.205 45.0083 136.019C45.0083 131.833 48.4576 128.381 52.6409 128.381C56.8242 128.381 60.2002 131.833 60.2002 136.019C60.2002 140.205 56.8242 143.657 52.6409 143.657ZM79.2818 141.234C76.3461 141.234 73.9976 138.883 73.9976 136.019C73.9976 133.081 76.3461 130.805 79.2818 130.805C82.144 130.805 84.4925 133.081 84.4925 136.019C84.4925 138.883 82.144 141.234 79.2818 141.234ZM105.849 142.335C102.4 142.335 99.5377 139.544 99.5377 136.019C99.5377 132.494 102.4 129.629 105.849 129.629C109.372 129.629 112.234 132.494 112.234 136.019C112.234 139.544 109.372 142.335 105.849 142.335ZM132.49 139.177C130.729 139.177 129.334 137.782 129.334 136.019C129.334 134.256 130.729 132.861 132.49 132.861C134.252 132.861 135.719 134.256 135.719 136.019C135.719 137.782 134.252 139.177 132.49 139.177ZM159.131 140.205C156.856 140.205 154.948 138.369 154.948 136.019C154.948 133.669 156.856 131.833 159.131 131.833C161.48 131.833 163.388 133.669 163.388 136.019C163.388 138.369 161.48 140.205 159.131 140.205ZM185.772 139.177C184.011 139.177 182.616 137.782 182.616 136.019C182.616 134.256 184.011 132.861 185.772 132.861C187.533 132.861 188.928 134.256 188.928 136.019C188.928 137.782 187.533 139.177 185.772 139.177ZM212.413 138.002C211.312 138.002 210.431 137.121 210.431 136.019C210.431 134.917 211.312 134.036 212.413 134.036C213.514 134.036 214.394 134.917 214.394 136.019C214.394 137.121 213.514 138.002 212.413 138.002ZM239.054 137.194C238.393 137.194 237.879 136.68 237.879 136.019C237.879 135.358 238.393 134.844 239.054 134.844C239.714 134.844 240.228 135.358 240.228 136.019C240.228 136.68 239.714 137.194 239.054 137.194ZM39.2838 115.161C36.128 115.161 33.5593 112.517 33.5593 109.359C33.5593 106.201 36.128 103.63 39.2838 103.63C42.513 103.63 45.0816 106.201 45.0816 109.359C45.0816 112.517 42.513 115.161 39.2838 115.161ZM65.9246 115.748C62.4019 115.748 59.613 112.884 59.613 109.359C59.613 105.833 62.4019 103.043 65.9246 103.043C69.4474 103.043 72.3097 105.833 72.3097 109.359C72.3097 112.884 69.4474 115.748 65.9246 115.748ZM92.5655 112.737C90.7308 112.737 89.1895 111.268 89.1895 109.359C89.1895 107.449 90.7308 105.98 92.5655 105.98C94.4737 105.98 95.9415 107.449 95.9415 109.359C95.9415 111.268 94.4737 112.737 92.5655 112.737ZM119.206 113.545C116.858 113.545 115.023 111.709 115.023 109.359C115.023 107.009 116.858 105.172 119.206 105.172C121.555 105.172 123.39 107.009 123.39 109.359C123.39 111.709 121.555 113.545 119.206 113.545ZM145.847 112.517C144.086 112.517 142.691 111.121 142.691 109.359C142.691 107.596 144.086 106.201 145.847 106.201C147.609 106.201 149.003 107.596 149.003 109.359C149.003 111.121 147.609 112.517 145.847 112.517ZM172.488 111.342C171.387 111.342 170.433 110.46 170.433 109.359C170.433 108.257 171.387 107.376 172.488 107.376C173.589 107.376 174.47 108.257 174.47 109.359C174.47 110.46 173.589 111.342 172.488 111.342ZM26 88.5005C22.8442 88.5005 20.2021 85.93 20.2021 82.6984C20.2021 79.5403 22.8442 76.9698 26 76.9698C29.1558 76.9698 31.7245 79.5403 31.7245 82.6984C31.7245 85.93 29.1558 88.5005 26 88.5005ZM52.6409 85.8565C50.8795 85.8565 49.4851 84.4611 49.4851 82.6984C49.4851 80.9358 50.8795 79.5403 52.6409 79.5403C54.4023 79.5403 55.7967 80.9358 55.7967 82.6984C55.7967 84.4611 54.4023 85.8565 52.6409 85.8565ZM79.2818 85.8565C77.5204 85.8565 76.0526 84.4611 76.0526 82.6984C76.0526 80.9358 77.5204 79.5403 79.2818 79.5403C81.0432 79.5403 82.4376 80.9358 82.4376 82.6984C82.4376 84.4611 81.0432 85.8565 79.2818 85.8565ZM105.849 83.2125C105.629 83.2125 105.336 82.9922 105.336 82.6984C105.336 82.4047 105.629 82.1843 105.849 82.1843C106.143 82.1843 106.436 82.4047 106.436 82.6984C106.436 82.9922 106.143 83.2125 105.849 83.2125ZM132.49 83.8735C131.83 83.8735 131.316 83.3594 131.316 82.6984C131.316 82.0374 131.83 81.5233 132.49 81.5233C133.151 81.5233 133.664 82.0374 133.664 82.6984C133.664 83.3594 133.151 83.8735 132.49 83.8735ZM39.2838 58.829C37.816 58.829 36.5683 57.5804 36.5683 56.0381C36.5683 54.5692 37.816 53.3207 39.2838 53.3207C40.825 53.3207 42.0726 54.5692 42.0726 56.0381C42.0726 57.5804 40.825 58.829 39.2838 58.829ZM65.9246 58.829C64.4568 58.829 63.2092 57.5804 63.2092 56.0381C63.2092 54.5692 64.4568 53.3207 65.9246 53.3207C67.4659 53.3207 68.6401 54.5692 68.6401 56.0381C68.6401 57.5804 67.4659 58.829 65.9246 58.829ZM92.5655 56.3319L92.272 56.0381L92.5655 55.7443L92.8591 56.0381L92.5655 56.3319ZM26 32.1687C24.4588 32.1687 23.2846 30.9201 23.2846 29.4512C23.2846 27.9089 24.4588 26.6603 26 26.6603C27.4678 26.6603 28.7155 27.9089 28.7155 29.4512C28.7155 30.9201 27.4678 32.1687 26 32.1687ZM52.6409 29.8184L52.2739 29.4512L52.6409 29.0106L53.0079 29.4512L52.6409 29.8184ZM12.6429 5.50833C11.1751 5.50833 9.92742 4.25978 9.92742 2.79089C9.92742 1.24856 11.1751 0 12.6429 0C14.1841 0 15.4317 1.24856 15.4317 2.79089C15.4317 4.25978 14.1841 5.50833 12.6429 5.50833Z" fill="url(#paint0_radial)"/>
<path d="M15.2653 189.34C15.2653 195.583 20.3293 200.724 26.6409 200.724C32.8791 200.724 38.0165 195.583 38.0165 189.34C38.0165 183.024 32.8791 177.956 26.6409 177.956C20.3293 177.956 15.2653 183.024 15.2653 189.34Z" fill="url(#paint1_radial)"/>
<defs>
<radialGradient id="paint0_radial" cx="0" cy="0" r="1" gradientUnits="userSpaceOnUse" gradientTransform="translate(378.093 175.385) rotate(90) scale(175.385 370)">
<stop stop-color="#09D4D5"/>
<stop offset="0.725004" stop-color="#E0205D"/>
</radialGradient>
<radialGradient id="paint1_radial" cx="0" cy="0" r="1" gradientUnits="userSpaceOnUse" gradientTransform="translate(378.093 175.385) rotate(90) scale(175.385 370)">
<stop stop-color="#09D4D5"/>
<stop offset="0.725004" stop-color="#E0205D"/>
</radialGradient>
</defs>
</svg>
