<svg width="195" height="40" viewBox="0 0 195 40" fill="none" xmlns="http://www.w3.org/2000/svg">
<path d="M40.9037 39.1341H31.471V19.9134L20.4947 36.9696L9.34696 19.8268L9.43271 39.1341H0V0.865778H6.94591L20.409 21.2986L33.872 0.865778H40.9037V39.1341Z" fill="#FC0D66"/>
<path d="M85.7519 20.0007C85.7519 31.1695 77.0909 39.9141 65.6001 39.9141C54.1951 39.9141 45.5342 31.1695 45.5342 20.0007C45.5342 8.83188 54.1951 0.0872993 65.6001 0.0872993C77.0909 0.0872993 85.7519 8.83188 85.7519 20.0007ZM76.1476 20.0007C76.1476 13.9401 71.7743 8.91846 65.6001 8.91846C59.426 8.91846 55.0526 13.9401 55.0526 20.0007C55.0526 26.0613 59.426 31.083 65.6001 31.083C71.7743 31.083 76.1476 25.9747 76.1476 20.0007Z" fill="#FC0D66"/>
<path d="M124.855 21.2987C124.855 33.1602 118.08 40 107.19 40C96.385 40 89.6106 33.1602 89.6106 21.2987V0.865784H99.0433V21.4718C99.0433 27.3593 102.216 31.0822 107.19 31.0822C112.163 31.0822 115.422 27.2727 115.422 21.4718V0.865784H124.855V21.2987Z" fill="#FC0D66"/>
<path d="M161.299 12.7273H151.867C151.352 9.87012 149.551 7.87878 145.692 7.87878C142.434 7.87878 140.29 9.26406 140.29 11.6883C140.29 13.7662 141.834 14.632 144.663 15.3247L149.98 16.5368C156.926 18.0952 161.385 20.8658 161.385 27.4459C161.385 35.0649 155.125 39.9134 145.692 39.9134C137.203 39.9134 129.485 35.8441 128.542 26.4069H137.975C138.575 29.7835 141.491 31.7748 145.95 31.7748C149.466 31.7748 151.266 30.4761 151.266 28.3982C151.266 27.0995 150.495 25.7143 147.236 25.1082L140.976 23.7229C133.516 22.0779 130 18.5281 130 12.4675C130 4.84848 136.174 0 145.092 0C151.181 0 160.27 2.42424 161.299 12.7273Z" fill="#FC0D66"/>
<path d="M175.792 16.1039H192.599V24.2424H175.792V30.909H195V39.2207H166.359V0.865778H195V9.17746H175.792V16.1039Z" fill="#FC0D66"/>
</svg>
