<svg width="65" height="54" viewBox="0 0 65 54" fill="none" xmlns="http://www.w3.org/2000/svg">
<path d="M15.4543 5.25C9.94195 5.25 5.44675 9.71739 5.44675 15.1957C5.44675 18.0326 6.62797 20.5761 8.53105 22.3696L13.42 27.2283C13.3872 24.9457 13.7481 22.663 14.5028 20.5109L12.5997 18.587C11.6153 17.7717 10.9591 16.5652 10.9591 15.1957C10.9591 12.75 12.9606 10.7935 15.3887 10.7935C16.8324 10.7935 18.1449 11.5109 18.9324 12.587L19.4573 13.1087C20.9011 11.7717 22.5088 10.6957 24.215 9.91304L22.9354 8.64131C21.0979 6.55435 18.4402 5.25 15.4543 5.25Z" fill="#E2195B"/>
<path d="M46.0676 12.6196C46.8879 11.5435 48.1676 10.8261 49.6113 10.8261C52.0722 10.8261 54.0409 12.8152 54.0409 15.2283C54.0409 16.5978 53.3847 17.8369 52.4003 18.6196L50.4972 20.5109C51.2847 22.6956 51.6784 24.9783 51.6456 27.2609L56.5346 22.4022C58.4377 20.5761 59.6189 18.0652 59.6189 15.2283C59.6189 9.74999 55.1237 5.2826 49.6113 5.2826C46.6254 5.2826 43.9677 6.58695 42.1302 8.6413L40.8506 9.91303C42.524 10.7283 44.0989 11.8043 45.5427 13.1087L46.0676 12.6196Z" fill="#E2195B"/>
<path d="M37.7663 40.663L39.0131 33.3913L32.5492 29.9674L26.0853 33.3913L27.3322 40.663L22.0167 35.5435L16.7668 38.2826L19.3261 40.8261C24.5432 46.6957 32.4836 54 32.4836 54L46.0348 40.5326L46.0676 40.5L48.2988 38.2826L43.0818 35.5435L37.7663 40.663Z" fill="white"/>
<path d="M65 15.3587C65 6.91304 58.1095 0.0652174 49.6113 0.0652174C44.952 0.0652174 40.7521 2.15217 37.9303 5.41304L35.1085 8.21739C33.4023 7.98913 31.6633 7.98913 29.9571 8.21739L27.1025 5.38043C24.2479 2.08696 20.0808 0 15.3887 0C6.89046 0 0 6.84783 0 15.2935C0 19.7283 1.90308 23.7065 4.95457 26.5109L16.1105 37.5978L18.7027 32.3478L13.3872 27.1957H13.42L8.53104 22.3696C6.62797 20.5435 5.44674 18.0326 5.44674 15.1957C5.44674 9.71739 9.94195 5.25 15.4543 5.25C18.4402 5.25 21.0979 6.55435 22.9354 8.6087L24.215 9.88043C22.5088 10.6957 20.9011 11.7717 19.4573 13.0761C19.2605 13.2391 19.0964 13.4022 18.8995 13.5652C16.8652 15.6196 15.4215 17.9674 14.5356 20.5109C13.7809 22.663 13.42 24.9457 13.4528 27.2283L20.737 28.2717L24.0182 21.6522L25.265 28.8913L32.5164 29.9348L39.7678 28.8913L41.0474 21.6196L44.3286 28.2391L51.6128 27.1957C51.6456 22.2717 49.8082 17.3152 46.002 13.5652C44.4599 12.0326 42.688 10.7935 40.8178 9.91304L42.0974 8.6413C43.9349 6.58696 46.5926 5.28261 49.5785 5.28261C55.0909 5.28261 59.5861 9.75 59.5861 15.2283C59.5861 18.0652 58.4048 20.6087 56.5018 22.4022L51.6128 27.2609C51.6128 27.2609 51.6128 27.2609 51.6128 27.2283L46.3629 32.3152L48.9551 37.5652L60.0454 26.5435C63.0969 23.7717 65 19.7935 65 15.3587Z" fill="white"/>
</svg>
