<svg width="299" height="72" viewBox="0 0 299 72" fill="none" xmlns="http://www.w3.org/2000/svg">
<rect width="298.477" height="72" fill="#1C1C1C"/>
<path d="M68.5313 61.384H55.1683V35.6556L39.6185 58.4867L23.8258 35.5397L23.9473 61.384H10.5843V10.1589H20.4243L39.4971 37.5099L58.5698 10.1589H68.5313V61.384Z" fill="#FC0D66"/>
<path d="M132.066 35.7723C132.066 50.7226 119.797 62.4279 103.518 62.4279C87.3608 62.4279 75.0911 50.7226 75.0911 35.7723C75.0911 20.822 87.3608 9.1167 103.518 9.1167C119.797 9.1167 132.066 20.822 132.066 35.7723ZM118.46 35.7723C118.46 27.6597 112.265 20.9379 103.518 20.9379C94.7712 20.9379 88.5756 27.6597 88.5756 35.7723C88.5756 43.8848 94.7712 50.6067 103.518 50.6067C112.265 50.6067 118.46 43.769 118.46 35.7723Z" fill="#FC0D66"/>
<path d="M187.462 37.51C187.462 53.3875 177.865 62.5431 162.437 62.5431C147.13 62.5431 137.533 53.3875 137.533 37.51V10.1589H150.896V37.7417C150.896 45.6225 155.391 50.606 162.437 50.606C169.483 50.606 174.099 45.5066 174.099 37.7417V10.1589H187.462V37.51Z" fill="#FC0D66"/>
<path d="M239.092 26.0364H225.729C225 22.2119 222.449 19.5463 216.982 19.5463C212.366 19.5463 209.329 21.4006 209.329 24.6457C209.329 27.4271 211.516 28.586 215.524 29.5132L223.056 31.1357C232.896 33.2218 239.214 36.9304 239.214 45.7383C239.214 55.937 230.345 62.427 216.982 62.427C204.956 62.427 194.022 56.98 192.686 44.3476H206.049C206.899 48.8674 211.03 51.533 217.347 51.533C222.327 51.533 224.879 49.7946 224.879 47.0131C224.879 45.2747 223.785 43.4204 219.169 42.6092L210.301 40.7549C199.732 38.5529 194.751 33.8013 194.751 25.6887C194.751 15.49 203.498 9 216.132 9C224.757 9 237.634 12.245 239.092 26.0364Z" fill="#FC0D66"/>
<path d="M259.623 30.5563H283.433V41.4503H259.623V50.3742H286.835V61.5H246.26V10.1589H286.835V21.2848H259.623V30.5563Z" fill="#FC0D66"/>
</svg>
